<?xml version="1.0" encoding="UTF-8"?><svg xmlns="http://www.w3.org/2000/svg" xmlns:xlink="http://www.w3.org/1999/xlink" viewBox="0 0 2048 2048"><defs><style>.cls-1{fill:#6952a1;}.cls-1,.cls-2,.cls-3,.cls-4,.cls-5,.cls-6,.cls-7,.cls-8,.cls-9,.cls-10,.cls-11,.cls-12{stroke-width:0px;}.cls-2{fill:url(#linear-gradient);}.cls-3{fill:#eccea8;}.cls-4{fill:#989fc9;}.cls-13{clip-path:url(#clippath-2);}.cls-14{clip-path:url(#clippath-6);}.cls-5{fill:#a4abd5;}.cls-6{fill:none;}.cls-15{clip-path:url(#clippath-7);}.cls-16{clip-path:url(#clippath-1);}.cls-17{clip-path:url(#clippath-4);}.cls-7{fill:url(#linear-gradient-2);}.cls-8{fill:url(#linear-gradient-3);}.cls-18{clip-path:url(#clippath);}.cls-9{fill:#654ea3;}.cls-19{clip-path:url(#clippath-3);}.cls-10{fill:#a09cc5;}.cls-11{fill:#c5a2cc;}.cls-20{clip-path:url(#clippath-5);}.cls-12{fill:url(#linear-gradient-4);}</style><clipPath id="clippath"><rect class="cls-6" x="-1636" width="1536" height="2048"/></clipPath><clipPath id="clippath-1"><rect class="cls-6" x="-2430.25" y="-204.2" width="3003.14" height="2252.36"/></clipPath><clipPath id="clippath-2"><rect id="mask" class="cls-6" width="2048" height="2048"/></clipPath><clipPath id="clippath-3"><rect class="cls-6" x="-814" y="-738" width="4119.33" height="3089.5"/></clipPath><clipPath id="clippath-4"><polygon class="cls-6" points="1308.6 1155.98 929.58 1159.31 579.1 1222.08 579.1 1135.13 1309.25 1082.13 1308.6 1155.98"/></clipPath><linearGradient id="linear-gradient" x1="-3450.61" y1="-1762.7" x2="-3448.6" y2="-1762.7" gradientTransform="translate(-35427.23 -70020.69) rotate(-90) scale(20.63 -20.63)" gradientUnits="userSpaceOnUse"><stop offset="0" stop-color="#654ea3"/><stop offset=".1" stop-color="#654ea3"/><stop offset="1" stop-color="#60449a"/></linearGradient><clipPath id="clippath-5"><polygon class="cls-6" points="1748.62 1610.89 1320.93 1631.19 954.5 1776.05 954.5 1663.52 1748.62 1514.3 1748.62 1610.89"/></clipPath><linearGradient id="linear-gradient-2" x1="-3412.77" y1="-1716.71" x2="-3410.76" y2="-1716.71" gradientTransform="translate(-49200.74 -98827.43) rotate(-90) scale(29.45 -29.45)" gradientUnits="userSpaceOnUse"><stop offset="0" stop-color="#654ea3"/><stop offset=".72" stop-color="#62489d"/><stop offset="1" stop-color="#60449a"/></linearGradient><clipPath id="clippath-6"><polygon class="cls-6" points="2324.7 1491.07 1997.13 1503.54 1748.62 1610.89 1748.62 1514.3 2327.7 1410.12 2324.7 1491.07"/></clipPath><linearGradient id="linear-gradient-3" x1="-3404.39" y1="-1708.06" x2="-3402.38" y2="-1708.06" gradientTransform="translate(-54216.75 -110567.55) rotate(-90) scale(32.94 -32.94)" gradientUnits="userSpaceOnUse"><stop offset="0" stop-color="#654ea3"/><stop offset=".65" stop-color="#62499e"/><stop offset="1" stop-color="#60449a"/></linearGradient><clipPath id="clippath-7"><polygon class="cls-6" points="1865.74 1108.38 1547.82 1110.09 1308.6 1155.98 1309.25 1082.13 1866.79 1038.07 1865.74 1108.38"/></clipPath><linearGradient id="linear-gradient-4" x1="-3406.2" y1="-1733.42" x2="-3404.19" y2="-1733.42" gradientTransform="translate(-46955.5 -94251.23) rotate(-90) scale(28 -28)" gradientUnits="userSpaceOnUse"><stop offset="0" stop-color="#654ea3"/><stop offset=".63" stop-color="#634ba0"/><stop offset="1" stop-color="#60449a"/></linearGradient></defs><g id="logos"><g id="noncombined"><g id="logo"><g class="cls-18"><g class="cls-16"><rect class="cls-3" x="-2430.25" y="-204.2" width="3003.14" height="2252.36"/><polygon class="cls-9" points="-2430.23 1786.71 -2430.23 1896.79 560.64 1274.72 563.16 1229.21 -2430.23 1786.71"/><polygon class="cls-9" points="-2430.23 1624.31 -2430.23 1720.7 450.23 1219.58 452.07 1181.69 -2430.23 1624.31"/><polygon class="cls-9" points="-2430.23 1481.31 -2430.23 1574.7 341.2 1175.5 341.2 1135.75 -2430.23 1481.31"/><polygon class="cls-9" points="-2430.23 1345.35 -2430.25 1437.77 235.98 1135.9 237.44 1093.05 -2430.23 1345.35"/><polygon class="cls-9" points="-2430.23 1233.61 -2430.23 1314.53 132.32 1088.05 134.14 1051.26 -2430.23 1233.61"/><polygon class="cls-9" points="-2430.23 1135.75 -2430.23 1210.74 30.48 1045.69 31.8 1006.73 -2430.23 1135.75"/><polygon class="cls-5" points="-2430.23 1720.7 -2430.23 1786.71 563.16 1229.21 450.23 1219.58 -2430.23 1720.7"/><polygon class="cls-5" points="-2430.23 1574.7 -2430.23 1624.32 452.07 1181.69 341.23 1175.49 -2430.23 1574.7"/><polygon class="cls-5" points="-2430.25 1437.77 -2430.23 1481.31 341.23 1136.07 235.98 1135.9 -2430.25 1437.77"/><polygon class="cls-5" points="-2430.23 1314.53 -2430.23 1345.35 237.44 1093.05 132.32 1088.06 -2430.23 1314.53"/><polygon class="cls-5" points="-2430.23 1210.74 -2430.23 1233.61 134.47 1051.26 30.48 1045.69 -2430.23 1210.74"/><polygon class="cls-5" points="-2430.23 1116.87 -2430.23 1135.75 31.8 1006.73 -66.04 1003.87 -2430.23 1116.87"/><polygon class="cls-5" points="-2430.25 1896.79 -2430.23 2048.15 572.89 2048.15 572.89 1272.17 -2430.25 1896.79"/></g></g></g></g></g><g id="icon"><g class="cls-13"><g class="cls-19"><rect class="cls-3" x="-814" y="-738" width="4119.33" height="3089.5"/><polygon class="cls-9" points="-813.97 1992.88 -813.97 2143.88 3288.54 1290.61 3291.99 1228.18 -813.97 1992.88"/><polygon class="cls-9" points="-813.97 1770.13 -813.97 1902.35 3137.08 1214.97 3139.61 1163 -813.97 1770.13"/><polygon class="cls-9" points="-813.97 1573.98 -813.97 1702.08 2987.53 1154.5 2987.53 1099.98 -813.97 1573.98"/><polygon class="cls-9" points="-813.97 1387.48 -814 1514.25 2843.21 1100.18 2845.21 1041.41 -813.97 1387.48"/><polygon class="cls-9" points="-813.97 1234.21 -813.97 1345.21 2701.03 1034.56 2703.52 984.09 -813.97 1234.21"/><polygon class="cls-9" points="-813.97 1099.98 -813.97 1202.84 2561.32 976.44 2563.13 923 -813.97 1099.98"/><polygon class="cls-9" points="-813.97 977.79 -813.97 1074.08 2428.67 919.16 2430.2 864.07 -813.97 977.79"/><polygon class="cls-9" points="-813.97 864.24 -813.97 961.98 2299.93 861.35 2301.64 805.97 -813.97 864.24"/><polygon class="cls-9" points="-813.97 750 -813.97 848.55 2170.11 803.65 2170.91 748.89 -813.97 750"/><polygon class="cls-9" points="-813.97 750 2049.52 748.94 2050.2 692.25 -813.97 653.88 -813.97 750"/><polygon class="cls-5" points="-813.97 1902.35 -813.97 1992.88 3291.99 1228.18 3137.08 1214.97 -813.97 1902.35"/><polygon class="cls-5" points="-813.97 1702.08 -813.97 1770.13 3139.61 1163 2987.57 1154.5 -813.97 1702.08"/><polygon class="cls-5" points="-814 1514.25 -813.97 1573.98 2987.57 1100.41 2843.21 1100.18 -814 1514.25"/><polygon class="cls-5" points="-813.97 1345.21 -813.97 1387.48 2845.21 1041.41 2701.03 1034.56 -813.97 1345.21"/><polygon class="cls-5" points="-813.97 1202.84 -813.97 1234.21 2703.97 984.09 2561.32 976.44 -813.97 1202.84"/><polygon class="cls-5" points="-813.97 1074.08 -813.97 1099.98 2563.13 923.01 2428.93 919.09 -813.97 1074.08"/><polygon class="cls-5" points="-813.97 961.98 -813.97 977.79 2430.64 864.07 2299.07 861.18 -813.97 961.98"/><polygon class="cls-5" points="-814 2143.88 -813.97 2351.5 3305.33 2351.5 3305.33 1287.11 -814 2143.88"/><polygon class="cls-5" points="-813.97 848.55 -813.97 864.24 2301.23 806.66 2170.07 803.65 -813.97 848.55"/><g class="cls-17"><rect class="cls-2" x="574.28" y="1049.58" width="739.78" height="205.04" transform="translate(-99.77 89.56) rotate(-5.16)"/></g><g class="cls-20"><rect class="cls-7" x="939.36" y="1456.2" width="824.4" height="377.96" transform="translate(-231.56 221.44) rotate(-8.63)"/></g><g class="cls-14"><rect class="cls-8" x="1733.74" y="1349.73" width="608.84" height="321.55" transform="translate(-279.03 477.87) rotate(-12.52)"/></g><polygon class="cls-4" points="954.5 1776.06 1320.93 1631.19 1748.62 1610.89 954.5 1776.06"/><polygon class="cls-10" points="579.1 1222.08 929.58 1159.31 1308.6 1155.98 579.1 1222.08"/><polygon class="cls-10" points="1308.6 1155.98 1547.82 1110.09 1865.74 1108.38 1308.6 1155.98"/><g class="cls-15"><rect class="cls-12" x="1303.9" y="1008.53" width="567.6" height="177" transform="translate(-108.34 176.31) rotate(-6.15)"/></g><polygon class="cls-4" points="1748.62 1610.89 1997.13 1503.54 2324.7 1491.07 1748.62 1610.89"/><polygon class="cls-5" points="2347.34 1173.96 957.83 1343.12 579.1 1222.08 1865.74 1108.38 2347.34 1173.96"/><polygon class="cls-5" points="1878.97 831.82 575.78 864.07 263.74 832.32 1385.6 815.69 1878.97 831.82"/><polygon class="cls-1" points="1753.69 1336.51 956.71 1451.08 957.83 1343.46 1760.28 1245.88 1753.69 1336.51"/><polygon class="cls-1" points="1312.96 928.21 576.9 955.6 575.78 864.07 1315.46 845.77 1312.96 928.21"/><polygon class="cls-1" points="1310.87 1006.41 578.02 1047.04 576.9 955.6 1312.96 928.21 1310.87 1006.41"/><polygon class="cls-1" points="1309.25 1082.13 579.1 1135.13 578.02 1047.04 1310.87 1006.41 1309.25 1082.13"/><polygon class="cls-1" points="1874.88 902.03 1312.96 928.21 1315.46 845.77 1878.97 831.82 1874.88 902.03"/><polygon class="cls-1" points="1870.89 970.11 1310.86 1006.41 1312.96 928.21 1874.88 902.03 1870.89 970.11"/><polygon class="cls-1" points="1866.79 1043.61 1309.25 1082.13 1310.87 1006.41 1870.88 970.11 1866.79 1043.61"/><polygon class="cls-1" points="1751.6 1427.58 955.61 1557.2 956.71 1451.08 1753.56 1336.52 1751.6 1427.58"/><polygon class="cls-1" points="2339.96 1255.41 1753.56 1336.52 1760.28 1245.89 2347.34 1174.3 2339.96 1255.41"/><polygon class="cls-1" points="2332.34 1336.52 1751.6 1427.58 1753.69 1336.51 2339.97 1255.41 2332.34 1336.52"/><polygon class="cls-1" points="2327.7 1410.12 1748.62 1514.3 1751.6 1427.58 2332.34 1336.52 2327.7 1410.12"/><polygon class="cls-1" points="1748.62 1514.29 954.51 1663.14 955.61 1557.2 1751.6 1427.58 1748.62 1514.29"/><polygon class="cls-11" points="954.42 1664.54 847.27 1614.02 844.91 1516.39 755.13 1476.98 754.49 1379.4 659.16 1347.76 655.37 1246.78 957.83 1343.46 954.42 1664.54"/><polygon class="cls-11" points="579.1 1135.13 500.49 1114.67 500.56 1031.09 434.25 1014.47 432.67 934.08 366.5 923.64 363.51 842.48 575.78 864.07 579.1 1135.13"/><polygon class="cls-1" points="873.96 823.65 306.12 831.7 304.59 667.5 877.25 675.33 873.96 823.65"/><polygon class="cls-1" points="1385.6 815.69 873.96 823.65 877.25 675.33 1387.2 681.74 1385.6 815.69"/><polygon class="cls-11" points="305.36 749.58 251.18 749.6 248.97 668.12 304.6 667.5 305.36 749.58"/></g></g></g></svg>