<?xml version="1.0" encoding="UTF-8"?><svg xmlns="http://www.w3.org/2000/svg" xmlns:xlink="http://www.w3.org/1999/xlink" viewBox="0 0 2048 2048"><defs><style>.cls-1{fill:#6952a1;}.cls-1,.cls-2,.cls-3,.cls-4,.cls-5,.cls-6,.cls-7,.cls-8,.cls-9,.cls-10,.cls-11,.cls-12,.cls-13,.cls-14,.cls-15,.cls-16{stroke-width:0px;}.cls-2{fill:url(#linear-gradient);}.cls-3{fill:#eccea8;}.cls-4{fill:#989fc9;}.cls-17{clip-path:url(#clippath-2);}.cls-5{fill:#1d2041;}.cls-18{isolation:isolate;}.cls-19{clip-path:url(#clippath-6);}.cls-6{fill:#a4abd5;}.cls-7{fill:#f0f1f8;}.cls-8{fill:none;}.cls-9,.cls-20{fill:#7f47dd;}.cls-21{clip-path:url(#clippath-7);}.cls-22{clip-path:url(#clippath-1);}.cls-23{clip-path:url(#clippath-4);}.cls-10{fill:url(#linear-gradient-2);}.cls-11{fill:url(#linear-gradient-3);}.cls-24{clip-path:url(#clippath);}.cls-12{fill:#654ea3;}.cls-25{mix-blend-mode:luminosity;}.cls-26{clip-path:url(#clippath-3);}.cls-13{fill:#a09cc5;}.cls-14{fill:#a4abd5;}.cls-15{fill:#c5a2cc;}.cls-27{clip-path:url(#clippath-5);}.cls-16{fill:url(#linear-gradient-4);}</style><clipPath id="clippath"><rect class="cls-8" x="280.43" y="803.5" width="345.75" height="461"/></clipPath><clipPath id="clippath-1"><rect class="cls-8" x="101.65" y="757.53" width="676" height="507"/></clipPath><clipPath id="clippath-2"><polygon class="cls-8" points="449.97 1068.35 387.77 1068.89 330.26 1079.19 330.26 1064.92 450.08 1056.22 449.97 1068.35"/></clipPath><linearGradient id="linear-gradient" x1="2000.58" y1="-1474.72" x2="2000.91" y2="-1474.72" gradientTransform="translate(-30039 42351.83) rotate(-90) scale(20.63 -20.63)" gradientUnits="userSpaceOnUse"><stop offset="0" stop-color="#654ea3"/><stop offset=".1" stop-color="#654ea3"/><stop offset="1" stop-color="#60449a"/></linearGradient><clipPath id="clippath-3"><polygon class="cls-8" points="522.18 1143 452 1146.33 391.86 1170.1 391.86 1151.63 522.18 1127.15 522.18 1143"/></clipPath><linearGradient id="linear-gradient-2" x1="2056.76" y1="-1507.23" x2="2057.09" y2="-1507.23" gradientTransform="translate(-43926.77 61718.12) rotate(-90) scale(29.45 -29.45)" gradientUnits="userSpaceOnUse"><stop offset="0" stop-color="#654ea3"/><stop offset=".72" stop-color="#62489d"/><stop offset="1" stop-color="#60449a"/></linearGradient><clipPath id="clippath-4"><polygon class="cls-8" points="616.72 1123.33 562.96 1125.38 522.18 1143 522.18 1127.15 617.21 1110.05 616.72 1123.33"/></clipPath><linearGradient id="linear-gradient-3" x1="2073.5" y1="-1506.41" x2="2073.83" y2="-1506.41" gradientTransform="translate(-49043.91 69424.65) rotate(-90) scale(32.94 -32.94)" gradientUnits="userSpaceOnUse"><stop offset="0" stop-color="#654ea3"/><stop offset=".65" stop-color="#62499e"/><stop offset="1" stop-color="#60449a"/></linearGradient><clipPath id="clippath-5"><polygon class="cls-8" points="541.4 1060.53 489.23 1060.81 449.97 1068.35 450.08 1056.22 541.57 1049 541.4 1060.53"/></clipPath><linearGradient id="linear-gradient-4" x1="2041.25" y1="-1502.37" x2="2041.58" y2="-1502.37" gradientTransform="translate(-41577.03 58228.91) rotate(-90) scale(28 -28)" gradientUnits="userSpaceOnUse"><stop offset="0" stop-color="#654ea3"/><stop offset=".63" stop-color="#634ba0"/><stop offset="1" stop-color="#60449a"/></linearGradient><clipPath id="clippath-6"><rect id="mask-2" class="cls-9" x="1892" y="256" width="2048" height="1536" transform="translate(3940 -1892) rotate(90)"/></clipPath><clipPath id="clippath-7"><rect class="cls-8" x="1368.3" y="-533.94" width="2995.93" height="2246.95"/></clipPath></defs><g class="cls-18"><g id="logos"><g id="alternate_horizontal"><g id="alt_horizontal_bordered_light"><rect id="border" class="cls-7" x="213" y="731" width="1470" height="600"/><g id="text" class="cls-25"><path class="cls-5" d="M701.62,1084.29c-7.3-2.16-13.74-5.13-19.34-8.89l5.09-27h5.35c7.13,21.63,19.43,32.44,36.91,32.44,6.96,0,12.51-1.5,16.67-4.5,4.16-3,6.24-7.01,6.24-12.04,0-3.77-1.23-7.01-3.69-9.73-2.46-2.72-5.52-4.99-9.16-6.8-3.65-1.81-8.78-4.04-15.4-6.7-7.81-2.93-14.17-5.72-19.09-8.37-4.92-2.65-9.12-6.14-12.6-10.46-3.48-4.32-5.22-9.7-5.22-16.12,0-9.35,3.52-16.67,10.56-21.98,7.04-5.3,16.93-7.95,29.65-7.95,7.46,0,14.8.7,22.02,2.09,7.21,1.4,13.02,3.28,17.44,5.65l-4.58,24.28h-5.34c-3.73-8.79-8.23-15.31-13.49-19.57-5.26-4.25-11.54-6.38-18.84-6.38-6.45,0-11.33,1.26-14.64,3.77s-4.96,5.65-4.96,9.42c0,4.61,2.12,8.3,6.36,11.09,4.24,2.79,10.86,6.07,19.85,9.84,8.31,3.35,15.06,6.42,20.24,9.21,5.17,2.79,9.63,6.59,13.36,11.41,3.73,4.81,5.6,10.71,5.6,17.69,0,10.88-4.24,19.08-12.73,24.59-8.49,5.51-19.26,8.27-32.33,8.27-8.65,0-16.63-1.08-23.93-3.25Z"/><path class="cls-5" d="M807.12,1080.95c-8.23-4.4-14.76-10.78-19.6-19.15-4.84-8.37-7.25-18.21-7.25-29.51,0-11.86,2.42-22.01,7.25-30.46,4.84-8.44,11.37-14.83,19.6-19.15,8.23-4.32,17.26-6.49,27.11-6.49s18.88,2.17,27.11,6.49c8.23,4.33,14.76,10.71,19.6,19.15,4.84,8.44,7.25,18.6,7.25,30.46s-2.42,21.14-7.25,29.51c-4.84,8.37-11.37,14.76-19.6,19.15-8.23,4.39-17.27,6.59-27.11,6.59s-18.88-2.2-27.11-6.59ZM854.21,1071c4.84-6.83,7.25-19.81,7.25-38.93,0-12.56-1.23-22.5-3.69-29.83-2.46-7.33-5.69-12.45-9.67-15.38-3.99-2.93-8.61-4.39-13.87-4.39s-9.89,1.46-13.87,4.39c-3.99,2.93-7.21,8.06-9.67,15.38-2.46,7.33-3.69,17.27-3.69,29.83,0,19.12,2.42,32.1,7.25,38.93,4.84,6.84,11.49,10.26,19.98,10.26s15.14-3.42,19.98-10.26Z"/><path class="cls-5" d="M919.75,1079.27c-5.77-5.51-8.65-15.03-8.65-28.57v-63.63h-17.82v-7.54c8.48-1.12,15.95-4.67,22.4-10.67,6.45-6,11.62-13.61,15.53-22.82h5.34v108.84c0,12.7,5.77,19.05,17.31,19.05,4.24,0,7.8-1.12,10.69-3.35,2.88-2.23,4.33-4.95,4.33-8.16h2.54c0,7.68-2.46,13.78-7.38,18.32-4.92,4.53-11.54,6.8-19.85,6.8-10.52,0-18.67-2.76-24.43-8.27ZM920.01,979.53h49.38v7.33h-49.38v-7.33Z"/><path class="cls-5" d="M989.62,1080.95c-6.2-4.4-9.29-10.22-9.29-17.48,0-8.79,4.54-16.6,13.62-23.44,9.08-6.83,19.94-12.17,32.58-16.01,12.64-3.84,23.71-5.76,33.22-5.76l.25,7.75c-7.98,0-16.16,1.36-24.56,4.08-8.4,2.72-15.4,6.7-21,11.93-5.6,5.23-8.4,11.27-8.4,18.11,0,5.17,1.61,9.31,4.84,12.46,3.22,3.14,7.29,4.71,12.22,4.71,6.11,0,11.54-2.23,16.29-6.7,4.75-4.46,8.53-10.08,11.33-16.85,2.8-6.77,4.28-13.5,4.45-20.2h4.07v26.58h-3.82c-1.53,4.33-4.24,8.58-8.15,12.77-3.91,4.19-8.83,7.68-14.76,10.46-5.94,2.79-12.56,4.19-19.85,4.19-9.16,0-16.84-2.2-23.04-6.59ZM1056.69,1069.54v-11.09l-1.53-10.88v-40.82c0-14.93-6.53-22.4-19.6-22.4-5.43,0-9.51,1.08-12.22,3.24-2.72,2.17-5.43,5.34-8.15,9.52-2.21,3.35-4.16,5.79-5.85,7.33-1.7,1.54-4.16,2.3-7.38,2.3-3.56,0-6.36-1.01-8.4-3.04-2.04-2.02-3.05-4.5-3.05-7.43,0-3.77,1.87-7.19,5.6-10.26,3.73-3.07,8.87-5.47,15.4-7.22,6.53-1.74,13.96-2.62,22.27-2.62,15.27,0,26.89,2.55,34.87,7.64,7.97,5.1,11.96,12.74,11.96,22.92v56.52c0,5.72,1.78,8.58,5.35,8.58,2.04,0,3.77-.84,5.22-2.51,1.44-1.67,2.16-3.98,2.16-6.91h1.78c0,7.54-1.91,13.61-5.73,18.21-3.82,4.6-9.29,6.91-16.42,6.91-10.86,0-16.29-6-16.29-18Z"/><path class="cls-5" d="M701.62,1260.82c-7.3-2.16-13.74-5.13-19.34-8.9l5.09-27h5.35c7.13,21.63,19.43,32.44,36.91,32.44,6.96,0,12.51-1.5,16.67-4.5,4.16-3,6.24-7.01,6.24-12.04,0-3.77-1.23-7.01-3.69-9.73-2.46-2.72-5.52-4.99-9.16-6.8-3.65-1.81-8.78-4.05-15.4-6.7-7.81-2.93-14.17-5.72-19.09-8.37-4.92-2.65-9.12-6.14-12.6-10.47-3.48-4.32-5.22-9.7-5.22-16.12,0-9.35,3.52-16.67,10.56-21.98,7.04-5.3,16.93-7.95,29.65-7.95,7.46,0,14.8.7,22.02,2.09,7.21,1.4,13.02,3.28,17.44,5.65l-4.58,24.28h-5.34c-3.73-8.79-8.23-15.31-13.49-19.57-5.26-4.26-11.54-6.38-18.84-6.38-6.45,0-11.33,1.26-14.64,3.77s-4.96,5.65-4.96,9.42c0,4.6,2.12,8.3,6.36,11.09,4.24,2.79,10.86,6.07,19.85,9.84,8.31,3.35,15.06,6.42,20.24,9.21,5.17,2.79,9.63,6.59,13.36,11.41,3.73,4.81,5.6,10.71,5.6,17.69,0,10.88-4.24,19.08-12.73,24.59-8.49,5.51-19.26,8.27-32.33,8.27-8.65,0-16.63-1.08-23.93-3.24Z"/><path class="cls-5" d="M806.74,1255.8c-5.77-5.51-8.65-15.04-8.65-28.57v-63.63h-17.82v-7.54c8.48-1.12,15.95-4.67,22.4-10.68,6.45-6,11.62-13.61,15.53-22.81h5.34v108.84c0,12.7,5.77,19.05,17.31,19.05,4.24,0,7.8-1.12,10.69-3.35,2.88-2.23,4.33-4.95,4.33-8.16h2.54c0,7.68-2.46,13.78-7.38,18.31-4.92,4.53-11.54,6.8-19.85,6.8-10.52,0-18.67-2.76-24.43-8.27ZM807,1156.06h49.38v7.33h-49.38v-7.33Z"/><path class="cls-5" d="M876.61,1257.47c-6.2-4.4-9.29-10.22-9.29-17.48,0-8.79,4.54-16.6,13.62-23.44,9.08-6.83,19.94-12.17,32.58-16.01,12.64-3.84,23.71-5.76,33.22-5.76l.25,7.74c-7.98,0-16.16,1.36-24.56,4.08s-15.4,6.7-21,11.93c-5.6,5.23-8.4,11.27-8.4,18.11,0,5.16,1.61,9.31,4.84,12.45,3.22,3.14,7.29,4.71,12.22,4.71,6.11,0,11.54-2.23,16.29-6.7,4.75-4.46,8.53-10.08,11.33-16.85,2.8-6.77,4.28-13.5,4.46-20.2h4.07v26.58h-3.82c-1.53,4.33-4.24,8.58-8.14,12.77-3.91,4.19-8.83,7.68-14.76,10.47-5.94,2.79-12.56,4.19-19.85,4.19-9.16,0-16.84-2.2-23.04-6.59ZM943.68,1246.07v-11.09l-1.53-10.88v-40.82c0-14.93-6.54-22.4-19.6-22.4-5.43,0-9.5,1.08-12.22,3.24-2.72,2.16-5.43,5.34-8.14,9.52-2.21,3.35-4.16,5.79-5.85,7.33-1.7,1.54-4.16,2.3-7.38,2.3-3.56,0-6.36-1.01-8.4-3.04-2.04-2.02-3.05-4.5-3.05-7.43,0-3.77,1.87-7.18,5.6-10.26,3.73-3.07,8.87-5.47,15.4-7.22,6.53-1.74,13.96-2.62,22.27-2.62,15.27,0,26.89,2.55,34.87,7.64,7.97,5.1,11.96,12.73,11.96,22.92v56.51c0,5.72,1.78,8.58,5.34,8.58,2.04,0,3.77-.84,5.22-2.51,1.44-1.67,2.16-3.98,2.16-6.91h1.78c0,7.54-1.91,13.61-5.73,18.21-3.82,4.6-9.29,6.91-16.42,6.91-10.86,0-16.29-6-16.29-18Z"/><path class="cls-5" d="M987.71,1260.72v-4.19c5.77-1.12,9.71-3,11.84-5.65,2.12-2.65,3.18-7.33,3.18-14.02v-56.93c0-6.7-1.06-11.37-3.18-14.02-2.12-2.65-6.07-4.53-11.84-5.65v-4.19h40.47v80.79c0,6.7,1.06,11.38,3.18,14.02,2.12,2.65,6.07,4.54,11.84,5.65v4.19h-55.49ZM1001.84,1139c-3.48-2.86-5.22-6.31-5.22-10.36s1.74-7.46,5.22-10.26c3.48-2.79,7.68-4.19,12.6-4.19s9.08,1.4,12.47,4.19c3.39,2.79,5.09,6.21,5.09,10.26s-1.7,7.5-5.09,10.36c-3.4,2.86-7.55,4.29-12.47,4.29s-9.12-1.43-12.6-4.29Z"/><path class="cls-5" d="M1051.85,1260.72v-4.19c5.77-1.12,9.71-3,11.84-5.65,2.12-2.65,3.18-7.33,3.18-14.02v-56.93c0-6.7-1.06-11.37-3.18-14.02-2.12-2.65-6.07-4.53-11.84-5.65v-4.19h40.47v80.79c0,6.7,1.06,11.38,3.18,14.02,2.12,2.65,6.07,4.54,11.84,5.65v4.19h-55.49ZM1086.73,1174.06h6.87c3.56-7.12,8.23-12.45,14-16.01,5.77-3.56,12.13-5.34,19.09-5.34,5.6,0,10.05,1.08,13.36,3.24,3.31,2.17,4.96,5.13,4.96,8.9,0,2.93-1.06,5.41-3.18,7.43-2.12,2.02-4.8,3.03-8.02,3.03-2.04,0-3.82-.35-5.35-1.05-1.53-.7-3.48-1.81-5.85-3.35-2.38-1.53-4.29-2.62-5.73-3.24-1.44-.63-3.1-.94-4.96-.94-4.58,0-8.7,2.41-12.34,7.22-3.65,4.81-6.07,12.04-7.25,21.66h-5.6v-21.56Z"/><path class="cls-5" d="M1172.88,1258.42c-7.72-3.77-13.96-9.49-18.71-17.16-4.75-7.67-7.13-17.09-7.13-28.26,0-12.7,2.42-23.58,7.25-32.65,4.84-9.07,11.54-15.94,20.11-20.62,8.57-4.67,18.45-7.01,29.65-7.01,8.82,0,16.37.94,22.65,2.83,6.28,1.88,11.03,4.36,14.25,7.43,3.22,3.07,4.84,6.35,4.84,9.84,0,3.07-1.06,5.58-3.18,7.54-2.12,1.96-4.88,2.93-8.27,2.93-3.56,0-6.15-.8-7.76-2.41-1.61-1.6-3.27-4.22-4.96-7.85-1.19-2.93-2.42-5.34-3.69-7.22-1.27-1.88-3.23-3.45-5.85-4.71-2.63-1.26-6.15-1.88-10.56-1.88-18.67,0-28,15.63-28,46.89,0,13.26,3.05,24.07,9.16,32.44,6.11,8.37,14.59,12.56,25.45,12.56,7.64,0,14.42-2.06,20.36-6.17,5.94-4.11,10.44-10.78,13.49-19.99l5.6,1.05c-2.54,11.72-7.89,21-16.04,27.84-8.15,6.84-19.18,10.26-33.09,10.26-9.33,0-17.86-1.88-25.58-5.65Z"/><path class="cls-5" d="M1266.81,1257.47c-6.2-4.4-9.29-10.22-9.29-17.48,0-8.79,4.54-16.6,13.62-23.44,9.08-6.83,19.94-12.17,32.58-16.01,12.64-3.84,23.71-5.76,33.22-5.76l.25,7.74c-7.98,0-16.16,1.36-24.56,4.08-8.4,2.72-15.4,6.7-21,11.93-5.6,5.23-8.4,11.27-8.4,18.11,0,5.16,1.61,9.31,4.84,12.45,3.22,3.14,7.29,4.71,12.22,4.71,6.11,0,11.54-2.23,16.29-6.7,4.75-4.46,8.53-10.08,11.33-16.85,2.8-6.77,4.28-13.5,4.45-20.2h4.07v26.58h-3.82c-1.53,4.33-4.24,8.58-8.15,12.77-3.91,4.19-8.83,7.68-14.76,10.47-5.94,2.79-12.56,4.19-19.85,4.19-9.16,0-16.84-2.2-23.04-6.59ZM1333.88,1246.07v-11.09l-1.53-10.88v-40.82c0-14.93-6.53-22.4-19.6-22.4-5.43,0-9.51,1.08-12.22,3.24-2.72,2.16-5.43,5.34-8.15,9.52-2.21,3.35-4.16,5.79-5.85,7.33-1.7,1.54-4.16,2.3-7.38,2.3-3.56,0-6.36-1.01-8.4-3.04-2.04-2.02-3.05-4.5-3.05-7.43,0-3.77,1.87-7.18,5.6-10.26,3.73-3.07,8.87-5.47,15.4-7.22,6.53-1.74,13.96-2.62,22.27-2.62,15.27,0,26.89,2.55,34.87,7.64,7.97,5.1,11.96,12.73,11.96,22.92v56.51c0,5.72,1.78,8.58,5.34,8.58,2.04,0,3.77-.84,5.22-2.51,1.44-1.67,2.16-3.98,2.16-6.91h1.78c0,7.54-1.91,13.61-5.73,18.21s-9.29,6.91-16.42,6.91c-10.86,0-16.29-6-16.29-18Z"/><path class="cls-5" d="M1400.56,1260.82c-7.3-2.16-13.75-5.13-19.34-8.9l5.09-27h5.35c7.13,21.63,19.43,32.44,36.91,32.44,6.96,0,12.51-1.5,16.67-4.5,4.16-3,6.24-7.01,6.24-12.04,0-3.77-1.23-7.01-3.69-9.73-2.46-2.72-5.52-4.99-9.16-6.8-3.65-1.81-8.78-4.05-15.4-6.7-7.81-2.93-14.17-5.72-19.09-8.37-4.92-2.65-9.12-6.14-12.6-10.47-3.48-4.32-5.22-9.7-5.22-16.12,0-9.35,3.52-16.67,10.56-21.98,7.04-5.3,16.93-7.95,29.65-7.95,7.46,0,14.8.7,22.02,2.09,7.21,1.4,13.02,3.28,17.44,5.65l-4.58,24.28h-5.35c-3.73-8.79-8.23-15.31-13.49-19.57-5.26-4.26-11.54-6.38-18.83-6.38-6.45,0-11.33,1.26-14.64,3.77-3.31,2.51-4.96,5.65-4.96,9.42,0,4.6,2.12,8.3,6.36,11.09,4.24,2.79,10.86,6.07,19.85,9.84,8.31,3.35,15.06,6.42,20.24,9.21,5.17,2.79,9.63,6.59,13.36,11.41,3.73,4.81,5.6,10.71,5.6,17.69,0,10.88-4.24,19.08-12.73,24.59-8.49,5.51-19.26,8.27-32.33,8.27-8.65,0-16.63-1.08-23.93-3.24Z"/><path class="cls-5" d="M1505.17,1257.89c-8.15-4.11-14.51-10.12-19.09-18-4.58-7.88-6.87-17.2-6.87-27.94,0-12.84,2.46-23.72,7.38-32.65,4.92-8.93,11.49-15.59,19.73-19.99,8.23-4.4,17.18-6.59,26.85-6.59,16.29,0,28.72,4.47,37.29,13.4,8.57,8.93,12.26,21.49,11.07,37.68h-84v-7.33h65.92l-6.36,4.19c.85-10.47.51-18.73-1.02-24.8-1.53-6.07-4.16-10.39-7.89-12.98-3.73-2.58-8.74-3.87-15.02-3.87-8.15,0-14.76,3.53-19.85,10.57-5.09,7.05-7.64,17.62-7.64,31.71,0,15.91,3.14,27.84,9.42,35.79,6.28,7.95,15.53,11.93,27.74,11.93,18.16,0,30.04-8.86,35.63-26.58l5.09.84c-3.56,13.81-9.5,24.07-17.82,30.77-8.32,6.7-19.18,10.05-32.58,10.05-10.52,0-19.85-2.06-28-6.17Z"/></g><g id="logo"><g class="cls-24"><g class="cls-22"><rect class="cls-3" x="101.65" y="757.53" width="676" height="507"/><polygon class="cls-12" points="101.65 1205.68 101.65 1230.46 774.89 1090.44 775.46 1080.19 101.65 1205.68"/><polygon class="cls-12" points="101.65 1169.13 101.65 1190.83 750.04 1078.02 750.45 1069.5 101.65 1169.13"/><polygon class="cls-12" points="101.65 1136.94 101.65 1157.96 725.49 1068.1 725.49 1059.15 101.65 1136.94"/><polygon class="cls-12" points="101.65 1106.33 101.65 1127.14 701.81 1059.19 702.14 1049.54 101.65 1106.33"/><polygon class="cls-12" points="101.65 1081.18 101.65 1099.4 678.48 1048.42 678.89 1040.14 101.65 1081.18"/><polygon class="cls-12" points="101.65 1059.15 101.65 1076.03 655.55 1038.88 655.85 1030.11 101.65 1059.15"/><polygon class="cls-12" points="101.65 1039.1 101.65 1054.9 633.78 1029.48 634.03 1020.44 101.65 1039.1"/><polygon class="cls-12" points="101.65 1020.47 101.65 1036.51 612.65 1019.99 612.94 1010.91 101.65 1020.47"/><polygon class="cls-12" points="101.65 1001.72 101.65 1017.89 591.35 1010.53 591.48 1001.54 101.65 1001.72"/><polygon class="cls-12" points="101.65 1001.72 571.56 1001.55 571.67 992.24 101.65 985.95 101.65 1001.72"/><polygon class="cls-6" points="101.65 1190.83 101.65 1205.68 775.46 1080.19 750.04 1078.02 101.65 1190.83"/><polygon class="cls-6" points="101.65 1157.96 101.65 1169.13 750.45 1069.5 725.5 1068.1 101.65 1157.96"/><polygon class="cls-6" points="101.65 1127.14 101.65 1136.94 725.5 1059.23 701.81 1059.19 101.65 1127.14"/><polygon class="cls-6" points="101.65 1099.4 101.65 1106.33 702.14 1049.54 678.48 1048.42 101.65 1099.4"/><polygon class="cls-6" points="101.65 1076.03 101.65 1081.18 678.96 1040.14 655.55 1038.88 101.65 1076.03"/><polygon class="cls-6" points="101.65 1054.9 101.65 1059.15 655.85 1030.11 633.82 1029.47 101.65 1054.9"/><polygon class="cls-6" points="101.65 1036.51 101.65 1039.1 634.11 1020.44 612.51 1019.97 101.65 1036.51"/><polygon class="cls-6" points="101.65 1230.46 101.65 1264.53 777.65 1264.53 777.65 1089.86 101.65 1230.46"/><polygon class="cls-6" points="101.65 1017.89 101.65 1020.47 612.87 1011.02 591.34 1010.53 101.65 1017.89"/><g class="cls-17"><rect class="cls-2" x="329.47" y="1050.88" width="121.4" height="33.65" transform="translate(-94.42 39.41) rotate(-5.16)"/></g><g class="cls-26"><rect class="cls-10" x="389.38" y="1117.61" width="135.29" height="62.02" transform="translate(-167.18 81.58) rotate(-8.63)"/></g><g class="cls-23"><rect class="cls-11" x="519.74" y="1100.14" width="99.91" height="52.77" transform="translate(-230.71 150.33) rotate(-12.52)"/></g><polygon class="cls-4" points="391.86 1170.1 452 1146.33 522.18 1143 391.86 1170.1"/><polygon class="cls-13" points="330.26 1079.19 387.77 1068.89 449.97 1068.34 330.26 1079.19"/><polygon class="cls-13" points="449.97 1068.35 489.23 1060.81 541.4 1060.53 449.97 1068.35"/><g class="cls-27"><rect class="cls-16" x="449.2" y="1044.15" width="93.15" height="29.05" transform="translate(-110.51 59.17) rotate(-6.15)"/></g><polygon class="cls-4" points="522.18 1143 562.96 1125.38 616.72 1123.33 522.18 1143"/><polygon class="cls-6" points="620.44 1071.3 392.41 1099.06 330.26 1079.19 541.4 1060.53 620.44 1071.3"/><polygon class="cls-6" points="543.57 1015.15 329.71 1020.44 278.51 1015.23 462.61 1012.5 543.57 1015.15"/><polygon class="cls-1" points="523.01 1097.97 392.23 1116.77 392.41 1099.11 524.1 1083.1 523.01 1097.97"/><polygon class="cls-1" points="450.69 1030.97 329.9 1035.46 329.71 1020.44 451.1 1017.44 450.69 1030.97"/><polygon class="cls-1" points="450.35 1043.8 330.08 1050.47 329.9 1035.46 450.69 1030.97 450.35 1043.8"/><polygon class="cls-1" points="450.08 1056.22 330.26 1064.92 330.08 1050.47 450.35 1043.8 450.08 1056.22"/><polygon class="cls-1" points="542.9 1026.67 450.69 1030.97 451.1 1017.44 543.57 1015.15 542.9 1026.67"/><polygon class="cls-1" points="542.25 1037.84 450.35 1043.8 450.69 1030.97 542.9 1026.67 542.25 1037.84"/><polygon class="cls-1" points="541.57 1049.9 450.08 1056.22 450.35 1043.8 542.25 1037.84 541.57 1049.9"/><polygon class="cls-1" points="522.67 1112.92 392.05 1134.19 392.23 1116.77 522.99 1097.97 522.67 1112.92"/><polygon class="cls-1" points="619.22 1084.66 522.99 1097.97 524.1 1083.1 620.44 1071.35 619.22 1084.66"/><polygon class="cls-1" points="617.97 1097.97 522.67 1112.92 523.01 1097.97 619.22 1084.66 617.97 1097.97"/><polygon class="cls-1" points="617.21 1110.05 522.18 1127.15 522.67 1112.92 617.97 1097.97 617.21 1110.05"/><polygon class="cls-1" points="522.18 1127.15 391.87 1151.57 392.05 1134.19 522.67 1112.92 522.18 1127.15"/><polygon class="cls-15" points="391.85 1151.8 374.27 1143.51 373.88 1127.49 359.15 1121.02 359.04 1105.01 343.4 1099.82 342.78 1083.25 392.41 1099.11 391.85 1151.8"/><polygon class="cls-15" points="330.26 1064.92 317.36 1061.57 317.37 1047.85 306.49 1045.12 306.23 1031.93 295.37 1030.22 294.88 1016.9 329.71 1020.44 330.26 1064.92"/><polygon class="cls-1" points="378.65 1013.81 285.46 1015.13 285.21 988.18 379.19 989.47 378.65 1013.81"/><polygon class="cls-1" points="462.61 1012.5 378.65 1013.81 379.19 989.47 462.87 990.52 462.61 1012.5"/><polygon class="cls-15" points="285.34 1001.65 276.45 1001.66 276.08 988.28 285.21 988.18 285.34 1001.65"/></g></g></g></g></g><g id="noncombined"><g id="logo-2"><rect id="mask" class="cls-20" x="1892" y="256" width="2048" height="1536" transform="translate(3940 -1892) rotate(90)"/><g class="cls-19"><g id="extended_base"><polygon class="cls-14" points="4362.77 2423.95 1366.85 2403.47 1366.83 1583.95 4362.77 960.83 4362.77 2423.95"/></g><g class="cls-21"><rect class="cls-3" x="1368.3" y="-533.94" width="2995.93" height="2246.95"/><polygon class="cls-12" points="1368.32 1452.19 1368.32 1562 4352.01 941.43 4354.53 896.03 1368.32 1452.19"/><polygon class="cls-12" points="1368.32 1290.19 1368.32 1386.34 4241.86 886.42 4243.7 848.63 1368.32 1290.19"/><polygon class="cls-12" points="1368.32 1147.52 1368.32 1240.69 4133.1 842.44 4133.1 802.79 1368.32 1147.52"/><polygon class="cls-12" points="1368.32 1011.89 1368.3 1104.08 4028.13 802.94 4029.59 760.2 1368.32 1011.89"/><polygon class="cls-12" points="1368.32 900.42 1368.32 981.14 3924.72 755.21 3926.54 718.51 1368.32 900.42"/><polygon class="cls-12" points="1368.32 802.79 1368.32 877.6 3823.12 712.95 3824.44 674.08 1368.32 802.79"/><polygon class="cls-12" points="1368.32 713.93 1368.32 783.96 3726.64 671.29 3727.75 631.22 1368.32 713.93"/><polygon class="cls-12" points="1368.32 631.34 1368.32 702.43 3633.01 629.24 3634.25 588.96 1368.32 631.34"/><polygon class="cls-12" points="1368.32 548.26 1368.32 619.93 3538.6 587.28 3539.18 547.45 1368.32 548.26"/><polygon class="cls-12" points="1368.32 548.26 3450.89 547.48 3451.39 506.26 1368.32 478.35 1368.32 548.26"/><polygon class="cls-6" points="1368.32 1386.34 1368.32 1452.19 4354.53 896.03 4241.86 886.42 1368.32 1386.34"/><polygon class="cls-6" points="1368.32 1240.69 1368.32 1290.19 4243.7 848.63 4133.13 842.44 1368.32 1240.69"/><polygon class="cls-6" points="1368.3 1104.08 1368.32 1147.52 4133.13 803.11 4028.13 802.94 1368.3 1104.08"/><polygon class="cls-6" points="1368.32 981.14 1368.32 1011.89 4029.59 760.2 3924.72 755.21 1368.32 981.14"/><polygon class="cls-6" points="1368.32 877.6 1368.32 900.41 3926.86 718.51 3823.12 712.95 1368.32 877.6"/><polygon class="cls-6" points="1368.32 783.96 1368.32 802.79 3824.44 674.08 3726.83 671.23 1368.32 783.96"/><polygon class="cls-6" points="1368.32 702.43 1368.32 713.93 3728.08 631.22 3632.39 629.12 1368.32 702.43"/><polygon class="cls-6" points="1368.3 1562 1368.32 1713.01 4364.23 1713.01 4364.23 938.89 1368.3 1562"/><polygon class="cls-6" points="1368.32 619.93 1368.32 631.34 3633.96 589.46 3538.57 587.28 1368.32 619.93"/></g></g></g></g></g></g></svg>