<?xml version="1.0" encoding="UTF-8"?><svg id="logos" xmlns="http://www.w3.org/2000/svg" xmlns:xlink="http://www.w3.org/1999/xlink" viewBox="0 0 2048 2048"><defs><style>.cls-1{fill:#6952a1;}.cls-1,.cls-2,.cls-3,.cls-4,.cls-5,.cls-6,.cls-7,.cls-8,.cls-9,.cls-10,.cls-11,.cls-12,.cls-13,.cls-14,.cls-15{stroke-width:0px;}.cls-2{fill:url(#linear-gradient);}.cls-3{fill:#eccea8;}.cls-4{fill:#989fc9;}.cls-16{clip-path:url(#clippath-2);}.cls-5{fill:#1d2041;}.cls-6{fill:#a4abd5;}.cls-7{fill:none;}.cls-8,.cls-17{fill:#7f47dd;}.cls-18{clip-path:url(#clippath-1);}.cls-19{clip-path:url(#clippath-4);}.cls-9{fill:url(#linear-gradient-2);}.cls-10{fill:url(#linear-gradient-3);}.cls-20{clip-path:url(#clippath);}.cls-11{fill:#654ea3;}.cls-21{clip-path:url(#clippath-3);}.cls-12{fill:#a09cc5;}.cls-13{fill:#a4abd5;}.cls-14{fill:#c5a2cc;}.cls-22{clip-path:url(#clippath-5);}.cls-15{fill:url(#linear-gradient-4);}</style><clipPath id="clippath"><rect id="mask-2" class="cls-8" x="324" y="499" width="1400" height="1050" transform="translate(2048) rotate(90)"/></clipPath><clipPath id="clippath-1"><rect class="cls-7" x="-34" y="-41" width="2048" height="1536"/></clipPath><clipPath id="clippath-2"><polygon class="cls-7" points="1021.29 901.44 832.85 902.28 658.6 933.49 658.6 890.26 1021.61 863.91 1021.29 901.44"/></clipPath><linearGradient id="linear-gradient" x1="4319.27" y1="1820.14" x2="4320.27" y2="1820.14" gradientTransform="translate(38998.13 91463.06) rotate(-90) scale(20.96 -20.96)" gradientUnits="userSpaceOnUse"><stop offset="0" stop-color="#654ea3"/><stop offset=".1" stop-color="#654ea3"/><stop offset="1" stop-color="#60449a"/></linearGradient><clipPath id="clippath-3"><polygon class="cls-7" points="1240.05 1126.79 1027.42 1136.88 845.24 1208.91 845.24 1152.96 1240.05 1078.77 1240.05 1126.79"/></clipPath><linearGradient id="linear-gradient-2" x1="4322.64" y1="1759.44" x2="4323.64" y2="1759.44" gradientTransform="translate(52853.33 128445.15) rotate(-90) scale(29.45 -29.45)" gradientUnits="userSpaceOnUse"><stop offset="0" stop-color="#654ea3"/><stop offset=".79" stop-color="#61469c"/><stop offset="1" stop-color="#60449a"/></linearGradient><clipPath id="clippath-4"><polygon class="cls-7" points="1526.46 1067.22 1363.6 1073.42 1240.05 1126.79 1240.05 1078.77 1527.95 1026.98 1526.46 1067.22"/></clipPath><linearGradient id="linear-gradient-3" x1="4327.06" y1="1742.52" x2="4328.06" y2="1742.52" gradientTransform="translate(58774.01 143611.18) rotate(-90) scale(32.94 -32.94)" gradientUnits="userSpaceOnUse"><stop offset="0" stop-color="#654ea3"/><stop offset=".65" stop-color="#62499e"/><stop offset="1" stop-color="#60449a"/></linearGradient><clipPath id="clippath-5"><polygon class="cls-7" points="1298.28 876.96 1140.22 877.81 1021.29 901.44 1021.61 863.91 1298.8 842.01 1298.28 876.96"/></clipPath><linearGradient id="linear-gradient-4" x1="4315.81" y1="1768.24" x2="4316.81" y2="1768.24" gradientTransform="translate(50678.09 121752.33) rotate(-90) scale(28 -28)" gradientUnits="userSpaceOnUse"><stop offset="0" stop-color="#654ea3"/><stop offset=".63" stop-color="#634ba0"/><stop offset="1" stop-color="#60449a"/></linearGradient></defs><g id="primary_vertical"><g id="logo"><rect id="mask" class="cls-17" x="324" y="499" width="1400" height="1050" transform="translate(2048) rotate(90)"/><g class="cls-20"><g id="extended_base"><polygon class="cls-13" points="2013 1981 -34.99 1967 -35 1406.78 2013 980.82 2013 1981"/></g><g class="cls-18"><rect class="cls-3" x="-34" y="-41" width="2048" height="1536"/><polygon class="cls-11" points="-33.99 1316.71 -33.99 1391.78 2005.65 967.56 2007.37 936.52 -33.99 1316.71"/><polygon class="cls-11" points="-33.99 1205.96 -33.99 1271.7 1930.35 929.95 1931.61 904.12 -33.99 1205.96"/><polygon class="cls-11" points="-33.99 1108.44 -33.99 1172.13 1856 899.89 1856.02 873 -33.99 1108.44"/><polygon class="cls-11" points="-33.99 1015.72 -34 1078.75 1784.25 872.89 1785.24 843.67 -33.99 1015.72"/><polygon class="cls-11" points="-33.99 939.52 -33.99 994.7 1713.56 840.26 1714.8 815.17 -33.99 939.52"/><polygon class="cls-11" points="-33.99 872.78 -33.99 923.92 1644.1 811.37 1645 784.8 -33.99 872.78"/><polygon class="cls-11" points="-33.99 812.03 -33.99 859.91 1578.28 782.85 1578.91 755.5 -33.99 812.03"/><polygon class="cls-11" points="-33.99 755.58 -33.99 804.18 1514.14 754.15 1514.86 726.16 -33.99 755.58"/><polygon class="cls-11" points="-33.99 698.78 -33.99 747.78 1449.6 725.46 1450 698.23 -33.99 698.78"/><polygon class="cls-11" points="-33.99 698.78 1389.65 698.26 1389.99 670.08 -33.99 651 -33.99 698.78"/><polygon class="cls-6" points="-33.99 1271.69 -33.99 1316.71 2007.37 936.52 1930.35 929.95 -33.99 1271.69"/><polygon class="cls-6" points="-33.99 1172.13 -33.99 1205.96 1931.61 904.12 1856.02 899.89 -33.99 1172.13"/><polygon class="cls-6" points="-34 1078.75 -33.99 1108.44 1856.02 873 1784.25 872.88 -34 1078.75"/><polygon class="cls-6" points="-33.99 994.7 -33.99 1015.72 1785.24 843.67 1713.56 840.26 -33.99 994.7"/><polygon class="cls-6" points="-33.99 923.92 -33.99 939.52 1714.8 815.17 1644.1 811.37 -33.99 923.92"/><polygon class="cls-6" points="-33.99 859.91 -33.99 872.78 1645 784.8 1578.28 782.85 -33.99 859.91"/><polygon class="cls-6" points="-33.99 804.18 -33.99 812.04 1578.91 755.5 1514.14 754.15 -33.99 804.18"/><polygon class="cls-6" points="-34 1391.78 -33.99 1495 2014 1495 2014 965.82 -34 1391.78"/><polygon class="cls-6" points="-33.99 747.78 -33.99 755.58 1514.86 726.16 1449.58 725.46 -33.99 747.78"/><g class="cls-16"><rect class="cls-2" x="656.21" y="847.73" width="367.79" height="101.94" transform="translate(-77.4 79.18) rotate(-5.16)"/></g><g class="cls-21"><rect class="cls-9" x="837.35" y="1047.9" width="410.59" height="191.88" transform="translate(-170.23 182.37) rotate(-9.25)"/></g><g class="cls-19"><rect class="cls-10" x="1232.66" y="996.95" width="302.69" height="159.86" transform="translate(-200.57 325.71) rotate(-12.52)"/></g><polygon class="cls-4" points="845.24 1208.91 1027.42 1136.88 1240.05 1126.79 845.24 1208.91"/><polygon class="cls-12" points="658.6 933.49 832.85 902.28 1021.29 901.44 658.6 933.49"/><polygon class="cls-12" points="1021.29 901.44 1140.22 877.81 1298.28 876.96 1021.29 901.44"/><g class="cls-22"><rect class="cls-15" x="1018.91" y="827.32" width="282.28" height="88.8" transform="translate(-86.67 129.22) rotate(-6.15)"/></g><polygon class="cls-4" points="1240.05 1126.79 1363.6 1073.42 1526.46 1067.22 1240.05 1126.79"/><polygon class="cls-6" points="1537.72 909.57 846.9 993.67 658.6 933.49 1298.28 876.96 1537.72 909.57"/><polygon class="cls-6" points="1304.86 739.46 656.95 755.5 501.84 739.72 1059.57 731.33 1304.86 739.46"/><polygon class="cls-1" points="1242.57 990.38 846.34 1047.34 846.9 993.83 1245.85 945.32 1242.57 990.38"/><polygon class="cls-1" points="1023.46 787.38 657.51 801.01 656.95 755.5 1024.7 746.4 1023.46 787.38"/><polygon class="cls-1" points="1022.41 826.26 658.07 846.46 657.51 801.01 1023.46 787.38 1022.41 826.26"/><polygon class="cls-1" points="1021.61 863.91 658.6 890.26 658.07 846.46 1022.41 826.27 1021.61 863.91"/><polygon class="cls-1" points="1302.83 774.37 1023.46 787.38 1024.7 746.4 1304.86 739.47 1302.83 774.37"/><polygon class="cls-1" points="1300.84 808.22 1022.41 826.27 1023.46 787.38 1302.83 774.37 1300.84 808.22"/><polygon class="cls-1" points="1298.8 844.76 1021.61 863.91 1022.42 826.27 1300.84 808.22 1298.8 844.76"/><polygon class="cls-1" points="1241.53 1035.66 845.79 1100.1 846.34 1047.34 1242.51 990.39 1241.53 1035.66"/><polygon class="cls-1" points="1534.05 950.06 1242.51 990.39 1245.85 945.32 1537.72 909.57 1534.05 950.06"/><polygon class="cls-1" points="1530.26 990.39 1241.53 1035.66 1242.57 990.38 1534.05 950.06 1530.26 990.39"/><polygon class="cls-1" points="1527.95 1026.98 1240.05 1078.77 1241.53 1035.66 1530.26 990.39 1527.95 1026.98"/><polygon class="cls-1" points="1240.05 1078.77 845.24 1152.96 845.79 1100.1 1241.53 1035.66 1240.05 1078.77"/><polygon class="cls-14" points="845.24 1152.96 791.8 1128.03 790.75 1079.31 746.12 1059.76 745.8 1011.7 698.41 995.82 698.99 946.4 846.9 993.83 845.24 1152.96"/><polygon class="cls-14" points="658.6 890.26 619.52 880.09 619.55 838.54 586.59 830.27 585.8 790.3 552.91 785.21 551.42 744.76 656.95 755.5 658.6 890.26"/><polygon class="cls-1" points="805.2 735.15 522.89 739.4 522.13 657.77 806.84 661.66 805.2 735.15"/><polygon class="cls-1" points="1059.57 731.33 805.2 735.15 806.83 661.66 1060.37 664.85 1059.57 731.33"/><polygon class="cls-14" points="522.51 698.58 495.57 698.59 494.48 658.08 522.13 657.77 522.51 698.58"/></g></g></g><g id="text"><path class="cls-5" d="M594.19,1455.79c-7.3-2.16-13.74-5.13-19.34-8.9l5.09-27h5.35c7.13,21.63,19.43,32.44,36.91,32.44,6.96,0,12.51-1.5,16.67-4.5,4.16-3,6.24-7.01,6.24-12.04,0-3.77-1.23-7.01-3.69-9.73-2.46-2.72-5.52-4.99-9.16-6.8-3.65-1.81-8.78-4.05-15.4-6.7-7.81-2.93-14.17-5.72-19.09-8.37-4.92-2.65-9.12-6.14-12.6-10.47-3.48-4.32-5.22-9.7-5.22-16.12,0-9.35,3.52-16.67,10.56-21.98,7.04-5.3,16.93-7.95,29.65-7.95,7.46,0,14.8.7,22.02,2.09,7.21,1.4,13.02,3.28,17.44,5.65l-4.58,24.28h-5.35c-3.73-8.79-8.23-15.31-13.49-19.57-5.26-4.25-11.54-6.38-18.84-6.38-6.45,0-11.33,1.26-14.64,3.77-3.31,2.51-4.96,5.65-4.96,9.42,0,4.6,2.12,8.3,6.36,11.09,4.24,2.79,10.86,6.07,19.85,9.84,8.31,3.35,15.06,6.42,20.24,9.21,5.17,2.79,9.63,6.59,13.36,11.41,3.73,4.81,5.6,10.71,5.6,17.69,0,10.88-4.24,19.08-12.73,24.59-8.49,5.51-19.26,8.27-32.33,8.27-8.65,0-16.63-1.08-23.93-3.24Z"/><path class="cls-5" d="M699.69,1452.44c-8.23-4.4-14.76-10.78-19.6-19.15-4.84-8.37-7.25-18.21-7.25-29.51,0-11.86,2.42-22.01,7.25-30.46,4.84-8.44,11.37-14.83,19.6-19.15,8.23-4.32,17.26-6.49,27.11-6.49s18.88,2.17,27.11,6.49c8.23,4.33,14.76,10.71,19.6,19.15,4.84,8.44,7.25,18.6,7.25,30.46s-2.42,21.14-7.25,29.51c-4.84,8.37-11.37,14.76-19.6,19.15-8.23,4.4-17.27,6.59-27.11,6.59s-18.88-2.2-27.11-6.59ZM746.78,1442.5c4.84-6.83,7.25-19.81,7.25-38.93,0-12.56-1.23-22.5-3.69-29.83-2.46-7.33-5.69-12.45-9.67-15.38-3.99-2.93-8.61-4.4-13.87-4.4s-9.89,1.46-13.87,4.4c-3.99,2.93-7.21,8.06-9.67,15.38-2.46,7.33-3.69,17.27-3.69,29.83,0,19.12,2.42,32.1,7.25,38.93,4.84,6.84,11.49,10.26,19.98,10.26s15.14-3.42,19.98-10.26Z"/><path class="cls-5" d="M812.32,1450.77c-5.77-5.51-8.65-15.03-8.65-28.57v-63.63h-17.82v-7.54c8.48-1.12,15.95-4.67,22.4-10.67,6.45-6,11.62-13.61,15.53-22.82h5.35v108.84c0,12.7,5.77,19.05,17.31,19.05,4.24,0,7.8-1.12,10.69-3.35,2.88-2.23,4.33-4.95,4.33-8.16h2.55c0,7.68-2.46,13.78-7.38,18.31-4.92,4.53-11.54,6.8-19.85,6.8-10.52,0-18.67-2.76-24.44-8.27ZM812.58,1351.03h49.38v7.33h-49.38v-7.33Z"/><path class="cls-5" d="M882.19,1452.44c-6.2-4.4-9.29-10.22-9.29-17.48,0-8.79,4.54-16.6,13.62-23.44,9.08-6.83,19.94-12.17,32.58-16.01,12.64-3.84,23.71-5.76,33.22-5.76l.25,7.74c-7.98,0-16.16,1.36-24.56,4.08-8.4,2.72-15.4,6.7-21,11.93s-8.4,11.27-8.4,18.11c0,5.16,1.61,9.31,4.84,12.45,3.22,3.14,7.29,4.71,12.22,4.71,6.11,0,11.54-2.23,16.29-6.7,4.75-4.46,8.53-10.08,11.33-16.85,2.8-6.77,4.28-13.5,4.45-20.2h4.07v26.58h-3.82c-1.53,4.33-4.24,8.58-8.15,12.77-3.91,4.19-8.83,7.68-14.76,10.47-5.94,2.79-12.56,4.19-19.85,4.19-9.16,0-16.84-2.2-23.04-6.59ZM949.26,1441.04v-11.09l-1.53-10.88v-40.82c0-14.93-6.53-22.4-19.6-22.4-5.43,0-9.51,1.08-12.22,3.24-2.72,2.17-5.43,5.34-8.15,9.52-2.21,3.35-4.16,5.79-5.85,7.33-1.7,1.54-4.16,2.3-7.38,2.3-3.56,0-6.36-1.01-8.4-3.04-2.04-2.02-3.05-4.5-3.05-7.43,0-3.77,1.87-7.19,5.6-10.26,3.73-3.07,8.87-5.47,15.4-7.22,6.53-1.74,13.96-2.62,22.27-2.62,15.27,0,26.89,2.55,34.87,7.64,7.97,5.1,11.96,12.74,11.96,22.92v56.51c0,5.72,1.78,8.58,5.35,8.58,2.04,0,3.77-.84,5.22-2.51,1.44-1.67,2.16-3.98,2.16-6.91h1.78c0,7.54-1.91,13.61-5.73,18.21-3.82,4.6-9.29,6.91-16.42,6.91-10.86,0-16.29-6-16.29-18Z"/><path class="cls-5" d="M594.19,1632.32c-7.3-2.16-13.74-5.13-19.34-8.9l5.09-27h5.35c7.13,21.63,19.43,32.44,36.91,32.44,6.96,0,12.51-1.5,16.67-4.5,4.16-3,6.24-7.01,6.24-12.04,0-3.77-1.23-7.01-3.69-9.73-2.46-2.72-5.52-4.99-9.16-6.8-3.65-1.81-8.78-4.05-15.4-6.7-7.81-2.93-14.17-5.72-19.09-8.37-4.92-2.65-9.12-6.14-12.6-10.47-3.48-4.32-5.22-9.7-5.22-16.12,0-9.35,3.52-16.67,10.56-21.98,7.04-5.3,16.93-7.95,29.65-7.95,7.46,0,14.8.7,22.02,2.09,7.21,1.4,13.02,3.28,17.44,5.65l-4.58,24.28h-5.35c-3.73-8.79-8.23-15.31-13.49-19.57-5.26-4.25-11.54-6.38-18.84-6.38-6.45,0-11.33,1.26-14.64,3.77-3.31,2.51-4.96,5.65-4.96,9.42,0,4.6,2.12,8.3,6.36,11.09,4.24,2.79,10.86,6.07,19.85,9.84,8.31,3.35,15.06,6.42,20.24,9.21,5.17,2.79,9.63,6.59,13.36,11.41,3.73,4.81,5.6,10.71,5.6,17.69,0,10.88-4.24,19.08-12.73,24.59-8.49,5.51-19.26,8.27-32.33,8.27-8.65,0-16.63-1.08-23.93-3.24Z"/><path class="cls-5" d="M699.31,1627.3c-5.77-5.51-8.65-15.03-8.65-28.57v-63.63h-17.82v-7.54c8.48-1.12,15.95-4.67,22.4-10.67,6.45-6,11.62-13.61,15.53-22.82h5.35v108.84c0,12.7,5.77,19.05,17.31,19.05,4.24,0,7.8-1.12,10.69-3.35,2.88-2.23,4.33-4.95,4.33-8.16h2.55c0,7.68-2.46,13.78-7.38,18.31-4.92,4.53-11.54,6.8-19.85,6.8-10.52,0-18.67-2.76-24.44-8.27ZM699.57,1527.56h49.38v7.33h-49.38v-7.33Z"/><path class="cls-5" d="M769.18,1628.98c-6.2-4.4-9.29-10.22-9.29-17.48,0-8.79,4.54-16.6,13.62-23.44,9.08-6.83,19.94-12.17,32.58-16.01,12.64-3.84,23.71-5.76,33.22-5.76l.25,7.74c-7.98,0-16.16,1.36-24.56,4.08-8.4,2.72-15.4,6.7-21,11.93s-8.4,11.27-8.4,18.11c0,5.16,1.61,9.31,4.84,12.45,3.22,3.14,7.29,4.71,12.22,4.71,6.11,0,11.54-2.23,16.29-6.7,4.75-4.46,8.53-10.08,11.33-16.85,2.8-6.77,4.28-13.5,4.45-20.2h4.07v26.58h-3.82c-1.53,4.33-4.24,8.58-8.15,12.77-3.91,4.19-8.83,7.68-14.76,10.47-5.94,2.79-12.56,4.19-19.85,4.19-9.16,0-16.84-2.2-23.04-6.59ZM836.25,1617.57v-11.09l-1.53-10.88v-40.82c0-14.93-6.53-22.4-19.6-22.4-5.43,0-9.51,1.08-12.22,3.24-2.72,2.17-5.43,5.34-8.15,9.52-2.21,3.35-4.16,5.79-5.85,7.33-1.7,1.54-4.16,2.3-7.38,2.3-3.56,0-6.36-1.01-8.4-3.04-2.04-2.02-3.05-4.5-3.05-7.43,0-3.77,1.87-7.19,5.6-10.26,3.73-3.07,8.87-5.47,15.4-7.22,6.53-1.74,13.96-2.62,22.27-2.62,15.27,0,26.89,2.55,34.87,7.64,7.97,5.1,11.96,12.74,11.96,22.92v56.51c0,5.72,1.78,8.58,5.35,8.58,2.04,0,3.77-.84,5.22-2.51,1.44-1.67,2.16-3.98,2.16-6.91h1.78c0,7.54-1.91,13.61-5.73,18.21-3.82,4.6-9.29,6.91-16.42,6.91-10.86,0-16.29-6-16.29-18Z"/><path class="cls-5" d="M880.28,1632.22v-4.19c5.77-1.12,9.71-3,11.84-5.65,2.12-2.65,3.18-7.33,3.18-14.02v-56.93c0-6.7-1.06-11.37-3.18-14.02-2.12-2.65-6.07-4.53-11.84-5.65v-4.19h40.47v80.8c0,6.7,1.06,11.38,3.18,14.02,2.12,2.65,6.07,4.54,11.84,5.65v4.19h-55.49ZM894.41,1510.5c-3.48-2.86-5.22-6.31-5.22-10.36s1.74-7.46,5.22-10.26c3.48-2.79,7.68-4.19,12.6-4.19s9.08,1.4,12.47,4.19c3.39,2.79,5.09,6.21,5.09,10.26s-1.7,7.5-5.09,10.36c-3.4,2.86-7.55,4.29-12.47,4.29s-9.12-1.43-12.6-4.29Z"/><path class="cls-5" d="M944.42,1632.22v-4.19c5.77-1.12,9.71-3,11.84-5.65,2.12-2.65,3.18-7.33,3.18-14.02v-56.93c0-6.7-1.06-11.37-3.18-14.02-2.12-2.65-6.07-4.53-11.84-5.65v-4.19h40.47v80.8c0,6.7,1.06,11.38,3.18,14.02,2.12,2.65,6.07,4.54,11.84,5.65v4.19h-55.49ZM979.29,1545.56h6.87c3.56-7.12,8.23-12.45,14-16.01,5.77-3.56,12.13-5.34,19.09-5.34,5.6,0,10.05,1.08,13.36,3.24,3.31,2.17,4.96,5.13,4.96,8.9,0,2.93-1.06,5.41-3.18,7.43-2.12,2.02-4.8,3.03-8.02,3.03-2.04,0-3.82-.35-5.35-1.05-1.53-.7-3.48-1.81-5.85-3.35-2.38-1.53-4.29-2.62-5.73-3.24-1.44-.63-3.1-.94-4.96-.94-4.58,0-8.7,2.41-12.34,7.22-3.65,4.81-6.07,12.04-7.25,21.66h-5.6v-21.56Z"/><path class="cls-5" d="M1065.45,1629.92c-7.72-3.77-13.96-9.49-18.71-17.16-4.75-7.67-7.13-17.09-7.13-28.26,0-12.7,2.42-23.58,7.25-32.65,4.84-9.07,11.54-15.94,20.11-20.62,8.57-4.67,18.45-7.01,29.65-7.01,8.82,0,16.37.94,22.65,2.83,6.28,1.88,11.03,4.36,14.25,7.43,3.22,3.07,4.84,6.35,4.84,9.84,0,3.07-1.06,5.58-3.18,7.54-2.12,1.96-4.88,2.93-8.27,2.93-3.56,0-6.15-.8-7.76-2.41-1.61-1.6-3.27-4.22-4.96-7.85-1.19-2.93-2.42-5.34-3.69-7.22-1.27-1.88-3.23-3.45-5.85-4.71-2.63-1.26-6.15-1.88-10.56-1.88-18.67,0-28,15.63-28,46.89,0,13.26,3.05,24.07,9.16,32.44,6.11,8.37,14.59,12.56,25.45,12.56,7.64,0,14.42-2.06,20.36-6.17,5.94-4.11,10.44-10.78,13.49-19.99l5.6,1.05c-2.54,11.72-7.89,21-16.04,27.84-8.15,6.84-19.18,10.26-33.09,10.26-9.33,0-17.86-1.88-25.58-5.65Z"/><path class="cls-5" d="M1159.38,1628.98c-6.2-4.4-9.29-10.22-9.29-17.48,0-8.79,4.54-16.6,13.62-23.44,9.08-6.83,19.94-12.17,32.58-16.01,12.64-3.84,23.71-5.76,33.22-5.76l.25,7.74c-7.98,0-16.16,1.36-24.56,4.08-8.4,2.72-15.4,6.7-21,11.93-5.6,5.23-8.4,11.27-8.4,18.11,0,5.16,1.61,9.31,4.84,12.45,3.22,3.14,7.29,4.71,12.22,4.71,6.11,0,11.54-2.23,16.29-6.7,4.75-4.46,8.53-10.08,11.33-16.85,2.8-6.77,4.28-13.5,4.45-20.2h4.07v26.58h-3.82c-1.53,4.33-4.24,8.58-8.15,12.77-3.91,4.19-8.83,7.68-14.76,10.47-5.94,2.79-12.56,4.19-19.85,4.19-9.16,0-16.84-2.2-23.04-6.59ZM1226.44,1617.57v-11.09l-1.53-10.88v-40.82c0-14.93-6.53-22.4-19.6-22.4-5.43,0-9.51,1.08-12.22,3.24-2.72,2.17-5.43,5.34-8.15,9.52-2.21,3.35-4.16,5.79-5.85,7.33-1.7,1.54-4.16,2.3-7.38,2.3-3.56,0-6.36-1.01-8.4-3.04-2.04-2.02-3.05-4.5-3.05-7.43,0-3.77,1.87-7.19,5.6-10.26,3.73-3.07,8.87-5.47,15.4-7.22,6.53-1.74,13.96-2.62,22.27-2.62,15.27,0,26.89,2.55,34.87,7.64,7.97,5.1,11.96,12.74,11.96,22.92v56.51c0,5.72,1.78,8.58,5.34,8.58,2.04,0,3.77-.84,5.22-2.51,1.44-1.67,2.16-3.98,2.16-6.91h1.78c0,7.54-1.91,13.61-5.73,18.21-3.82,4.6-9.29,6.91-16.42,6.91-10.86,0-16.29-6-16.29-18Z"/><path class="cls-5" d="M1293.13,1632.32c-7.3-2.16-13.75-5.13-19.34-8.9l5.09-27h5.35c7.13,21.63,19.43,32.44,36.91,32.44,6.96,0,12.51-1.5,16.67-4.5,4.16-3,6.24-7.01,6.24-12.04,0-3.77-1.23-7.01-3.69-9.73-2.46-2.72-5.52-4.99-9.16-6.8-3.65-1.81-8.78-4.05-15.4-6.7-7.81-2.93-14.17-5.72-19.09-8.37-4.92-2.65-9.12-6.14-12.6-10.47-3.48-4.32-5.22-9.7-5.22-16.12,0-9.35,3.52-16.67,10.56-21.98,7.04-5.3,16.93-7.95,29.65-7.95,7.46,0,14.8.7,22.02,2.09,7.21,1.4,13.02,3.28,17.44,5.65l-4.58,24.28h-5.35c-3.73-8.79-8.23-15.31-13.49-19.57-5.26-4.25-11.54-6.38-18.83-6.38-6.45,0-11.33,1.26-14.64,3.77-3.31,2.51-4.96,5.65-4.96,9.42,0,4.6,2.12,8.3,6.36,11.09,4.24,2.79,10.86,6.07,19.85,9.84,8.31,3.35,15.06,6.42,20.24,9.21,5.17,2.79,9.63,6.59,13.36,11.41,3.73,4.81,5.6,10.71,5.6,17.69,0,10.88-4.24,19.08-12.73,24.59-8.49,5.51-19.26,8.27-32.33,8.27-8.65,0-16.63-1.08-23.93-3.24Z"/><path class="cls-5" d="M1397.74,1629.39c-8.15-4.11-14.51-10.12-19.09-18-4.58-7.88-6.87-17.2-6.87-27.94,0-12.84,2.46-23.72,7.38-32.65,4.92-8.93,11.49-15.59,19.73-19.99,8.23-4.4,17.18-6.59,26.85-6.59,16.29,0,28.72,4.47,37.29,13.4,8.57,8.93,12.26,21.49,11.07,37.68h-84v-7.33h65.92l-6.36,4.19c.85-10.47.51-18.73-1.02-24.8-1.53-6.07-4.16-10.39-7.89-12.98-3.73-2.58-8.74-3.87-15.02-3.87-8.15,0-14.76,3.53-19.85,10.57-5.09,7.05-7.64,17.62-7.64,31.71,0,15.91,3.14,27.84,9.42,35.79,6.28,7.95,15.53,11.93,27.74,11.93,18.16,0,30.04-8.86,35.63-26.58l5.09.84c-3.56,13.81-9.5,24.07-17.82,30.77-8.32,6.7-19.18,10.05-32.58,10.05-10.52,0-19.85-2.06-28-6.17Z"/></g></g></svg>