<?xml version="1.0" encoding="UTF-8"?><svg id="Layer_1" xmlns="http://www.w3.org/2000/svg" viewBox="0 0 1536.28 1113.72"><defs><style>.cls-1{fill:#000;}.cls-1,.cls-2{stroke-width:0px;}.cls-2{fill:#c1272d;}</style></defs><path class="cls-2" d="M224.08,602.68l-7.42,18.69-18.04,6.3,18.92,8.39.06,22.07,19.9,16.89-21.82,16.43,17.32,10.31-8.42,29.72,25.65,4.24-9.13,11.39-11.91,1.77,2.12,13.37,17.03,4.73-17.92,24.25,18.41-6.9,12,18.24-16.41,2.32,10.68,17.01-7.59,13.6,14.6-3.43-12.8,22.02,22.27,2.98-19.7,21.07,11.62,10.11-7.13,15.54,10.02,3.29-16.75,27.05,9.85,6.93,6.84,22.53-30.72,20.07-69.03-7.39-4.15-24.19-8.19-4.24,8.88-19.04,1.72-10.16-21.19-11.45,9.42-14.54.86-18.18-16.6-18.18,12.46-6.01-8.07-21.21,10.34-10.65-17.87-6.07,11.17-18.04-27.28-17.72,13.2-7.21,3.04-8.93-10.51-11.91,12.34-6.5-22.88-12.08,18.24-3.26-18.09-24.51,14.43.2-.14-7.16-37.7-18.36,24.59-24.28,5.7-17.26-19.01-10.94,22.65-41.28,48.53-9.87,51.62,29.46ZM261.59,869.17l-10.28-28.4,38.82,25.28,10.19-17.81,9.76,13.11,37.39-28.83-.17,12.37,45.84-16.95,4.69,19.96,22.88-5.38,15.68,66.68-29.75,37.3-36.22-3.29-3.15,34.64-52.99-26.57-6.44,18.46-23.16-8.93-17.7,42.69-16.66-22.79-6.3,8.16-43.06-8.36-22.41-62.53,46.76-56.71,36.27,7.9Z"/><path class="cls-2" d="M541.27,494.68l11.22,12.77-6.16,6.58,19.47,21.62-10.08,9.56,9.28,13.23-20.96-1.75,12.48,18.12-11.8,19.72,16.72,9.94-13.69,7.33,18.29,10.08-30.92,17.03,19.96,4.04-5.5,20.3-1.78,14.29,13.86-2.23-23.51,24.53,17.69.97-5.7,26,5.41,20.81-13.83.17,11.08,14.34-13.43,23.71,8.02,16.61-8.3,12.74,7.42,7.5-8.91,12.37,15.72-5.24-15.95,30.46,8.73,17.46-51.94,19.41-66.28-13.18,18.12-12.48-9.71-8.5,7.62-6.93-8.27-15.52,6.79.46,8.07-13.71-15.17-16.46,15.43-10.82-24.96-18.78,20.7-14.63-6.61-12.83,14.72-11.68-22.47-6.01,25.77-21.47-20.44-3.92,16.89-19.9-18.21-16.26,13.03-3.58-5.27-22.39,11.91-10.51-14.34-23.85,18.55-25.94-13.97-15.72,6.81-10.33-5.67-2.26,6.7-37.02-12.48-18.12,17.78-5.21,43-22.44,39.05,17.53ZM577.33,700.39l-8.84-26.68,30.95,24.57,7.5-16.15,8.07,12.48,28-25.08.08,11.28,35.24-13.94,4.35,18.5,17.52-4.12,14.65,62.3-22.05,32.92-28.2-4.15-1.29,31.64-42.08-26.06-4.35,16.43-18.07-9.11-12.43,38.88-13.77-21.42-4.47,7.21-34.07-9.45-19.32-58.12,34.3-50.7,28.26,8.76ZM615.4,510.64l16.58-5.95,1.03,21.84,27.17,25.97-3.46,4.92,11.82,4.41-2.23,21.07,30.06,9.88,3,28.06,15.75,1.43,8.67,21.59,12.57-5.52-4.7,23.71,25.14,6.42-14.29,15.69,33.81,1.81-14.69,18.35,18.18.86,2.35,14.34,25.48-.86-8.91,29.83,18.92-.34-2.87,22.76,14.23,5.9,5.64-4.41,2.06,17.49,10.65,1.6-2.72,12.45,21.84-1.03-45.81,49.81-53.08,14.54-3.38-18.72-30.83-15.35,15.72-5.24-14.49-4.81,1.23-10.05-13.63-5.53-3.75-18.12-24.71-11.14.37-18.07-11.02,7.73-7.84-20.24-20.01-17.38,13.74-11.45-33.27-6.04,12.34-6.5-9.56-10.08-17.03-13.46,14.52-14.71-35.47,4.23,8.99-18.55-15.55,1.6,7.65-17.72-21.1-8.91-.06-22.07-16.21,14.08-.26-16.38-13.8-1.89,2.46-28.83-8.59-1.58,1.58-17.32,21.62-36.93,48.13-7.21Z"/><path class="cls-2" d="M1147.83,439.85l-2.78,16.58-9.28-4.5-4.53,28.8-14.69-7.85-4.21,14.86-12.88-24.19-5.61,19.81-23.45-5.79,2.98,21.39-15.23-12.34,4.52,23.59-34.41-28.38,10.71,23.68-20.38.68-12.17,2.86,10.59,14.46-34.93-17.47,10.88,20.04-24.65,2.2-12.8,13.28-9.25-15.29-4.12,17.41-27.8-6.82-7.96,14.2-15.46-4.58-1.12,10.54-16.29-5.93,14.57,16.09-34.58-7.27-8.22,15.29-49.87-50.42-33.35-78.45,21.84,16.44.43-13.46,10.59,5.73,6.76-14.94,4.49,8.19,15.83,3.98,3.47-22.39,18.49,13.11-1.71-33.5,25.82,18.07,5.98-11.68,18.75,12.03-10.42-26.83,34.27,21.22-9.73-23.91,26.77,11.17.83-24.85,11.34,13.26,14.26-13.63,16.12,9.56,9.79-23.88,33.07,11.74,3.21-21.3,12.91,4.67-2.32-7.67,33.78-4.86,6.7-19.55,15.4,17.44,46.86,39.83,12.16,49.53ZM968.55,754.25l5.84-18.84,17.69-7.76-19.67-7.19-1.52-21.73-21.13-15.58,20.5-17.66-18.07-9.11,6.24-30.23-26.28-2.55,8.53-11.77,11.68-2.75-3.09-13.14-17.29-3.64,16.12-25.37-18.07,8.36-13.34-17.41,16.55-3.89-11.91-15.69,6.39-14.34-14.37,4.41,11.11-22.64-22.42-1.41,18.27-22.79-12.37-8.91,5.93-16.29-10.28-2.21,14.95-28.17-10.71-6.21-8.3-22.19,29.18-22.27,69.34,2.18,5.61,23.85,8.56,3.64-7.19,19.67-1.12,10.54,22.3,9.65-8.71,15.4.6,17.84,17.83,16.86-11.74,6.87,9.53,20.87-9.62,11.51,18.49,4.38-9.96,18.78,28.4,15.92-12.48,8.07-2.43,9.3,11.37,11.2-11.62,7.36,23.5,10.4-18.01,4.24,19.81,23.08-14.2.77.74,7.53,39.08,15.46-23.16,25.99-4.12,17.41,19.75,9.74-19.76,42.66-47.61,13.77-53.37-25.97Z"/><path class="cls-2" d="M1208.48,682.41l5.84-18.84,17.81-7.27-19.29-7.79-1.4-21.24-20.76-16.18,20.62-17.18-17.69-9.71,6.84-29.86-26.4-3.04,8.53-11.77,11.8-2.26-2.61-13.25-17.41-4.12,16.24-24.88-18.18,7.87-12.85-17.52,16.55-3.89-11.91-15.69,6.87-14.46-14.37,4.41,11.22-22.16-22.04-2.01,18.38-22.3-12.48-9.39,6.53-15.92-10.39-2.69,15.55-27.8-10.71-6.21-7.81-22.3,29.29-21.79,69.57,3.16,5.12,23.96,8.56,3.64-7.79,19.3-1.12,10.54,21.93,10.25-8.7,15.4.49,17.35,17.46,17.47-11.85,6.38,9.16,21.47-9.74,11.02,18.61,4.87-10.57,18.41,28.03,16.52-12.48,8.07-2.55,8.82,11.48,11.68-12.23,6.98,23.62,10.88-18.12,3.75,19.44,23.68-14.31.29.74,7.53,38.71,16.06-23.16,25.99-4.73,17.03,19.87,10.22-20.36,42.29-47.84,12.79-52.99-26.57ZM1222.82,359.03l2.07-61.1,29.98-18.87,6.47,5.67,7.13-24.28,22.82,33.67,14.75-13.74,9.02,14.32,32.9-37.02,10.13,29.98,26-11.76,30.57,25.17,3.23,63.96-17.72,1.09.83,18.81-37.79-3.44,3.12,11.08-33.61-16.24-4.32,14.37-11.82-13.14-22.76,32.06,1.12-28-24.85,16.63-47.24-39.23ZM1306.3,443.16l-8.84-26.68,30.95,24.57,7.5-16.15,8.07,12.48,28-25.08.08,11.28,35.25-13.94,4.35,18.5,17.52-4.12,14.65,62.3-22.05,32.92-28.2-4.15-1.29,31.64-42.08-26.06-4.35,16.43-18.06-9.11-12.43,38.88-13.77-21.42-4.47,7.21-34.07-9.45-19.32-58.12,34.3-50.7,28.26,8.76ZM1296.08,670.54l-3.63-61.3,28.43-21.07,6.84,5.07,4.84-25.28,25.99,31.9,13.43-14.97,9.88,13.6,29.78-39.36,12.94,28.8,24.45-13.97,32.55,22.65,9.19,63.07-17.87,2.66,2.89,18.84-38.08-.29,4.09,10.85-34.99-13.34-3.24,14.63-12.68-12.43-20.24,34.04-1.43-27.91-22.93,18.24-50.21-34.42Z"/><path class="cls-1" d="M70.39,457.48l-8.06,2.09c-1.62.58-4.1,1.23-7.43,1.95-2.08.46-3.56.45-4.43-.01-.87-.46-1.76-1.79-2.68-4-.67-2.04-1.45-5.14-2.37-9.31l-8.94-36.37c-.89-3.08-1.34-5.11-1.33-6.1,0-.98.66-1.95,1.99-2.89,1.32-.94,2.54-1.87,3.65-2.77-2.18.04-3.37.08-3.58.13-2.29.5-3.71-.5-4.26-3l-8.81-35.74c-.76-2.45-.85-4.12-.28-5.02.57-.89,2.11-1.61,4.61-2.15l49.01-11.06c9.63-1.89,24.14-4.96,43.52-9.2l22.51-4.93c2.08-.46,3.63-.63,4.63-.52,1.01.11,1.79.97,2.37,2.59.67.07,1.36-.24,2.08-.95.72-.7,1.29-1.1,1.7-1.19.63-.14,1.37.25,2.22,1.15.21-.04.43-.04.66.02.23.06.43-.04.59-.29,1.53-.99,2.81-1.6,3.86-1.83,1.88-.41,4.2-.26,6.97.44,2.77.7,4.94,1.11,6.49,1.2,9.76.7,18.42,3.83,25.97,9.38,2.33,1.68,4.71,3.83,7.15,6.46,2.43,2.64,4.08,4.4,4.93,5.31.25.17.32.7.19,1.6-.13.9-.26,1.59-.37,2.05,2.59-.13,4.95,1.65,7.06,5.33,4.53,9.71,7.54,18,9.05,24.88,1.28,5.84,1.75,11.52,1.44,17.05-.15,1.34-.48,3.05-1,5.13-.53,2.08-.63,3.85-.31,5.31.14.62-.24,1.42-1.12,2.37-.88.96-1.72,1.64-2.5,2.02-5.24,2.02-10.66,3.92-16.28,5.69-5.62,1.78-10.85,3.09-15.68,3.92-3.55.78-7.02,1.86-10.42,3.26-1.99.88-3.3,1.16-3.91.85-.61-.3-1.38-1.55-2.3-3.76l-.8.83c-.5,2.73-.94,4.46-1.32,5.2-.39.74-1.41,1.29-3.08,1.66l-3.12.68c-4.01.66-8.5,3.06-13.49,7.21,4.38-.96,7.58-1.77,9.62-2.43.83-.18,1.73-.54,2.71-1.08.97-.54,1.98-.92,3.02-1.15,1.25-.27,2.49-.1,3.71.5-1.49,3.17-3.91,5.11-7.24,5.84l-1.94.1c-2.54.34-4.95,1.85-7.2,4.52,1.46-.32,3.29-.66,5.5-1.04,2.21-.37,3.92-.8,5.12-1.29,1.41-.52,2.92-1.35,4.54-2.47,1.61-1.11,2.79-1.97,3.53-2.57-.25-2.13.32-3.78,1.7-4.96,1.38-1.17,3.3-2.14,5.75-2.9,5.33-1.6,10.29-3.34,14.91-5.23l10.98-3.71,17.96-6.23c-2.09,9.42-7.42,15.49-15.99,18.24l4.08,3.69c-.84,2.15-2.33,4.06-4.48,5.73-2.15,1.67-3.57,2.91-4.26,3.72-2.11,1.34-3.03,2.63-2.75,3.88.14.63.95,1.87,2.45,3.72,8.09,8.06,20.08,20.39,35.95,37.01,1.91,1.77,4.58,4.46,7.99,8.08.9,1.11,1.57,2.17,2,3.17.43,1,.97,1.97,1.62,2.92-1.62.58-3.29,1.21-4.99,1.91-1.7.7-3.18,1.19-4.43,1.46-7.5,1.64-15.51,4.49-24.01,8.53l-3.1,2.32,1.77.6,18.66-6.05,16.29-4.88c2.08-.46,4.34.14,6.78,1.79,2.43,1.65,3.88,3.52,4.34,5.6.14.63.05,1.25-.25,1.86-.3.61-.74,1.09-1.32,1.44-.74.6-2.05,1.1-3.93,1.51-11.83,2.81-29.63,6.81-53.39,12.01-2.5.55-4.2.54-5.08-.03-.89-.57-1.99-2.35-3.3-5.34,4.56-2.09,7.63-3.52,9.21-4.31l-.07-.31c-.83.18-1.89.36-3.16.53-1.27.17-2.41.48-3.4.91-2.2.92-4.01,1.15-5.42.69-1.41-.45-2.87-1.61-4.36-3.47l-26.8-31.15c-6.92-7.66-12.03-13.53-15.32-17.61-2.1-2.6-4.92-3.51-8.46-2.73l-8.13,1.78c-3.55.78-6.23,1.48-8.06,2.09-2.71.59-4.36,1.28-4.95,2.07-.6.79-.68,2.66-.24,5.62,3.74,17.09,6.44,29.93,8.1,38.52l4.38,20.01c.32,1.46.54,2.99.68,4.6.13,1.61.23,3.06.3,4.36-3.08.89-7.85,2.05-14.31,3.46-5.21,1.14-12.86,2.6-22.96,4.37l32.79-8.82-.27-1.25c-4.22.71-8.94,1.79-14.19,3.27-5.25,1.48-8.81,2.42-10.68,2.83-6.95,2.18-14.07,4.06-21.36,5.66l-9.13,1.67c-1.61-5.32-2.65-9.13-3.16-11.43l-14.58-66.58c-.09-.42-.26-.93-.5-1.53-.24-.6-.35-1.34-.32-2.22,0-3.93,1.89-6.31,5.64-7.13l.94-.21c1.04-.23,4.48-.98,10.32-2.26,5.83-1.28,11.14-2.98,15.91-5.12.62-.14,1.28-.39,1.96-.76.68-.36,1.23-.6,1.65-.69,2.43.12,4.79-.07,7.08-.57,2.29-.5,4.2-1.03,5.72-1.58,1.52-.55,2.88-1.07,4.08-1.55.79-.39,1.78-.83,2.99-1.31,1.21-.48,2.74-.93,4.62-1.34,3.71-1.03,6.98-1.8,9.81-2.31,2.84-.51,5.19-.97,7.07-1.38.42-.09,1.83-.62,4.24-1.58-.56-.53-1.88-2.1-3.98-4.7-7.81,3.24-12.63,5.17-14.46,5.79-.83.18-2.08.24-3.73.16-1.65-.07-3.13-.08-4.43-.01-5.93.86-11.18,2.78-15.78,5.75-1.78.83-3.14,1.13-4.06.89-2.68-.28-5.49-.11-8.4.53-1.46.32-3.81,1.05-7.05,2.2-3.24,1.15-6.93,2.28-11.05,3.4-4.12,1.12-7.02,1.86-8.68,2.23l-2.15-.84,5.15-3.42-1.21-1.05c2.55-2.3,4.87-3.69,6.96-4.14,2.29-.5,5.08-.24,8.36.79l.62-.14-1.9-4.17ZM26.55,358.98c1.08,1.95,2.07,4.46,2.96,7.54l1.86-7.94-4.83.4ZM39.4,357.8l-1.01-.11-.24.38.83.8c-.04-.21.09-.56.42-1.07ZM55.77,392.22c-2.18.04-3.68.15-4.51.33-2.5.55-4.47,1.53-5.91,2.93,1.76.06,3.16-.04,4.2-.26,1.88-.41,3.95-1.41,6.22-3ZM56.18,373.13l-4.06.89.27,1.25c1.88-.41,3.21-.81,4-1.2l-.21-.94ZM52.48,359.2c.88.03,2.3.04,4.27.05,1.97,0,3.58-.13,4.83-.4,1.88-.41,3.18-.91,3.93-1.51-1.48-.77-3.26-.92-5.34-.47-1.04.23-2.31.67-3.8,1.32-1.5.65-2.79.99-3.87,1.01ZM54.86,449.41l-.62.14.45.56.31-.07-.14-.62ZM61.58,390.29l-.56.45.52.87.87-.52-.83-.8ZM71.46,478.86l-.27-1.25c-1.2.48-2.95.97-5.25,1.48l.27,1.25,5.25-1.48ZM71.63,349.44c.16-.25.32-.51.49-.76.16-.25.2-.59.11-1.01l-1.14-.73-.91,1.84,1.46.66ZM75.63,369.2c-.6-.74-1.01-1.09-1.21-1.05l-1.11.9c.25.17.4.35.45.56.05.21.17.29.38.24l1.49-.65ZM80.79,449.63l-.07-.31-7.19,1.57.14.62c3.13-.68,5.5-1.31,7.12-1.89ZM75.08,443.02c1.8.26,3.54.21,5.21-.16,1.88-.41,3.61-1.45,5.22-3.11l-10.42,3.26ZM75.46,456.7c.92.24,3.16-.04,6.7-.81,3.12-.68,6.21-1.57,9.24-2.68,3.04-1.1,5.11-2.1,6.22-3-4.05.45-9.32,1.83-15.81,4.11l-6.36,2.38ZM81.56,391.81l-.27-1.25-4.38.96.21.94c1.88-.41,3.35-.62,4.44-.65ZM78.03,477.43l1.91,1.22,1.33-2.91-1.14-.73-2.09,2.42ZM82.23,345.48l-1.04,1.21,1.14.73.66-1.46-.76-.49ZM87.5,348.58l.98-1.52c-.51-.32-.87-.46-1.07-.42-.26-.16-.55.01-.87.52.6.74.92,1.22.97,1.43ZM87.8,372.43l-.69-.18-.18.69,1.01.11-.14-.63ZM88.7,473.78l-.87.52c.25.17.41.35.45.56.05.21.17.29.38.24l.87-.52-.83-.8ZM95.51,382.21l-2.64-.08c-1.25.27-2,1.31-2.27,3.12.72.28,1.59.31,2.64.08,1.25-.27,2.01-1.31,2.27-3.12ZM97.15,455.55c-.09-.42-.27-.7-.52-.87l-1.74,1.04.45.56,1.81-.72ZM118.94,382.98l-15.63,3.42c-2.67.8-4.29,1.59-4.88,2.38-.6.79-.59,2.54,0,5.24l8.94,36.37c.66,2.04,1.43,3.29,2.3,3.76.86.47,2.34.47,4.42.01,4.38-.96,7.69-1.79,9.93-2.5,3.54-.78,6.23-1.47,8.06-2.09,7.5-1.64,12.98-3.06,16.43-4.25,7.74-2.56,12.72-5.73,14.96-9.5,2.23-3.76,3.08-8.86,2.55-15.3-.02-1.09-.82-3.75-2.4-7.99-3.3-9.1-9.85-13.57-19.64-13.39-3.06.01-7.55.45-13.47,1.31-2.75.39-5.06.84-6.91,1.35-1.85.52-3.4.91-4.65,1.18ZM101.89,471.22l-.34-1.56c-.84.18-1.83.62-2.99,1.31l.21.94,3.13-.68ZM113.02,343.98c-2.48-.33-4.55-.31-6.21.05-1.67.37-3.61,1.45-5.84,3.24,1-.43,2.26-.66,3.79-.67,1.52,0,2.81-.12,3.85-.35,1.67-.36,3.14-1.12,4.42-2.28ZM103.7,449.53l8.75-1.92-.34-1.56-8.55,2.85.14.62ZM108.2,354.86c-.51-.32-.78-.59-.83-.8l-1.04,1.21c.05.21.13.36.26.44.13.08.29.1.5.05l1.11-.9ZM110.27,469.06l-.59-1.18c-1.14-.19-1.92-.02-2.34.51-.43.53-.59,1.55-.48,3.05,2.06-1.54,3.2-2.34,3.41-2.38ZM107.71,452.91c1.76.06,2.95,0,3.58-.13,1.25-.27,2.2-.92,2.85-1.94-.97-.44-2.08-.53-3.33-.25-1.25.27-2.28,1.05-3.1,2.32ZM109.47,380.13l.56-.45-.38-.24-.56.45.38.24ZM111.73,356.05c-.16.26-.56.45-1.18.59l1.49,2.3.87-.52-1.17-2.36ZM120.55,465.17l-1.46-.66c-.21.05-.48.32-.8.83.25.17.4.35.45.56.05.21.17.29.38.24l1.43-.97ZM122.89,448.93c-2.36-.79-3.85-.14-4.48,1.96l4.48-1.96ZM123.5,343.98l-2.91-1.33c-.42.09-.74.6-.98,1.52l1.52.98c.25.17.62.08,1.09-.24.47-.32.9-.63,1.27-.93ZM124.06,364.49c-1.14-.19-1.91-.24-2.33-.15-.42.09-1.08.56-1.98,1.42.97.44,1.78.65,2.43.62.65-.03,1.27-.66,1.88-1.89ZM153.03,435.46c-5.93.86-10.35,1.61-13.27,2.25-10.63,2.33-16.8,4.55-18.52,6.68,2.43.12,5.93-.32,10.52-1.32,10-2.19,17.09-4.72,21.27-7.6ZM126.95,374.67l-5.63,1.23.27,1.25c2.1.64,3.89-.2,5.35-2.48ZM127.16,462.42c.18.84.21,1.48.1,1.94.79-.39,2.01-.77,3.68-1.13l-.27-1.25-3.51.44ZM131.24,355.39c-.25-.16-.43-.45-.52-.87l-.62.14.21.94.94-.21ZM131.15,374.41l19.38-4.24c-1.9-.67-4.93-.56-9.09.35-4.38.96-7.81,2.26-10.29,3.89ZM141.14,343.72c-2.27-.37-3.71-.5-4.34-.36-1.46.32-2.62,1.01-3.48,2.07,1.22.61,2.46.77,3.71.5.62-.14,1.37-.46,2.24-.98.87-.52,1.49-.92,1.86-1.23ZM147.81,351.76c-2.73-.49-5.03-.54-6.91-.13-2.3.5-4.19,1.79-5.7,3.87,2.01.21,3.75.16,5.21-.16,1.88-.41,4.34-1.61,7.4-3.59ZM137.01,462.55l.28-1.7c-.51-.32-.85-.36-1.01-.11-.21.05-.48.32-.8.83l1.52.98ZM139.5,443.99l-.21-.94-1.74,1.04.07.31,1.88-.41ZM140.45,451.32c.14.63.12,1.07-.04,1.32l2.5-.55.18-.69-2.64-.08ZM143.5,332.07l.24-.38-.69-.18-.18.69.62-.14ZM143.78,375.24l-.24.38.38.24.24-.38-.38-.24ZM145.45,342.45c1.22.61,2.56.75,4.03.43,1.25-.27,2.25-.71,2.99-1.31-2.36-.79-3.85-1.12-4.47-.99-1.05.23-1.89.85-2.54,1.87ZM151.99,457.63c-2.15-.84-3.43-1.21-3.85-1.12-.62.14-1.4,1.07-2.33,2.8,2.5-.55,4.56-1.11,6.18-1.68ZM148.32,442.39c.74-.6,1.09-1,1.05-1.21.16-.25-.14-.62-.9-1.11l-1.36,1.28,1.21,1.05ZM148.16,374.29l-.18.69.94-.21-.45-.56-.31.07ZM156.81,349.46l.38.24.94-.21-.45-.56-.87.52ZM164.32,431.68l-.76-.49-.49.76.76.49.49-.76ZM163.47,381.42l.34,1.56c.58-.34,1.49-.66,2.74-.93l-.21-.94c-.67-.07-1.63.03-2.88.3ZM164.34,359.93l.49-.76-.69-.18-.24.38.45.56ZM164.77,453.2l.14.62,3.06-1-.45-.56c-1.25.27-2.16.59-2.74.93ZM166.3,364.42l-1.04,1.21,1.14.73c.42-.09.58-.34.49-.76-.14-.62-.33-1.02-.59-1.18ZM168.84,462.79l-3.44.75.14.62,3.37-1.06-.07-.31ZM169.42,432.53l1.5-.66c-.79-1.57-1.22-2.57-1.31-2.99l-1.25.27,1.07,3.37ZM168.52,379c2.03,1.31,3.78,1.79,5.24,1.47.62-.14,1.52-.55,2.68-1.24-1.78-1.14-3.4-1.55-4.86-1.23l-3.06,1ZM170.32,357.31l-.49.76.69.18.56-.45-.76-.49ZM170.15,497.23c1.07-1.1,1.46-2.29,1.19-3.54l-.27-1.25-.63.14-.29,4.65ZM175.62,369.58c-2.94-.45-4.3-.7-4.09-.74-.21.05-.37.3-.49.76-.12.47-.36.85-.73,1.14,1.73.93,2.72,1.48,2.98,1.64.46.12.93-.25,1.39-1.12.46-.86.78-1.42.94-1.68ZM171.02,486.23l1.63-.03-.16-5.21-.69-.18-.78,5.41ZM172.54,421.36l-.38-.24-.56.45.14.63.8-.83ZM172,363.5c1.22.61,2.04.86,2.46.77.21-.04.37-.3.49-.76.11-.46.23-.92.35-1.39l-3.3,1.38ZM175.35,444.66c-1.91,3.26-2.75,5.41-2.52,6.45.18.83.95,1.87,2.32,3.1.02-.88.32-2.03.88-3.47.56-1.43.73-2.67.5-3.71l-1.17-2.36ZM176.1,395.69c.11-.46.35-.9.7-1.3.35-.4.39-.68.14-.85-.09-.42-.6-.74-1.52-.98-.21.05-.43.26-.68.64s-.34.68-.3.88c.05.21.26.44.64.68.38.24.72.55,1.02.92ZM175.22,388.67l41.26-9.03c-5.9-.02-13.54,1-22.92,3.05-10.21,2.24-16.33,4.23-18.35,5.98ZM203.37,355.65l-25.32,5.54c.55.53.97,1.43,1.24,2.68.18.84.25,2.13.2,3.89-.05,1.76.58,3.15,1.9,4.17l.78-5.41c.26-1.8,1.33-2.91,3.2-3.32,3.5-.98,8.49-2.62,14.98-4.92l3.48-2.07-.45-.56ZM182.83,341.15l.18-3.64c-.04-.21-.25-.38-.61-.52-.36-.14-.64-.19-.85-.14-1.86,1.5-1.44,2.94,1.27,4.31ZM182.18,350.13c-.21.05-.33-.03-.38-.24-.04-.21-.18-.29-.38-.24l-.87.52c.25.17.4.35.45.56.05.21.17.29.38.24.21-.04.47-.32.8-.83ZM182.79,442.7c.51.33.86.47,1.08.42.21-.05.29-.17.24-.38-.04-.21.01-.44.18-.69l-1.01-.11-.49.76ZM185.41,448.68l.83.8,10.26-5.52c-1.46-1.65-2.33-2.65-2.63-3.03.16-.25.99-1.96,2.48-5.13-1.39-.35-2.39-.46-3.02-.32-1.04.23-1.74,1.04-2.09,2.42-.54,2.52-2.07,5.04-4.57,7.55-.37.3-.64.8-.82,1.49s-.33,1.27-.44,1.73ZM188.73,417.49c.49-.76.71-1.25.66-1.46-.04-.21-.2-.39-.45-.56-.26-.16-.46-.11-.62.14-.58.35-.91.85-.98,1.52l1.39.35ZM190.55,337.49c-.25-.16-.42-.4-.48-.71-.07-.31-.23-.55-.48-.71l-.94.21c.05.21.05.48.02.82-.04.34.07.59.33.75l1.56-.34ZM191,393.41c2.73-1.47,6.22-3,10.46-4.58-.25-.16-.46-.33-.61-.52-.15-.18-.35-.36-.61-.52-2.39.09-5.66.58-9.83,1.5l-1.11.9,1.69,3.23ZM190.32,421.73c.09.42.24.6.45.56,1.57-.78,2.73-1.47,3.48-2.07l-.65-1.5c-.7.81-1.79,1.81-3.27,3.01ZM198.32,458.3l-7.81,1.71c.14.62.33,1.02.59,1.18l7.43-1.95-.21-.94ZM197.58,407.04c-1.9-.68-3.16-.95-3.78-.81-.42.09-.87.52-1.36,1.28-.49.76-.9,1.4-1.22,1.9l6.36-2.37ZM191.95,366.34l.24-.38-.63.14.38.24ZM197.18,370.76l-1.37,4.23c1.09-.02,2.14.02,3.14.13,1.01.11,1.82.09,2.45-.04.83-.18,1.43-.97,1.78-2.35l-6-1.96c-.04-.21.12-.68.51-1.42.38-.74-.11-1.72-1.46-2.96l.96,4.38ZM197.6,345.77c-.16.26-.32.56-.45.92-.14.36-.19.64-.14.85l1.46.66.35-1.39c-.04-.21-.2-.39-.45-.56-.26-.16-.51-.32-.76-.49ZM203.31,439.19l.27,1.25c.25.17.8.43,1.65.79.84.36,1.47.5,1.89.41.42-.09.74-.6.98-1.52.23-.92.43-1.51.6-1.77l-.83-.8c-1.04.23-2.56.78-4.55,1.65ZM207.94,434.9l3.13-.68-.27-1.25-3.06,1,.21.94Z"/><path class="cls-1" d="M312.57,493.9l-2.4,2.49c-7.88-3.08-14.59-7.29-20.13-12.63-11.42-11.26-19.01-24.01-22.79-38.25-3.5-12.99-6.69-26.05-9.56-39.18-.85-2.87-1.91-7.22-3.19-13.06l-9.51-43.45c-1.57-8.17-4.11-20.28-7.62-36.33-.39-2.75-.24-4.58.43-5.5.67-.91,2.36-1.66,5.08-2.26,10.92-1.95,19.14-3.32,24.66-4.09,1.25-.27,2.06-.56,2.43-.86l22.61-5.93c1.67-.36,3-.49,4.01-.39,1.01.11,1.96.72,2.86,1.83,1.63,2.48,1.17,4.88-1.38,7.18,1.62,1.4,2.86,3.09,3.73,5.08.87,2,1.55,4.36,2.04,7.09.49,2.73.87,4.72,1.14,5.97.46,2.09.92,3.73,1.41,4.93-1.23-.6-2.94-.72-5.15-.35-2.21.38-3.87.03-4.98-1.04.39.79.71,1.76.96,2.9.25,1.15.57,2.12.96,2.9.34.58.83,1.08,1.47,1.48.63.41,1.29.65,1.96.72,2.93.45,4.72.88,5.36,1.28.63.41,1.23,1.86,1.77,4.36l6.3,28.76,3.22,14.69c4.38,20.01,7.87,34.97,10.48,44.88,1.07,3.92,3.37,8.43,6.9,13.56,4.72,6.61,11.29,10.2,19.71,10.75l6.21-.05c2.84.03,4.68.18,5.5.43.82.26,1.34.91,1.57,1.95.05.21.18,1.82.4,4.83l.62,2.81c2.64,5.1,5.56,9.43,8.74,12.99,3.18,3.56,7.05,6.27,11.6,8.11,7.32,2.55,13.93,3.29,19.81,2.21,1.76.05,3.36.36,4.79.92-.58.35-2.45,1.52-5.62,3.52-3.17,2-6.31,3.35-9.44,4.03-1.67.37-3.51.44-5.52.22-3.32,1.82-6.1,3.09-8.34,3.79l-8.68,2.23c-2.71.59-5.3.73-7.78.39-2.41.97-4.24,1.58-5.49,1.86-1.46.32-5.74.71-12.85,1.17-1.76-.05-3.93,0-6.53.12-1.29.07-2.87-.13-4.72-.61-1.85-.46-3.01-.76-3.47-.88-.42.09-.75.06-1.01-.11-.25-.16-.59-.2-1.01-.11-2.67.8-5.25.98-7.74.55-2.5-.44-5.77-1.41-9.81-2.93-.51-.32-1.16-1.06-1.96-2.19-.79-1.14-1.49-2.07-2.09-2.82ZM262.38,331.92c.48,1.21.95,2.85,1.41,4.93,1.74-1.04,2.45-2.28,2.13-3.74-.09-.42-.44-.99-1.04-1.74-.94-1.32-2.25-1.8-3.92-1.44l-3.37,1.06-.63.14,3.35,15.32c-.24-6.06-.27-9.71-.1-10.95.17-1.23.89-2.43,2.16-3.59ZM264.75,359.25l-.45-.56-.31.07c-.16.26-.18.42-.05.5.13.09.21.23.26.43l.56-.45ZM269.66,356.21c.07-.67.17-1.46.3-2.36.13-.9.13-1.67,0-2.29-.32-1.46-1.35-2.65-3.08-3.58l2.79,8.23ZM271.42,314.87c.16-.25.32-.51.49-.76.16-.25.11-.46-.14-.63-.14-.62-.52-.87-1.14-.73-.21.05-.4.2-.56.45-.16.26-.22.49-.18.69l1.52.98ZM276.76,328.77c-1.16.69-2.01,1.31-2.54,1.87-.53.56-.73,1.14-.6,1.77.09.42.63,1.39,1.62,2.92l3.52-3.39c1.11-.9,1.53-1.97,1.26-3.22-.09-.42-.44-.99-1.04-1.74l-6.19-5.85-2.17,5.06,6.14,2.59ZM277.3,355.19l-.52-.87c-.42.09-.58.35-.49.76l.52.87.49-.76ZM283.53,349.24v-2.95c.11-1.55.61-2.97,1.53-4.26.92-1.29,2.1-2.1,3.57-2.42l.62-.14c1.88-.41,2.97-.87,3.3-1.38.32-.51.63-2.1.92-4.79-.47-.11-1.11-.3-1.92-.56-.82-.25-1.44-.34-1.86-.25l-.31.07c-.79.39-1.47,1.03-2.04,1.92-.57.89-1.04,1.49-1.41,1.78-.21.05-.55-.26-1.02-.92-.47-.66-1.04-.48-1.69.53-.24.93-.61,1.23-1.11.9-.97-.44-1.77-.6-2.39-.46-1.04.23-1.5,1.64-1.37,4.23-.12.47-.16,1.02-.13,1.67.03.65-.01,1.21-.13,1.67-.51,1.64-.68,2.88-.5,3.71.14.63.72,1.05,1.75,1.26,1.03.21,2.42.35,4.18.4ZM287.03,362.23l-1.07-.42-.11,1.01.69.18.49-.76ZM289.27,388.93c-1.88.41-2.7,1.14-2.47,2.18l1.17,2.36,1.3-4.54ZM287.11,346.16c1.71-.16,2.82-.34,3.32-.56.5-.22,1.36-1,2.59-2.37-.38.3-1.31.51-2.81.62-1.51.11-2.54.88-3.1,2.32ZM290.49,418.47l-1.11.9c.05.21-.05.5-.3.88-.24.38-.22.76.08,1.13.05.21.25.39.61.52.36.14.64.19.85.14.42-.09.72-.7.91-1.84-.09-.42-.44-.99-1.04-1.74ZM290.09,403.16c-.17,2.22-.05,4.27.36,6.15.32,1.46.65,2.48,1,3.06l.94-.21-2.3-9ZM296.22,363.82l-.28,1.7.45.56c.42-.09.79-.39,1.11-.9-.09-.42-.52-.87-1.28-1.36ZM303.17,338.72c-3.34.73-4.87,1.72-4.59,2.97.09.42.26.71.52.87.9,1.11,1.48,2.3,1.76,3.55.23,1.04.24,3.12.05,6.21-.07.67.03,1.42.32,2.22.29.81.48,1.43.57,1.84,1.24,3.66,2.04,6.33,2.41,7.99l.92,5.7,1.25-.27c-.65-5.97-1.72-16.33-3.2-31.07ZM300.96,313.65l-.82-3.75-.63.14.82,3.75.62-.14ZM311.67,426.94l1.63-.03-.75-3.44-.94.21c.18.83.2,1.92.06,3.26ZM322.25,494.72l.76.49.62-.14-.59-1.18-.8.83ZM333.27,489.69c-.19,1.14-.16,1.79.1,1.94l1.14.73c-.04-.21,0-.49.14-.85.14-.36.08-.62-.17-.78-.04-.21-.45-.56-1.21-1.05ZM337.8,496.89l.34,1.56.24-.38-.59-1.18ZM413.02,286.83c-2.1-2.6-3.6-4.23-4.51-4.91-.91-.67-1.99-.87-3.24-.6-.42.09-1.83.62-4.24,1.58-.94-1.32-1.76-2.56-2.45-3.72-.21.05-.48.05-.82.02-.33-.03-.59.08-.75.33-.65,1.02-1.97,2.23-3.95,3.65-1.98,1.42-3.38,2.76-4.2,4.03-.49.76-1.07,1.11-1.74,1.04-.67-.07-1.45-.39-2.34-.96-.89-.57-1.57-.91-2.03-1.03l-3.27,3.01-3.63-3.14-2.27,3.12-6.73-.82-1.92-8.75c2.83-1.05,4.66-1.67,5.49-1.86l31.57-6.91,5.52-.23c2.64.08,4.16,1.05,4.57,2.93.05.21,0,.98-.15,2.33-.5,2.73-.49,5.24.01,7.53.32,1.46.67,2.59,1.07,3.37ZM374.44,478.72c-.35,1.39-.48,2.29-.39,2.71l1.14.73c.74-.6,1.07-1.1.98-1.52.16-.25-.01-.54-.52-.87-.51-.32-.91-.67-1.21-1.05ZM375.41,490.62c4.12.85,6.49,1.2,7.11,1.06s1-.66,1.13-1.56c.13-.9.15-1.56.06-1.98-1.05.23-3.81,1.05-8.3,2.47ZM417.92,349.63c.51.33,1.25.71,2.22,1.15.97.44,1.63.95,1.97,1.53.69,1.16,1.66,1.6,2.91,1.33.83-.18,1.43-.42,1.81-.72,2.25-.71,4.15-2.22,5.72-4.53,1.57-2.31,2.78-3.99,3.64-5.06,2.26,2.35,4.56,5.88,6.91,10.61,1.22,2.57,2.47,4.81,3.76,6.71l-4.24,1.58c3.37,1.45,5.38,3.63,6.02,6.55.27,1.25.37,2.21.3,2.88.02,1.09.35,2.33.98,3.72.63,1.39,1.14,2.48,1.53,3.27.32,1.46.37,2.43.15,2.92-.22.49-1.16,1.46-2.8,2.91l3.12,2.27c.3.38.6.74.9,1.11.3.38.5.77.59,1.18.02,1.09.3,2.88.85,5.38l1.16,5.31c.64,2.92.79,5.62.46,8.09-.38,2.27-.44,4.96-.2,8.07.24,3.11.44,5.53.6,7.24.3,12.38-3.44,24.67-11.26,36.86-.77,1.48-2.06,3.07-3.87,4.78-1.81,1.71-3.17,2.99-4.07,3.84l-5.38-12.58c.33-.51.83-1.17,1.53-1.97.69-.81,1.37-1.72,2.02-2.74.81-1.27,1.89-2.81,3.24-4.64,1.35-1.82,2.43-3.37,3.24-4.64.16-.25.23-.92.21-2.01-.02-1.09-.02-2.07,0-2.95-1.2.48-2.35,1.01-3.42,1.57-1.08.56-2.12,1.07-3.11,1.5l-.25-10.1-8.43-1.1-1.83-3.86c-.35-.58-1.08-1.4-2.18-2.47-3.32-3.2-5.14-4.99-5.43-5.36-1.43-.56-2.61-.46-3.54.28-.93.75-1.83,2.1-2.72,4.04-.97-.44-2.44-1.16-4.4-2.15-1.97-.99-3.99-1.75-6.07-2.27-2.08-.53-4.14-.45-6.18.21l-14.51-66.27,4.45-3.6,2.63,3.03,2.85-1.94,2.29,1.46c.97.44,1.86.52,2.67.23.81-.28,1.23-.87,1.26-1.75.14-1.34.57-2.36,1.29-3.07.72-.7,1.74-1.25,3.08-1.66,1.33-.4,2.2-.65,2.62-.74-1.19,1.57-1.62,3.09-1.3,4.54.23,1.04.79,2.12,1.69,3.23l6.5,8.73c.23,1.05.58,2.17,1.07,3.37.48,1.21,1.38,2.32,2.7,3.34-.62-1.83-1.06-2.82-1.31-2.99l-2.45-3.72-2.17-5.42c-1.01-2.61-.78-4.52.71-5.72,1.09-.02,1.97.28,2.65.89.68.62,1.3,1.47,1.87,2.54.56,1.08.89,1.83.98,2.24,2.34-.29,3.75-1.8,4.25-4.53l-.31.07ZM427.22,284.37c-.37.3-.85.62-1.43.97-.58.35-1.14.8-1.67,1.35-1.25-1.69-2.73-3.5-4.46-5.41-1.73-1.91-3.12-3.79-4.18-5.64-1.06-1.84-1.66-4.06-1.78-6.65,1.57-.78,2.78-1.26,3.61-1.45,1.46-.32,3-.49,4.63-.52,1.63-.03,3.17-.2,4.64-.52.9,1.11,1.46,2.19,1.69,3.23.27,1.25.17,2.8-.29,4.65-.35,1.39-.41,2.6-.19,3.64.14.62.59,1.73,1.38,3.3.55.53,1.04,1.74,1.45,3.61.37,1.67.53,2.94.51,3.82.18.84-.52,1.64-2.09,2.42l-1.82-6.81ZM418.23,349.56c-1.81-.26-2.89-1.22-3.25-2.89-.18-.83-.22-1.48-.1-1.94.25.17.82.53,1.71,1.1.89.57,1.4,1.17,1.54,1.79.18.84.11,1.51-.21,2.01l.31-.07ZM420.91,292.96c-2.22-2.14-3.62-4.56-4.21-7.27-.32-1.46-.47-2.63-.44-3.51.3.38,1,1.37,2.12,2.97,1.12,1.61,1.86,3.25,2.22,4.92.27,1.25.37,2.21.3,2.88ZM419.25,357.2l-.21-.94c-.42.09-.6.24-.56.45l.45.56.31-.07ZM420.91,292.96l5.13,2.48c-1.62.58-2.68.75-3.16.53-.49-.22-1.14-1.22-1.97-3.01ZM423.01,277.11l.49-.76c-.04-.21-.19-.34-.42-.4-.23-.06-.37-.19-.42-.4l-.66,1.46,1.01.11ZM424.8,271.8l-.07-.31-.94.21.45.56.56-.45ZM428,466.01c-.27-1.25-.45-2.3-.53-3.16-.08-.85.19-1.35.82-1.49l2.64.08c-.93,1.73-1.91,3.26-2.93,4.57ZM429.92,440.37l1.4-2.6c.51.33.86.47,1.07.42l-1.08,2.53-1.39-.35ZM436.4,455l-1.04,1.21c1.08,1.95,2.28,3.43,3.6,4.45.25.17.72.28,1.39.35.67.07,1.21.06,1.63-.03-.14-.62-.15-1.17-.03-1.63.11-.46.13-.9.04-1.32l-.07-.31-5.51-2.73ZM439.62,335.05l-4.11-5.32c2.84.03,4.38.57,4.61,1.61.18.83.01,2.07-.5,3.71ZM438.05,338.35l2.9,4.28-1.18.59-2.59-4.35.87-.52ZM441.77,380.77l1.11-.9c-.57-1.62-1.05-2.55-1.43-2.8-.38-.24-1.48-.5-3.28-.76,1.1,1.07,2.3,2.56,3.59,4.45ZM449,433.24l.49-.76c-.51-.32-1.06-.86-1.66-1.6l-.8.83,1.97,1.53ZM452,394.58c-.82,1.27-1.2,2.01-1.15,2.22.09.42.52.87,1.28,1.36.16-.25.34-.45.52-.61.18-.15.36-.35.52-.61.16-.25.08-.62-.24-1.09-.32-.47-.64-.89-.93-1.27Z"/><path class="cls-1" d="M650.06,402.99l6.67-2.44c.23,1.04.3,2.39.23,4.04-.08,1.65.03,3.11.3,4.36.23,1.04.79,2.12,1.69,3.23l5.87-1.61.45.56c-1.49,1.2-2.58,2.2-3.27,3.01.35,5.6.51,9.83.48,12.67,1.34.15,2.11-.57,2.32-2.14.2-1.57.82-2.47,1.87-2.7,1.01.65,1.52,1.69,1.5,3.11-.01,1.43.02,2.34.11,2.76.09.42.56,1.08,1.42,1.98.85.91,1.35,1.67,1.49,2.29.18.84.13,1.61-.15,2.32-3.66,1.24-6.64,2.11-8.93,2.61-2.5.55-6.3,1.16-11.39,1.84-4.68.59-8.16,1.13-10.45,1.63-1.46.32-3.6,1.01-6.43,2.06-1,.44-2.33.84-4,1.2-2.08.46-3.92.31-5.5-.43-1.58-.74-3.38-2.21-5.38-4.39l-18.92-22.07c-.6-.74-2.11-3.14-4.52-7.2-.26-.16-.42-.4-.48-.71-.07-.31-.23-.55-.48-.71-1.14-.19-1.99-.6-2.57-1.24-.58-.64-1.12-1.61-1.62-2.92-.51-1.31-.93-2.25-1.28-2.83l4.26,3,.87-.52c-.44-.99-1.01-2.12-1.72-3.39-.72-1.26-1.44-2.58-2.17-3.95-.16.26-.46.43-.87.52l-.36,4.34c-2.4-1-4.51-2.4-6.32-4.18-1.81-1.78-3.75-3.87-5.79-6.27-2.05-2.39-3.68-4.32-4.88-5.81-5.47-6.01-11.37-13.02-17.71-21.02-.25-.16-.83-.8-1.73-1.91-.65-.95-.83-1.78-.55-2.5.28-.72.94-1.19,1.98-1.42.42-.09,1.11-.19,2.07-.29.96-.1,1.91-.47,2.87-1.12l-1.84-.91c-3.1-.19-5.41-.23-6.91-.13-1.97,0-4.1-1.28-6.41-3.84-1.71-1.81-1.4-3.4.92-4.79.37-.3.92-.53,1.65-.69.73-.16,1.36-.51,1.9-1.07.53-.55.71-1.25.53-2.08l-.07-.31c-.18-.83-.62-1.34-1.31-1.51-.69-.18-1.51-.16-2.45.04-.94.21-1.74.27-2.41.2-5.7-.06-9.56-2.27-11.61-6.63-.65-.95-.8-1.9-.46-2.85.34-.94.92-1.51,1.76-1.7l.62-.14c1.67-.36,3.69-.59,6.08-.67,2.38-.08,4.22-.16,5.52-.23,1.62-2.54,2.75-3.88,3.38-4.01.62-.14,2.01.21,4.16,1.05l-2.1,5.37c2.68.29,5.13.51,7.36.68l.97-9.06c-1.66-1.6-3.74-2.13-6.24-1.58-1.04.23-2.44.59-4.19,1.08-1.75.5-3.6.79-5.54.88-1.94.1-3.87-.19-5.76-.87-.53.56-1.14,1.29-1.81,2.2-.67.92-1.32,1.44-1.95,1.57-.37.3-1.07.35-2.1.13-1.03-.21-1.88-.35-2.55-.42l-2.77-.7c-2.85-.03-4.1,1.23-3.76,3.77l1.2,4c.29,2.34.94,5.8,1.95,10.38.23,1.04.78,2.56,1.65,4.55.6.74.97,1.43,1.1,2.05l5.24,22.44c1.33,4.08,2.2,7.05,2.61,8.93,1.15,3.25.23,5.52-2.76,6.83.21-2.01.2-4.08-.05-6.21l-4.02-.43c-.02-1.09-.26-2.67-.71-4.76l3.07-3.95c-1.57-1.18-2.88-1.66-3.92-1.44-.84.18-1.71.7-2.61,1.55.9,1.11,2.16,2.37,3.77,3.76-.28.72-1.71,2.67-4.29,5.85-3.11,3.74-5.06,6.79-5.86,9.14l-.67-9.03-5.91,2.93c-.35-.58-.43-1.71-.25-3.38.17-1.68.2-2.83.06-3.45-.27-1.25-1.34-2.11-3.18-2.58l.07.31c-.46-2.08-1.01-3.6-1.65-4.55-.65-.95-1.93-1.32-3.85-1.12-.03.88-.21,2.56-.54,5.03l-5.63,1.23c.22,3.01.33,5.5.32,7.46,1.04-.23,1.87-.95,2.47-2.18.6-1.22,1.22-1.9,1.85-2.04s1.17-.14,1.63-.03c.73,1.37.64,3.19-.28,5.47-.92,2.28-1.27,3.94-1.04,4.98.34,2.55.75,4.7,1.25,6.44.49,1.75.9,3.36,1.22,4.81,2.41-.96,4.61-1.88,6.6-2.76-.18-.83-.46-1.59-.83-2.28-.37-.68-.62-1.34-.76-1.96-.36-1.67.21-3,1.75-3.99,2.75,1.58,4.37,2.54,4.88,2.86,2.35.79,3.83,2.55,4.43,5.26l.27,1.25.74,6.39c-2.86-1.12-5.58-2.05-8.15-2.8.64.96,1.2,1.76,1.68,2.42.47.66.88,1.28,1.23,1.86,1.04,1.74,1.58,2.72,1.62,2.92l-.11,1.01c-.35,1.39-.25,3.33.29,5.83.37,1.67.97,3.67,1.8,5.99.84,2.33,1.31,4.25,1.42,5.75.34,2.55,1.93,3.84,4.78,3.87.88.03,1.88.14,3.02.32,1.13.19,2.45.23,3.96.12.42-.09,1-.16,1.75-.22.75-.05,1.42.02,2.01.21.59.2,1.02.92,1.29,2.17l.27,1.25c1.56-3.83,2.25-6.17,2.07-7-.23-1.04-1.68-1.7-4.37-1.99l.29-4.65.69.18,2.92-1.62-.52-.87c-.37.3-.8.61-1.27.93-.48.32-1,.66-1.58,1l-.18.69c-1.58.79-2.83.78-3.77,0-.94-.78-1.84-2.16-2.71-4.16l-1.34,5.86-4.79-.92,3.46-6.65-1.93-2.85c2.35-4.23,3.21-7.8,2.57-10.72-.41-1.88-1.22-3.55-2.41-5.04,3.82-1.49,6.2-.59,7.14,2.69.32,1.46.38,3.74.19,6.84-.15,1.34-.15,2.32,0,2.95.18.84.7,1.7,1.55,2.61,1.54-4.92,2.17-7.03,1.89-6.31,5.1,4.35,8.27,9.33,9.5,14.96.23,1.04.41,2.86.54,5.45.02,1.09.18,2.09.49,3,.31.92.53,1.69.67,2.31,2.15,7.83,3.55,13.75,4.21,17.75,1.05,4.8-.93,7.74-5.93,8.83l-11.25,2.46-10.63,2.33c-.62-1.83-1.22-4.1-1.82-6.81.91-2.82,1.16-5.17.75-7.04-.23-1.04-.52-1.85-.86-2.43-1.88.41-2.65,1.35-2.33,2.8l.21.94,2.24,5.73c-1.26,4.21-4.19,6.81-8.77,7.82-3.55.78-5.61-.19-6.2-2.9-.18-.83-.22-1.48-.1-1.94l.38-10.24c1.1-17.93,1.91-29.68,2.44-35.26.23-.92.48-1.79.74-2.62.26-.82.5-1.69.74-2.62-.07-1.3-.68-2.58-1.83-3.86-2.18,8.99-3.55,17.98-4.09,26.94-.55,8.96-.79,20.1-.71,33.41-4.14.04-6.6-1.72-7.38-5.27l-.21-.94c-.25-2.13-.81-4.68-1.68-7.66-.87-2.97-1.53-5.5-1.99-7.59-.96-4.38-1.35-7.67-1.18-9.9.11-.46.09-.84-.08-1.13-.18-.29-.28-.54-.33-.75-1.33-4.07-3.16-10.45-5.49-19.11-.71-2.24-1.59-5.76-2.64-10.56l-3.01-13.75c-.82-3.75-1.01-6.11-.57-7.08.44-.97,2.36-2.16,5.77-3.56l-.76-.49c-4.8,1.05-7.62-.4-8.49-4.37-.14-.62-.23-2.02-.26-4.2.11-.46.21-1.03.28-1.7.07-.67.04-1.32-.1-1.94-.14-.62-.51-1.31-1.1-2.05-.35-.58-.61-1.28-.79-2.12-.18-.83-.32-1.46-.41-1.88-.41-1.88-.33-3.25.24-4.15.57-.89,1.79-1.54,3.67-1.95l9.34-.73c.55.53,1.06,1.35,1.52,2.45.46,1.1.97,1.97,1.55,2.61.58.64,1.28.87,2.12.68l1.49-.65c-.02-1.09-.26-2.67-.71-4.76-.73-3.33-2.47-5.79-5.22-7.38-1.49,3.17-3.49,5.02-5.99,5.57-1.67.37-3.58.35-5.75-.05-2.16-.4-3.58-.63-4.25-.71-.3-.37-.63-.85-.97-1.43-.35-.58-.61-1.29-.79-2.12l-5.17-22.13c-.5-2.29-.59-3.69-.26-4.2.32-.51,1.72-1.14,4.17-1.9,3.54-.77,6.47-1.85,8.79-3.23-4.18-2.14-7.83-2.87-10.96-2.19-.83.18-2.04.67-3.61,1.45l-2.23-8.68c-.58-1.62-1.27-4.31-2.09-8.06l-8.42-35.5c-.64-2.92-.67-4.77-.07-5.55.59-.78,2.34-1.5,5.26-2.13,12.92-2.83,32.56-6.91,58.91-12.24,3.54-.77,6.36.14,8.46,2.73l45.58,52.59,28.98,33.62,10.85,13.68,7.64,9.46c.39.79,1.08,1.73,2.09,2.82,1,1.09,1.91,1.99,2.72,2.68l.29-4.65c-2.43-9.08-4.14-15.91-5.14-20.49l-10.47-47.83-11.13-46.37c-1-4.58-1.63-7.94-1.88-10.07-.16-1.71-.1-2.93.18-3.64.28-.72,1.04-1.21,2.3-1.49l.94-.21c.62-.14,1.72-.38,3.28-.72,1.56-.34,3.2-.59,4.91-.75,1.71-.15,3.43.23,5.17,1.16-.07.67-.28,2.25-.61,4.72,1.36,1.23,2.76,1.91,4.21,2.03,1.45.12,3.23.06,5.36-.19,2.13-.25,3.63-.35,4.51-.33,1.5-.11,3.82-.51,6.95-1.19.32-.51.72-1.68,1.19-3.54.62-.14.96-.1,1.01.11,1.68.73,2.95.99,3.78.81,1.04-.23,1.74-1.04,2.09-2.42.23-.92.33-1.71.3-2.36-.03-.65-.09-1.18-.18-1.6-.27-1.25-.32-2.22-.15-2.92.18-.69.89-1.18,2.14-1.45,3.13-.68,5.1-.13,5.93,1.65.6.74,1.06,1.85,1.38,3.3.57,1.62,1.24,3.66,1.99,6.11.75,2.46,1.5,5.35,2.23,8.68.18.83.13,4.12-.14,9.86,1.18.4,2.04,1.08,2.58,2.06.54.98,1.04,2.51,1.49,4.59l16.08,73.46c.32,1.46.59,3.42.8,5.89.21,2.47.39,4.56.55,6.27.91,4.17,1.7,7.28,2.37,9.31.09.42.22.99.38,1.72.16.73.2,1.43.13,2.1-.07.67-.56,1.43-1.46,2.29-2.4-1-4.3-2.44-5.7-4.32-1.39-1.88-2.57-4.24-3.52-7.09-.95-2.85-1.72-5.08-2.29-6.71.14.62.16,1.22.06,1.79-.1.57-.07,1.16.06,1.79l1.61,5.87c.46,2.09.4,3.57-.17,4.46-.57.89-2.06,1.82-4.47,2.78-.51-.32-.83-.8-.97-1.43l-2.18-2.47c.11,1.51.09,2.93-.05,4.27-.26,1.81-.47,2.84-.63,3.09-1.37.74-2.21,1.63-2.52,2.68-.32,1.05-.37,2.32-.15,3.8.21,1.48.39,2.53.53,3.16.68,3.13,1.1,5.55,1.26,7.26.5,2.3-.42,4.57-2.76,6.83-.79.39-1.45,1.14-1.97,2.23-.53,1.1-.95,1.9-1.27,2.41l-3.78-.81c.17,2.8,1.75,4.53,4.74,5.19l-1.33,2.91c-3.34.73-5.4,1.29-6.18,1.68-.79.39-1.62,1.56-2.51,3.5l8.38-5.11,7.81-1.71c.32,1.46.08,2.6-.72,3.43-.8.83-1.37,1.5-1.69,2.01l-3.17,4.95c-.37.3-1,.66-1.89,1.07-.89.42-1.25,1.04-1.06,1.87.18.83.42,1.44.72,1.81l1.92-4.68ZM464.81,307.92l-.45-.56c-.25-.16-.54.01-.87.52l.76.49.56-.45ZM493.97,306.45l.42-1.07c-1.02-.65-1.76-1.03-2.22-1.15l-9.27,1.05-11.15,1.46-.04,1.32c4.97-.21,12.39-.75,22.25-1.6ZM485.32,338.81c.42-.09.99-.22,1.72-.38.73-.16,1.48-.49,2.24-.98.76-.49,1.24-1.31,1.43-2.44-.46-.11-1.33-.31-2.58-.58-1.26-.27-2.07-.69-2.41-1.27-.99-1.53-1.91-2.2-2.74-2.02-.42.09-.95.43-1.58,1-.64.58-1.14,1.02-1.51,1.31l5.43,5.36ZM497.46,374.81c-1.24-3.66-1.99-6.11-2.27-7.37-.39-.78-.83-1.56-1.33-2.33-.49-.76-1.16-1.06-1.99-.87l-.31.07c-1.41.53-2.88.58-4.39.14-1.52-.43-3.12-1.01-4.8-1.73l.19,6.84,7.22.06.67,6.08c2.08-.46,4.42-.75,7.01-.88ZM490.04,318.45l-.07-.31c.92.24,1.47.23,1.63-.03.95-.64,1.67-1.35,2.16-2.11-1.11-1.07-1.89-1.66-2.35-1.78-1.55-.09-3.83-.03-6.84.19-.42.09-.8.34-1.15.74-.35.4-.61.74-.77.99.27,1.25.87,1.99,1.8,2.23,1.13.19,3,.22,5.59.09ZM486.27,359.57l.04-1.32-2.78-.7c.05.21-.1.57-.42,1.07l3.16.95ZM492.21,379.23l.38.24.56-.45-.38-.24-.56.45ZM498.9,315.53l.8-.83c-.25-.16-.42-.4-.48-.71s-.23-.55-.48-.71c-.25-.16-.54-.21-.85-.14s-.6.02-.85-.14c.09.42.03.65-.18.69l2.04,1.85ZM499.05,365.61l-.68-3.13-.94.21.68,3.13.94-.21ZM506.81,350.16c-4.26.5-7.12.9-8.58,1.22l6.52,2.83,2.06-4.05ZM498.35,347.42l.76.49.56-.45-.76-.49-.56.45ZM500.8,448.43l-.76-.49-.49.76.76.49c.42-.09.58-.34.49-.76ZM501.48,333.31l-.11,1.01c.46.12,1.21.06,2.26-.17l-.21-.94-1.94.1ZM503.73,315.13c1.54,2.07,4.19,2.69,7.94,1.86,1.88-.41,3.79-1.16,5.73-2.24-.93-.23-1.93-.61-3.03-1.14-1.1-.52-2.07-.69-2.9-.51l-.94.21c-.58.35-1.71.7-3.37,1.06l-3.44.75ZM504.33,365.77c.9,1.11,1.68,2.2,2.35,3.25.67,1.06,1.43,2.04,2.28,2.94.55.53,1.62,1.4,3.18,2.58,1.57,1.19,3.07,2.06,4.5,2.62,1.43.56,2.56.48,3.38-.25.83-.72,1.26-1.96,1.31-3.73.03-2.84-1.25-4.2-3.84-4.07-1.09.02-2.68.26-4.76.71-.62-1.83-.5-3.27.36-4.34.86-1.06,2.36-2.16,4.52-3.28l-11.97-2.29c-.24.93-.46,1.9-.67,2.93-.21,1.03-.43,2.01-.67,2.93ZM508.04,376.75l.16,5.21c-1.15-1.27-1.5-2.34-1.03-3.21.47-.86.78-1.42.94-1.68l-.07-.31ZM509.4,288.66l-.76-.49c.09.42-.07.67-.49.76l.38.24.87-.52ZM509.88,356.69c-.33.51-.46.87-.42,1.07.05.21.17.29.38.24.21-.04.44.02.69.18l.11-1.01-.76-.49ZM512.33,349.93c-.25-.16-.4-.35-.45-.56-.05-.21-.18-.29-.38-.24l-.87.52c.25.17.4.35.45.56.05.21.17.29.38.24l.87-.52ZM510.69,352.91l.21.94,3.13-.68-.14-.62-3.19.37ZM512.1,444.65c1.16-.69,2.48-1.63,3.97-2.83.37-.3.6-.73.7-1.3.09-.56.01-.93-.24-1.09-1.27-.81-2.2-1.04-2.78-.7-1.04.23-1.66.64-1.86,1.23-.2.59-.19,1.35.01,2.29.21.94.27,1.74.2,2.41ZM514.78,419.5l-.76-.49-.49.76c.05.21.13.36.26.43.13.09.29.1.5.05l.49-.76ZM514.84,322.52c.81.7,1.52,1.2,2.13,1.5.61.31,1.33.36,2.17.18,1.04-.23,2.41-.96,4.1-2.21-.67-.07-1.68-.18-3.02-.32-1.34-.14-2.54-.1-3.58.13l-1.81.72ZM516.13,331.41l-1.04,1.21c.42-.09.7-.04.85.14.15.19.33.26.54.21l.56-.45c-.09-.42-.39-.78-.9-1.11ZM515.12,431.54c.25.17.69.18,1.32.04l.39-2.71c-.25-.16-.59-.2-1.01-.11l-.7,2.77ZM516.89,345.33c.05.21.32.48.83.8.95-.64,1.53-1.26,1.72-1.85.2-.59.37-1.55.51-2.9l-3.07,3.95ZM524.71,351.15l-4.38.96c.76.49,1.66.62,2.71.39.83-.18,1.39-.63,1.67-1.35ZM520.58,438.54c1.85.47,3.29.59,4.34.36,1.46-.32,2.78-1.26,3.97-2.83-1.6-.31-3.02-.32-4.27-.05-1.46.32-2.81,1.16-4.03,2.52ZM525.29,313.35c.34,2.55,1.03,3.71,2.07,3.48.42-.09,1-.43,1.74-1.03l-3.81-2.44ZM532.13,452.39c-.74.6-1.29,1.1-1.64,1.5-.35.4-.45.92-.32,1.54l.72,1.81,1.23-4.86ZM538.27,399.61l3.44,9.73c-.3-.37-.95-1.1-1.95-2.19-1.01-1.09-1.64-2.26-1.92-3.51-.23-1.04-.09-2.38.43-4.02ZM539.98,452.31l-.31.07.21.94.62-.14c-.25-.16-.43-.45-.52-.87ZM566.22,352.22l-.27-1.25c-.72-.28-1.47-.71-2.25-1.31-.79-.59-1.41-.95-1.87-1.06-1.73-.93-3.71-1.48-5.93-1.65-2.06-.42-3.19.37-3.41,2.38-.19,1.14.09,2.17.84,3.09.75.93,1.56,1.41,2.44,1.43l10.45-1.63ZM564.4,358.84l1.05-1.21-.9-1.11-.15,2.33ZM566.14,333.89l-1.32-.04-.11,1.01,1.01.11c.42-.09.56-.45.42-1.07ZM587.79,360.93l-.94.21c.23,1.05.3,1.9.23,2.57l1.01.11-.3-2.88ZM597.16,230.14l-1.46-.66c-.93,1.73-1.05,4.16-.37,7.29.56-1.43.93-2.71,1.12-3.85.19-1.13.42-2.06.7-2.77ZM603.03,391.66l.56-.45-2.06-6.43c-.15,1.34.04,3.16.54,5.45.05.21.21.45.48.71.27.27.44.51.48.71ZM607.6,405.07l-.14-.63-.38-.24-.24.38.76.49ZM608.28,421.63l-.76-.49-.49.76.38.24c.42-.09.71-.26.87-.52ZM618.67,319.45l-1.21-1.04c-.37.3-.94.7-1.71,1.19-.77.5-1.31,1-1.64,1.5-.16.26-.16.75,0,1.48.16.73.18,1.33.06,1.79.42-.09,1-.16,1.75-.22.75-.05,1.21-.21,1.37-.46.32-.51.78-1.92,1.37-4.23ZM618.87,278.46l-.9-1.11c-1.88.41-2.94.81-3.18,1.19-.25.38-.33,1.77-.24,4.15l4.32-4.22ZM615.5,397.78l-.94.21,1.62,2.92.87-.52-1.55-2.61ZM618.18,330.69l-1.14-.73-.49.76.9,1.11.73-1.14ZM619.41,270.48l-.21-.94c-.42.09-.71.27-.87.52l.52.87.56-.45ZM627.38,363.73l1.56-.34c.23-.92.2-1.57-.1-1.94l-5.75-15.78c-.83-1.78-1.95-4.92-3.37-9.42l-1.18.59,8.83,26.89ZM621.8,273.89c-.04-.21.03-.33.24-.38.21-.04.29-.17.25-.38l-.21-.94-.8.83c.09.42.26.71.52.87ZM625.88,419.75l-.5-6.77c-1.44,1.41-2.02,2.74-1.75,3.99.23,1.04.97,1.97,2.25,2.78ZM623.72,411.37c.42-.09,1.07-.34,1.96-.76.89-.41,1.42-.75,1.58-1,.35-1.39.48-2.29.39-2.71-.23-1.04-1.06-1.84-2.49-2.4-.15,1.34-.63,3.63-1.45,6.87ZM627.63,384.31l-1.63.03-.25,3.33,1.32.04c.11-.46.31-1.59.57-3.4ZM629.06,425.27c-.51-.32-.79-.59-.83-.8-.33.51-.46.87-.42,1.07l.76.49c-.09-.42.07-.67.49-.76ZM629.51,259.75c-.51-.32-.87-.46-1.07-.42-.04-.21-.1-.19-.16.03-.06.23-.2.37-.4.42l1.14.73.49-.76ZM629.6,288.56c.14-1.34.1-2.53-.13-3.58l-1.25.27c.78,1.58,1.24,2.68,1.38,3.3-.35,1.39-.39,2.71-.12,3.96.23,1.05,1.38,3.3,3.45,6.78.74-5.62,1.39-9.58,1.98-11.9.35-1.39.39-2.71.12-3.96-.5-2.29-2.34-4.18-5.5-5.68l.78,5.07c.96,2.41.73,4.32-.71,5.72ZM638.38,232.91l-.53,2.08,1.59,1.29c.16-.25.34-.45.52-.61.18-.15.36-.35.52-.61-.09-.42-.33-.75-.71-.99s-.85-.63-1.4-1.17ZM641,270.34c-1.65,1.46-2.57,2.48-2.77,3.06-.2.59-.3,1.87-.31,3.83,1.25-2.24,2.28-4.54,3.08-6.9ZM647.65,242.35l1.25-.27-6.81-19.15-.94.21c.52,3.38,1.59,7.02,3.21,10.93,1.62,3.9,2.71,6.67,3.29,8.29ZM642.09,409.97l.38.24.24-.38-.38-.24-.24.38ZM646.54,288.13l-1.56.34,1.83,3.86.94-.21c-.39-.78-.79-2.12-1.2-3.99ZM647.57,310.83l1.46.66c.63-.14.89-.41.8-.83-.25-.16-.4-.35-.45-.56-.04-.21-.18-.29-.38-.24-.25-.16-.5-.05-.75.33-.24.38-.47.6-.68.64ZM650.54,318.37c-.93-.23-1.47-.22-1.63.03-.21.05-.28.22-.21.54.07.31.02.6-.14.85.21-.04.44.02.69.18.25.17.46.12.62-.14.21-.04.43-.53.66-1.46ZM650.93,302.23l-1.32-.04c.27,1.25.35,2.11.23,2.57l1.01.11.08-2.64ZM652.23,255.76l-1.18.59,1.69,3.23.56-.45c-.32-1.46-.68-2.58-1.07-3.37ZM657.22,323.46l-.75-3.44-.94.21,1.69,3.23,1.37,6.25c.6-1.22.8-2.35.57-3.4-.27-1.25-.92-2.2-1.93-2.85ZM656.78,417.24l-.98,1.52c.05.21.45.56,1.21,1.05l.73-1.14-.97-1.43ZM658.44,276.67l-.45-.56c-.33.51-.46.87-.42,1.07l.76.49.11-1.01ZM660.35,309.34c.19-1.13.2-1.84.02-2.13-.18-.29-.85-.63-2.03-1.03.85.91,1.52,1.96,2,3.17ZM663.19,310.36c.53,1.42.81,3.21.85,5.38.04,2.18.24,4.1.61,5.76.55,2.5,1.72,4.86,3.52,7.09-.2-3.89-.59-7.19-1.18-9.9-.96-4.38-2.22-7.16-3.79-8.34ZM663.52,359.75l-.14-.62.24-.38.52.87-.62.14ZM665.65,432.33c-.25-.16-.43-.45-.52-.87l-.49.76c.09.42.26.71.52.87l.49-.76ZM680.09,432.45c-.67-.07-1.18-.18-1.54-.32-.36-.14-.67-.29-.92-.45-.21.05-.29-.04-.22-.28.06-.23.07-.45.02-.66l2.64.08.03,1.63ZM684.06,429.61c1.34.15,2.37.36,3.09.63.05.21.08.37.1.47.02.11-.07.18-.28.22-1.25.27-2.21.38-2.88.3.16-.25.15-.8-.03-1.63Z"/><path class="cls-1" d="M869.5,354.95l6.67-2.44c.23,1.04.3,2.39.23,4.04-.08,1.65.03,3.11.3,4.36.23,1.04.79,2.12,1.69,3.23l5.87-1.61.45.56c-1.49,1.2-2.58,2.2-3.27,3.01.35,5.6.51,9.83.48,12.67,1.34.15,2.11-.57,2.32-2.14.2-1.57.82-2.47,1.87-2.7,1.01.65,1.52,1.69,1.5,3.11-.01,1.43.02,2.34.11,2.76.09.42.56,1.08,1.42,1.98.85.91,1.35,1.67,1.48,2.3.18.84.13,1.61-.15,2.32-3.66,1.24-6.64,2.11-8.93,2.61-2.5.55-6.3,1.16-11.39,1.84-4.68.59-8.16,1.13-10.45,1.63-1.46.32-3.6,1.01-6.43,2.06-1,.44-2.33.84-4,1.2-2.08.46-3.92.31-5.5-.43-1.59-.74-3.38-2.21-5.38-4.39l-18.92-22.07c-.6-.74-2.11-3.14-4.52-7.2-.25-.16-.42-.4-.48-.71-.07-.31-.23-.55-.48-.71-1.14-.19-1.99-.6-2.56-1.24-.58-.64-1.12-1.61-1.62-2.92-.51-1.31-.93-2.25-1.28-2.83l4.26,3,.87-.52c-.44-.99-1.01-2.12-1.72-3.39-.72-1.26-1.44-2.58-2.17-3.95-.16.26-.45.43-.87.52l-.36,4.34c-2.4-1-4.51-2.4-6.32-4.19-1.81-1.78-3.74-3.87-5.79-6.27-2.05-2.39-3.68-4.32-4.88-5.81-5.47-6.01-11.37-13.02-17.7-21.02-.25-.16-.83-.8-1.73-1.92-.65-.95-.83-1.78-.55-2.5.28-.72.94-1.19,1.98-1.42.42-.09,1.11-.19,2.07-.29.96-.1,1.91-.47,2.87-1.12l-1.84-.91c-3.1-.19-5.4-.23-6.91-.13-1.97,0-4.1-1.28-6.41-3.84-1.71-1.81-1.4-3.4.92-4.79.37-.3.92-.53,1.65-.69.73-.16,1.36-.51,1.9-1.07.53-.55.71-1.25.53-2.08l-.07-.31c-.18-.83-.62-1.34-1.31-1.51-.69-.18-1.51-.16-2.45.04-.94.21-1.74.27-2.41.2-5.7-.06-9.56-2.27-11.61-6.63-.65-.95-.8-1.9-.46-2.85.34-.94.92-1.51,1.76-1.7l.62-.14c1.67-.36,3.69-.59,6.08-.68,2.38-.08,4.22-.16,5.52-.23,1.62-2.54,2.75-3.88,3.38-4.02s2.01.21,4.16,1.05l-2.1,5.37c2.68.29,5.13.51,7.36.68l.97-9.06c-1.66-1.6-3.74-2.13-6.24-1.58-1.04.23-2.44.59-4.19,1.08-1.75.5-3.59.79-5.54.88-1.94.1-3.87-.19-5.76-.87-.53.56-1.14,1.29-1.81,2.2-.67.92-1.32,1.44-1.95,1.57-.37.3-1.07.35-2.1.13-1.03-.21-1.88-.35-2.55-.42l-2.77-.7c-2.85-.03-4.1,1.23-3.76,3.77l1.2,4c.29,2.34.94,5.8,1.95,10.38.23,1.04.78,2.56,1.65,4.55.6.74.97,1.43,1.1,2.05l5.24,22.44c1.33,4.08,2.2,7.05,2.61,8.93,1.14,3.25.22,5.52-2.76,6.83.21-2.01.2-4.08-.05-6.21l-4.03-.43c-.02-1.09-.26-2.67-.71-4.76l3.07-3.95c-1.57-1.18-2.88-1.66-3.92-1.44-.83.18-1.7.7-2.61,1.55.9,1.11,2.16,2.37,3.77,3.76-.28.72-1.71,2.67-4.29,5.85-3.11,3.74-5.06,6.79-5.86,9.14l-.67-9.03-5.91,2.93c-.35-.58-.43-1.71-.25-3.38.18-1.68.2-2.83.06-3.45-.27-1.25-1.34-2.11-3.19-2.58l.07.31c-.46-2.08-1.01-3.6-1.65-4.55-.65-.95-1.93-1.32-3.85-1.12-.03.88-.21,2.56-.54,5.03l-5.63,1.23c.22,3.01.33,5.5.32,7.46,1.04-.23,1.86-.95,2.47-2.18.6-1.22,1.22-1.9,1.85-2.04.62-.14,1.17-.14,1.63-.03.73,1.37.64,3.19-.28,5.47-.92,2.28-1.27,3.94-1.04,4.98.34,2.55.75,4.7,1.25,6.44.49,1.75.9,3.36,1.22,4.81,2.41-.96,4.61-1.88,6.6-2.76-.18-.83-.46-1.59-.83-2.28-.37-.68-.62-1.34-.76-1.96-.36-1.67.21-3,1.75-3.99,2.75,1.58,4.37,2.54,4.88,2.86,2.36.79,3.83,2.55,4.43,5.25l.27,1.25.74,6.39c-2.87-1.12-5.58-2.05-8.15-2.8.64.96,1.2,1.76,1.68,2.42.47.66.88,1.28,1.23,1.86,1.04,1.74,1.58,2.71,1.62,2.92l-.11,1.01c-.35,1.39-.25,3.33.29,5.83.37,1.67.97,3.67,1.8,5.99.84,2.33,1.31,4.25,1.42,5.75.34,2.55,1.93,3.84,4.78,3.87.88.03,1.88.14,3.02.32,1.13.19,2.45.23,3.96.12.42-.09,1-.16,1.75-.22.75-.05,1.42.02,2.01.22.59.2,1.02.92,1.29,2.17l.27,1.25c1.56-3.83,2.25-6.17,2.07-7-.23-1.04-1.68-1.7-4.37-1.99l.29-4.65.69.18,2.92-1.62-.52-.87c-.37.3-.8.62-1.27.93-.48.32-1,.66-1.58,1l-.18.69c-1.58.79-2.83.78-3.77,0-.94-.78-1.84-2.16-2.71-4.16l-1.34,5.86-4.79-.92,3.46-6.65-1.94-2.85c2.35-4.23,3.21-7.8,2.57-10.72-.41-1.88-1.22-3.55-2.41-5.04,3.82-1.49,6.2-.59,7.14,2.7.32,1.46.38,3.74.19,6.84-.15,1.34-.15,2.33,0,2.95.18.83.7,1.7,1.55,2.61,1.54-4.92,2.17-7.03,1.89-6.31,5.1,4.35,8.27,9.33,9.5,14.96.23,1.04.41,2.86.54,5.45.02,1.09.18,2.09.49,3,.31.92.53,1.69.67,2.31,2.15,7.83,3.55,13.75,4.21,17.75,1.05,4.8-.93,7.74-5.93,8.83l-11.25,2.46-10.63,2.33c-.62-1.83-1.22-4.1-1.82-6.81.91-2.82,1.16-5.17.75-7.04-.23-1.04-.52-1.85-.86-2.43-1.88.41-2.65,1.35-2.33,2.8l.21.94,2.24,5.73c-1.26,4.21-4.19,6.81-8.77,7.82-3.55.78-5.61-.19-6.2-2.9-.18-.83-.22-1.48-.1-1.94l.38-10.24c1.1-17.93,1.91-29.68,2.44-35.26.23-.92.48-1.79.74-2.62.26-.82.5-1.69.74-2.62-.07-1.3-.68-2.58-1.83-3.86-2.18,9-3.55,17.98-4.09,26.94-.55,8.97-.79,20.1-.71,33.41-4.14.04-6.6-1.72-7.38-5.26l-.21-.94c-.25-2.13-.81-4.68-1.68-7.66-.87-2.97-1.53-5.5-1.99-7.59-.96-4.38-1.35-7.67-1.18-9.9.11-.46.09-.84-.08-1.13-.18-.29-.28-.54-.33-.75-1.33-4.07-3.16-10.45-5.49-19.11-.71-2.24-1.59-5.76-2.64-10.56l-3.01-13.75c-.82-3.75-1.01-6.11-.57-7.08.44-.97,2.36-2.16,5.77-3.56l-.76-.49c-4.8,1.05-7.62-.4-8.49-4.37-.14-.62-.23-2.02-.26-4.2.11-.46.21-1.03.28-1.7.07-.67.04-1.32-.1-1.94-.14-.62-.51-1.31-1.1-2.05-.35-.58-.61-1.28-.79-2.12-.18-.83-.32-1.46-.41-1.88-.41-1.88-.33-3.25.24-4.15.57-.89,1.79-1.54,3.67-1.95l9.34-.73c.55.53,1.06,1.35,1.52,2.45.46,1.1.98,1.97,1.55,2.61.58.64,1.28.87,2.12.68l1.5-.65c-.02-1.09-.26-2.67-.71-4.76-.73-3.33-2.47-5.79-5.22-7.38-1.49,3.17-3.49,5.02-5.99,5.57-1.67.37-3.58.35-5.74-.05-2.17-.4-3.58-.63-4.25-.71-.3-.37-.62-.85-.97-1.43-.35-.58-.61-1.29-.79-2.12l-5.17-22.13c-.5-2.29-.59-3.69-.26-4.2.33-.51,1.72-1.14,4.17-1.9,3.54-.77,6.47-1.85,8.79-3.23-4.18-2.14-7.83-2.87-10.96-2.19-.84.18-2.04.67-3.61,1.45l-2.23-8.68c-.58-1.62-1.27-4.31-2.09-8.06l-8.43-35.5c-.64-2.92-.67-4.77-.07-5.55.59-.78,2.34-1.5,5.27-2.13,12.92-2.83,32.56-6.91,58.91-12.24,3.54-.77,6.36.14,8.46,2.73l45.58,52.59,28.98,33.62,10.85,13.68,7.64,9.47c.39.79,1.08,1.73,2.09,2.82,1,1.09,1.91,1.99,2.72,2.68l.29-4.65c-2.43-9.08-4.14-15.91-5.14-20.5l-10.47-47.83-11.13-46.37c-1-4.58-1.63-7.94-1.88-10.07-.16-1.71-.1-2.93.19-3.64.28-.72,1.05-1.21,2.3-1.49l.94-.21c.63-.14,1.72-.38,3.28-.72,1.56-.34,3.2-.59,4.91-.75,1.71-.15,3.43.23,5.17,1.16-.07.67-.28,2.25-.61,4.72,1.36,1.23,2.76,1.91,4.21,2.03,1.45.12,3.23.06,5.36-.19,2.13-.25,3.63-.36,4.51-.33,1.5-.11,3.82-.51,6.95-1.19.32-.51.72-1.68,1.19-3.54.62-.14.96-.1,1.01.11,1.68.73,2.95.99,3.78.81,1.04-.23,1.74-1.04,2.09-2.42.23-.92.33-1.71.3-2.36-.03-.65-.09-1.18-.19-1.6-.27-1.25-.32-2.22-.15-2.92.17-.69.89-1.18,2.14-1.45,3.12-.68,5.1-.13,5.93,1.65.6.74,1.06,1.85,1.38,3.3.57,1.63,1.24,3.66,1.99,6.12.75,2.46,1.5,5.35,2.23,8.68.18.83.13,4.12-.13,9.86,1.18.4,2.04,1.08,2.58,2.06.54.98,1.04,2.51,1.5,4.59l16.08,73.46c.32,1.46.59,3.42.8,5.89.21,2.47.39,4.56.55,6.27.91,4.17,1.7,7.27,2.37,9.31.09.42.22.99.38,1.72.16.73.2,1.43.13,2.1-.07.67-.56,1.43-1.46,2.29-2.4-1-4.3-2.44-5.7-4.32-1.39-1.88-2.57-4.24-3.52-7.09-.95-2.85-1.72-5.08-2.29-6.71.14.62.16,1.22.06,1.79-.1.57-.07,1.16.06,1.79l1.61,5.87c.46,2.09.4,3.57-.17,4.46-.57.89-2.06,1.82-4.47,2.78-.51-.32-.83-.8-.97-1.43l-2.18-2.47c.11,1.51.09,2.93-.05,4.27-.26,1.81-.47,2.84-.63,3.09-1.37.74-2.21,1.63-2.53,2.68-.32,1.05-.37,2.32-.15,3.8.21,1.48.39,2.53.53,3.16.68,3.13,1.1,5.55,1.26,7.26.5,2.3-.42,4.57-2.76,6.83-.79.39-1.45,1.14-1.97,2.23-.53,1.1-.95,1.9-1.28,2.41l-3.78-.81c.17,2.8,1.75,4.53,4.74,5.19l-1.33,2.91c-3.33.73-5.4,1.29-6.18,1.68-.79.39-1.62,1.56-2.51,3.5l8.38-5.11,7.82-1.71c.32,1.46.08,2.6-.72,3.43-.8.83-1.37,1.5-1.69,2.01l-3.17,4.95c-.37.3-1,.66-1.89,1.07-.89.42-1.25,1.04-1.07,1.87.18.83.42,1.44.72,1.81l1.92-4.68ZM684.25,259.89l-.45-.56c-.25-.16-.54.01-.87.52l.76.49.56-.45ZM713.41,258.42l.42-1.08c-1.02-.65-1.76-1.03-2.22-1.15l-9.27,1.05-11.15,1.46-.04,1.32c4.97-.21,12.39-.75,22.25-1.6ZM704.77,290.77c.42-.09.99-.22,1.72-.38.73-.16,1.47-.49,2.24-.98.76-.49,1.24-1.3,1.43-2.44-.46-.11-1.33-.31-2.58-.58-1.26-.27-2.07-.69-2.41-1.27-.99-1.53-1.91-2.2-2.74-2.02-.42.09-.95.43-1.58,1-.64.58-1.14,1.02-1.51,1.31l5.43,5.36ZM716.91,326.77c-1.24-3.66-1.99-6.11-2.27-7.37-.39-.78-.83-1.56-1.33-2.33-.49-.76-1.16-1.06-1.99-.87l-.31.07c-1.42.53-2.88.58-4.39.14-1.52-.43-3.12-1.01-4.8-1.73l.19,6.84,7.22.06.67,6.08c2.08-.46,4.42-.75,7.01-.88ZM709.48,270.42l-.07-.31c.92.24,1.47.23,1.63-.03.95-.64,1.67-1.35,2.16-2.11-1.11-1.07-1.89-1.66-2.35-1.78-1.55-.1-3.83-.03-6.84.19-.42.09-.8.34-1.15.74-.35.4-.61.74-.77.99.27,1.25.87,1.99,1.8,2.23,1.13.19,3,.22,5.59.09ZM705.71,311.53l.04-1.32-2.77-.7c.05.21-.1.57-.42,1.08l3.16.95ZM711.65,331.2l.38.24.56-.45-.38-.24-.56.45ZM718.34,267.49l.8-.83c-.25-.16-.42-.4-.48-.71-.07-.31-.23-.55-.48-.71-.25-.16-.54-.21-.85-.14-.31.07-.6.02-.85-.14.09.42.03.65-.18.69l2.04,1.85ZM718.5,317.58l-.68-3.13-.94.21.68,3.13.94-.21ZM726.25,302.12c-4.26.5-7.12.9-8.58,1.22l6.52,2.83,2.06-4.05ZM717.79,299.39l.76.49.56-.45-.76-.49-.56.45ZM720.25,400.4l-.76-.49-.49.76.76.49c.42-.09.58-.34.49-.76ZM720.92,285.27l-.11,1.01c.46.12,1.21.06,2.26-.17l-.21-.94-1.94.1ZM723.17,267.09c1.54,2.07,4.19,2.69,7.94,1.86,1.88-.41,3.79-1.16,5.73-2.24-.93-.23-1.94-.61-3.03-1.14-1.1-.52-2.07-.69-2.9-.51l-.94.21c-.58.35-1.7.7-3.37,1.07l-3.44.75ZM723.77,317.73c.9,1.11,1.68,2.2,2.35,3.25.67,1.06,1.43,2.04,2.28,2.94.55.53,1.62,1.4,3.19,2.58,1.57,1.19,3.07,2.06,4.5,2.62,1.43.56,2.56.48,3.38-.25.83-.72,1.26-1.96,1.31-3.73.03-2.84-1.25-4.2-3.84-4.07-1.09.02-2.68.26-4.76.71-.62-1.83-.5-3.27.36-4.34.86-1.06,2.36-2.16,4.52-3.28l-11.97-2.29c-.24.93-.46,1.9-.67,2.93-.21,1.03-.44,2.01-.67,2.93ZM727.49,328.71l.16,5.21c-1.15-1.27-1.5-2.34-1.03-3.21.47-.87.78-1.42.94-1.68l-.07-.31ZM728.84,240.63l-.76-.49c.09.42-.07.67-.49.76l.38.24.87-.52ZM729.32,308.66c-.33.51-.46.87-.42,1.07.05.21.17.29.38.24.21-.04.44.02.69.18l.11-1.01-.76-.49ZM731.77,301.9c-.25-.16-.4-.35-.45-.56-.04-.21-.18-.29-.38-.24l-.87.52c.25.17.41.35.45.56.05.21.17.29.38.24l.87-.52ZM730.13,304.88l.21.94,3.13-.68-.14-.62-3.19.37ZM731.54,396.62c1.16-.69,2.48-1.63,3.97-2.83.37-.3.6-.73.7-1.3.09-.56.01-.93-.24-1.09-1.27-.81-2.19-1.04-2.77-.7-1.04.23-1.66.64-1.86,1.23-.2.59-.2,1.35,0,2.29.21.94.27,1.74.2,2.41ZM734.22,371.46l-.76-.49-.49.76c.05.21.13.36.26.43.13.09.29.1.5.05l.49-.76ZM734.29,274.49c.81.7,1.52,1.2,2.13,1.5.61.31,1.33.36,2.17.18,1.04-.23,2.41-.96,4.1-2.21-.67-.07-1.68-.18-3.02-.32-1.34-.14-2.54-.1-3.58.13l-1.81.72ZM735.58,283.38l-1.04,1.21c.42-.09.7-.04.85.14.15.19.33.26.54.21l.56-.45c-.09-.42-.39-.79-.9-1.11ZM734.57,383.51c.25.17.69.18,1.32.04l.39-2.71c-.25-.16-.59-.2-1.01-.11l-.7,2.77ZM736.33,297.3c.05.21.32.48.83.8.95-.64,1.53-1.26,1.72-1.85.2-.59.37-1.55.51-2.9l-3.07,3.95ZM744.16,303.12l-4.38.96c.76.49,1.66.62,2.71.39.83-.18,1.39-.63,1.67-1.35ZM740.03,390.5c1.85.47,3.29.59,4.34.36,1.46-.32,2.78-1.26,3.97-2.83-1.6-.31-3.02-.32-4.27-.05-1.46.32-2.81,1.16-4.04,2.52ZM744.73,265.32c.34,2.55,1.03,3.71,2.07,3.48.41-.09,1-.43,1.74-1.04l-3.81-2.44ZM751.58,404.35c-.74.6-1.29,1.1-1.64,1.5-.35.4-.45.92-.32,1.54l.72,1.81,1.23-4.86ZM757.71,351.58l3.44,9.73c-.3-.37-.95-1.1-1.95-2.19-1.01-1.09-1.64-2.26-1.92-3.51-.23-1.04-.09-2.38.43-4.02ZM759.42,404.27l-.31.07.21.94.63-.14c-.26-.16-.43-.45-.52-.87ZM785.67,304.19l-.27-1.25c-.72-.28-1.47-.71-2.25-1.31-.78-.59-1.41-.95-1.87-1.06-1.73-.93-3.71-1.48-5.93-1.65-2.06-.42-3.19.37-3.41,2.38-.19,1.14.09,2.17.84,3.09.75.93,1.56,1.41,2.44,1.43l10.45-1.63ZM783.84,310.81l1.04-1.21-.9-1.11-.15,2.33ZM785.59,285.86l-1.32-.04-.11,1.01,1.01.11c.42-.09.56-.45.42-1.07ZM807.23,312.9l-.94.21c.23,1.05.3,1.9.23,2.57l1.01.11-.3-2.88ZM816.6,182.11l-1.46-.66c-.93,1.73-1.05,4.16-.37,7.29.56-1.43.93-2.71,1.12-3.85.19-1.13.42-2.06.7-2.77ZM822.47,343.63l.56-.45-2.06-6.43c-.15,1.34.04,3.16.54,5.45.05.21.21.45.48.71.27.27.44.51.48.71ZM827.05,357.04l-.14-.63-.38-.24-.24.38.76.49ZM827.72,373.6l-.76-.49-.49.76.38.24c.42-.09.71-.26.87-.52ZM838.11,271.41l-1.21-1.04c-.37.3-.94.7-1.71,1.19-.77.5-1.31,1-1.64,1.5-.16.26-.16.75,0,1.48.16.73.18,1.33.06,1.79.41-.09,1-.16,1.75-.22.75-.05,1.21-.21,1.37-.46.33-.51.78-1.92,1.37-4.23ZM838.31,230.42l-.9-1.11c-1.88.41-2.94.81-3.18,1.19s-.33,1.77-.24,4.15l4.32-4.22ZM834.95,349.74l-.94.21,1.62,2.92.87-.52-1.55-2.61ZM837.63,282.66l-1.14-.73-.49.76.9,1.11.73-1.14ZM838.86,222.44l-.21-.94c-.42.09-.71.27-.87.52l.52.87.56-.45ZM846.82,315.69l1.56-.34c.23-.92.2-1.57-.1-1.94l-5.75-15.78c-.83-1.78-1.95-4.92-3.37-9.42l-1.18.59,8.83,26.89ZM841.24,225.85c-.04-.21.03-.33.24-.38.21-.05.29-.17.24-.38l-.21-.94-.8.83c.09.42.26.71.52.87ZM845.33,371.71l-.5-6.77c-1.44,1.41-2.02,2.74-1.75,3.99.23,1.04.97,1.97,2.25,2.78ZM843.17,363.34c.42-.09,1.07-.34,1.96-.76.89-.41,1.42-.75,1.58-1,.35-1.39.48-2.29.39-2.71-.23-1.04-1.06-1.84-2.49-2.4-.15,1.34-.63,3.63-1.44,6.87ZM847.07,336.28l-1.63.03-.25,3.33,1.32.04c.11-.46.31-1.59.57-3.4ZM848.5,377.24c-.51-.32-.79-.59-.83-.8-.33.51-.46.87-.42,1.07l.76.49c-.09-.42.07-.67.49-.76ZM848.96,211.71c-.51-.32-.87-.46-1.07-.42-.04-.21-.1-.19-.16.03-.06.23-.2.37-.4.42l1.14.73.49-.76ZM849.04,240.52c.14-1.34.1-2.53-.13-3.58l-1.25.27c.78,1.58,1.24,2.68,1.38,3.3-.35,1.39-.39,2.71-.12,3.96.23,1.05,1.38,3.3,3.45,6.78.74-5.62,1.39-9.58,1.98-11.9.35-1.39.39-2.71.12-3.96-.5-2.29-2.34-4.18-5.5-5.68l.78,5.07c.96,2.41.73,4.32-.71,5.72ZM857.82,184.88l-.53,2.08,1.59,1.29c.16-.25.34-.45.52-.61.18-.15.36-.35.52-.61-.09-.42-.33-.75-.71-.99s-.85-.63-1.4-1.17ZM860.45,222.3c-1.65,1.46-2.57,2.48-2.77,3.06-.2.59-.3,1.87-.31,3.83,1.25-2.24,2.28-4.54,3.08-6.9ZM867.1,194.31l1.25-.27-6.81-19.15-.94.21c.52,3.38,1.59,7.02,3.21,10.93,1.62,3.9,2.71,6.67,3.29,8.29ZM861.53,361.94l.38.25.24-.38-.38-.24-.24.38ZM865.98,240.09l-1.56.34,1.83,3.86.94-.21c-.39-.78-.79-2.12-1.2-4ZM867.02,262.79l1.46.66c.62-.14.89-.41.8-.83-.25-.16-.4-.35-.45-.56-.04-.21-.18-.29-.38-.24-.26-.16-.5-.05-.75.33-.24.38-.47.6-.68.64ZM869.98,270.33c-.93-.23-1.47-.22-1.63.03-.21.05-.28.23-.21.54.07.31.02.6-.14.85.21-.04.44.02.69.18.25.17.46.12.63-.14.21-.04.43-.53.66-1.46ZM870.38,254.2l-1.32-.04c.27,1.25.35,2.11.23,2.57l1.01.11.08-2.64ZM871.67,207.73l-1.18.59,1.69,3.23.56-.45c-.32-1.46-.68-2.58-1.07-3.37ZM876.66,275.42l-.75-3.44-.94.21,1.69,3.23,1.37,6.25c.6-1.22.79-2.35.57-3.4-.27-1.25-.92-2.2-1.94-2.85ZM876.23,369.21l-.98,1.52c.05.21.45.56,1.21,1.05l.73-1.14-.97-1.43ZM877.89,228.64l-.45-.56c-.33.51-.46.87-.42,1.07l.76.49.11-1.01ZM879.79,261.31c.19-1.13.2-1.84.02-2.13-.18-.29-.85-.63-2.03-1.03.85.91,1.52,1.96,2,3.16ZM882.64,262.32c.52,1.42.81,3.21.85,5.38.04,2.18.24,4.1.61,5.76.55,2.5,1.72,4.86,3.52,7.09-.2-3.89-.59-7.19-1.18-9.9-.96-4.38-2.22-7.16-3.79-8.34ZM882.97,311.71l-.14-.62.25-.38.52.87-.63.14ZM885.1,384.3c-.25-.16-.43-.45-.52-.87l-.49.76c.09.42.26.71.52.87l.49-.76ZM899.54,384.41c-.67-.07-1.19-.18-1.54-.32-.36-.14-.67-.29-.92-.45-.21.05-.29-.04-.22-.28.06-.23.06-.45.02-.66l2.64.08.03,1.63ZM903.5,381.58c1.34.15,2.37.36,3.09.64.05.21.08.37.1.47.02.11-.07.18-.28.22-1.25.27-2.21.38-2.88.3.16-.25.15-.8-.03-1.63Z"/><path class="cls-1" d="M910.56,202.82c-.14-.62-.38-1.5-.74-2.62-.36-1.12-.52-2.12-.49-3-.02-1.08-.2-2.14-.53-3.16-.33-1.02-.92-1.98-1.78-2.89-.51-.32-.82-.97-.91-1.93-.1-.96-.2-1.65-.29-2.07-.79-6.59-3.98-10.7-9.58-12.32-1.85-.46-3.55-1.73-5.09-3.8-1.55-2.06-2.59-4.35-3.14-6.85-.27-1.25-.34-2.55-.2-3.89.4-1.18.98-2.02,1.74-2.51.76-.49,1.98-.92,3.65-1.29l22.96-4.37c2.92-.64,5.13-1.01,6.63-1.12l7.26-1.26c2.5-.55,4.31-.5,5.43.12,1.12.63,2.08,2.28,2.88,4.94l3.83,17.5c.5,2.3,1.02,3.93,1.56,4.9.54.98,1.39,2.1,2.54,3.38l-5.97-31.78,1.25-.27c1.04,1.74,1.58,2.72,1.62,2.92l4.87,19.24,1.61,5.87c.16-.25.56-.45,1.18-.59l.02-16.38c.51.33,1.07.64,1.68.94.61.31.94.56.99.77,1.56,3.15,2.51,5.46,2.82,6.92l22.97,100.45c.41,1.88.77,4.53,1.09,7.95l-1.25.27c-.48-1.2-1.02-2.4-1.6-3.58-.59-1.18-1.15-2.48-1.67-3.89l-7.11-24.98c-1.88-6.58-3.18-11.53-3.91-14.87-1.37-6.25-2.32-11.07-2.84-14.45,0-1.97-1.15-3.24-3.46-3.83,1.16,6.3,3.31,15.65,6.47,28.07,1.35,5.17,3.16,12.96,5.44,23.38-1,.44-1.74.54-2.22.32-.49-.22-.98-.71-1.47-1.48-.49-.76-.97-1.2-1.44-1.32l-1.5,3.6c-2.13-1.71-3.7-2.9-4.71-3.56-.98,1.52-1.89,2.38-2.71,2.56-.83.18-1.68-.18-2.53-1.08-.81-.69-1.12-1.39-.95-2.09.17-.69.47-1.36.87-1.99.41-.63.65-1.29.72-1.96-2.36-.79-3.76-2.23-4.22-4.32-.23-1.04-.29-1.79-.17-2.26-.16-1.71-.58-4.13-1.26-7.26-.23-1.04-.73-2.35-1.51-3.93-.25-.16-.8-.15-1.63.03-.47,1.85-.59,3.3-.36,4.34l3.95,13.55c.46,2.09.57,3.59.33,4.51-.44.97-1.62,2.1-3.52,3.39-.26,1.81-.9,3.37-1.92,4.68-1.02,1.32-2.44,2.56-4.26,3.72-1.82,1.17-3.21,2.07-4.16,2.71-1.44,1.41-2.53,2.41-3.27,3.01-.09-.42-.37-.68-.83-.8-.25-.16-1.12-.62-2.6-1.4l-1.24,7.81-.62.14-4.3-12.16c-.89,1.94-1.24,3.82-1.06,5.64.18,1.82.61,4.29,1.3,7.42l-8.2-9.02c-.85-.9-1.44-2.09-1.76-3.55-1.97-6.99-3.38-12.47-4.25-16.43-1.37-6.25-2.4-13.45-3.09-21.6-.09-.42-.02-1.08.22-2.01l1.11-.9,3.01,3.27c.05.21.4-2.16,1.06-7.11l3.31,6.15c.95-2.61,1.23-5.07.84-7.39-.4-2.31-.67-3.79-.8-4.41s-.32-1.68-.53-3.16c-.22-1.48-.32-2.98-.33-4.51,0-1.52.48-3.05,1.46-4.58.32-.51.53-1.53.63-3.09l-5.4-3.73c1.16-.69,2-1.36,2.5-2.02.51-.65.65-1.5.42-2.55l-.14-.63c-1.37.74-2.14,1.73-2.3,2.96-.17,1.24-.31,2.09-.42,2.55ZM903.04,196.93l-.07-.31.49-.76.14.63-.56.45ZM907.38,207.77l1.55,2.61c-.79.39-1.59.95-2.42,1.68-.82.73-1.92,1.46-3.29,2.19l2.83-6.52c.62-.14,1.06-.12,1.32.04ZM909.69,179.42c-.16.26-.56.45-1.18.59.78,1.58,1.45,2.63,2,3.17l.87-.52-1.69-3.23ZM914.34,193.14l.21-2.01-1.01-.11c-.21.05-.35.13-.44.26-.08.13-.1.3-.05.5.51.33.93.78,1.28,1.36ZM918.22,171.98c-.62.14-1.02.34-1.18.59l1.69,3.23c.16-.25.56-.45,1.18-.59l-1.69-3.23ZM919.33,239.88c.16-.25.18-.69.04-1.32l-.69-.18-.35,1.39,1.01.11ZM925.22,156.04l-1.46-.66-.35,1.39,1.14.73.66-1.46ZM930.65,182.37c2.09-2.42,2.86-4.88,2.31-7.39s-2.73-5.96-6.53-10.36c-.19,1.14-.08,2.64.33,4.51.23,1.05.81,2.72,1.75,5.02.94,2.31,1.55,4.08,1.82,5.33.27,1.25.37,2.21.3,2.88ZM934.76,198.17l-1.14-.73-.73,1.14c.14.62.52.87,1.14.73.25.17.5-.22.73-1.14ZM936.41,171.28c.72-1.68,1.01-2.84.88-3.47s-.61-1.28-1.42-1.98c-.91.85-1.24,1.8-1.01,2.84.09.42.29.81.59,1.18.3.38.62.85.97,1.43ZM936.65,368.43l.41,1.88c.05.21-.14.36-.56.45-.3-.37-.56-1.07-.79-2.12l.94-.21ZM938.01,204.01l-.76-.49-.18.69c-.16.26-.13.41.1.47.23.06.37.2.42.4.32-.51.46-.86.42-1.08ZM942.65,228.22c.22-3.98.2-6.59-.08-7.84-.36-1.67-1.52-2.94-3.46-3.83l3.54,11.67ZM940.67,184.76l1.49-.65c-.56-.53-1.18-1.38-1.87-2.54l-.87.52c.14.62.55,1.52,1.24,2.68ZM942.75,372.33c.25,2.13-.36,3.35-1.82,3.67l-.94.21c-.67-2.03.25-3.33,2.75-3.88ZM942.06,195.59l.45.56.18-.69-.76-.49.14.63ZM943.28,359.77c1.57,1.19,2.56,2.71,2.97,4.59.37,1.67,0,3.5-1.09,5.48-1.38-2.32-2.16-3.89-2.34-4.73-.36-1.67-.21-3.44.47-5.34ZM946.41,213.97l1.88-.41-2.1-5.11c-.37.3-.87.52-1.49.65.27,1.25.84,2.88,1.72,4.87ZM946.19,229.41l1.32.04-.75-3.44-.62.14c.18.83.2,1.92.06,3.26ZM948.29,189.64l-.76-.49.14.62.52.87.11-1.01ZM955.07,231.07l1.25-.27c1.33,2.11,2.53,5.56,3.58,10.35,1.09,5,2.31,8.56,3.65,10.67l-6.36-29.07-5.28,2.79c-.46-2.08-.48-5.68-.07-10.79.59-4.27.57-7.87-.07-10.79-.27-1.25-.59-2.17-.93-2.75-.61,3.19-.82,5.75-.61,7.67.11,1.51-.14,3.85-.75,7.04-.12.47-.3,2.14-.54,5.03-.24,2.89.12,5.54,1.08,7.95.84,2.88,1.93,7.33,3.26,13.37l1.25-.27.56-10.93ZM949.7,270.9l-.51-3.82c.62-.14,1.17-.14,1.63-.03l.51,3.82c-.47-.11-1.01-.11-1.63.03ZM956.99,205.43c-.07-1.3-.12-3.3-.17-6.02-.05-2.72-.28-5.02-.69-6.89-.82-3.75-2.49-6.88-5-9.39l5.86,22.3ZM964.94,359.94l2.75,6.6c-1.64-.51-2.64-1.6-3.01-3.27-.18-.83-.1-1.94.25-3.33ZM964.94,359.94l.66-1.46-.66,1.46ZM971.39,349.03l.55,2.5c-.42.09-.71.27-.87.52-.27-1.25-.59-2.17-.93-2.74l1.25-.27ZM981.08,357.39l.48,2.19-.62.14-.72-1.81c.16-.25.45-.43.87-.52ZM984.29,340.64l3.76,17.19c-2.56-2.72-4.57-7.4-6.03-14.08-.73-3.33-1.09-6.97-1.08-10.9l3.36,1.88c-.22-3.01-.38-5.7-.46-8.09.51.33,1.01.65,1.52.98.51.33.91.68,1.21,1.04,1.65,3.57,3.55,10.25,5.7,20.05,1.64,7.5,2.36,12.26,2.14,14.27-1.27-.81-2.2-1.81-2.79-2.99-.59-1.18-1.05-2.55-1.39-4.12-.34-1.56-.73-2.84-1.17-3.84l-3.22-11.74-1.56.34ZM987.08,314.47l.15-2.32c.42-.09.75-.05,1.01.11l-.46,2.39-.69-.18ZM990.94,326.08c1.72,4.86,3.15,9.91,4.29,15.11l3.72,18.51c-1.82-3.31-3.93-10.49-6.35-21.54-1.46-6.67-2.01-10.7-1.66-12.08Z"/><path class="cls-1" d="M1176.16,287.83l6.67-2.44c.23,1.04.3,2.39.23,4.04-.08,1.65.02,3.11.3,4.36.23,1.04.79,2.12,1.69,3.23l5.87-1.61.45.56c-1.49,1.2-2.58,2.2-3.27,3.01.35,5.6.51,9.83.48,12.67,1.34.15,2.11-.57,2.31-2.14.2-1.57.82-2.47,1.87-2.7,1.01.65,1.52,1.69,1.5,3.11-.02,1.43.02,2.34.11,2.76.09.42.56,1.08,1.42,1.98.85.91,1.35,1.67,1.48,2.3.18.84.13,1.61-.15,2.33-3.66,1.24-6.64,2.11-8.93,2.61-2.5.55-6.3,1.16-11.39,1.84-4.68.59-8.16,1.13-10.45,1.63-1.46.32-3.6,1.01-6.43,2.06-1,.44-2.33.84-4,1.2-2.09.46-3.92.31-5.5-.43-1.59-.74-3.38-2.21-5.38-4.39l-18.92-22.07c-.6-.74-2.11-3.14-4.52-7.2-.25-.16-.42-.4-.48-.71-.07-.31-.23-.55-.48-.71-1.14-.19-1.99-.6-2.56-1.24-.58-.64-1.12-1.61-1.62-2.92-.51-1.31-.93-2.25-1.28-2.83l4.26,3,.87-.52c-.44-.99-1.01-2.12-1.73-3.39-.72-1.26-1.44-2.58-2.17-3.95-.16.26-.46.43-.87.52l-.36,4.34c-2.4-1-4.51-2.4-6.32-4.18-1.81-1.78-3.75-3.87-5.79-6.27-2.05-2.39-3.68-4.32-4.88-5.81-5.47-6.01-11.37-13.02-17.71-21.02-.25-.16-.83-.8-1.73-1.91-.65-.95-.83-1.78-.55-2.5.28-.72.94-1.19,1.98-1.42.42-.09,1.11-.19,2.07-.29.96-.1,1.91-.47,2.87-1.12l-1.84-.91c-3.1-.19-5.41-.23-6.91-.13-1.97,0-4.1-1.28-6.41-3.84-1.71-1.81-1.4-3.4.92-4.79.37-.3.92-.53,1.65-.69.73-.16,1.36-.51,1.89-1.07.53-.55.71-1.25.53-2.08l-.07-.31c-.18-.83-.62-1.34-1.31-1.51s-1.51-.16-2.45.04c-.94.21-1.74.27-2.41.2-5.7-.06-9.56-2.27-11.61-6.63-.65-.95-.8-1.9-.46-2.85.34-.94.92-1.51,1.76-1.7l.62-.14c1.67-.36,3.69-.59,6.08-.67,2.38-.08,4.22-.16,5.52-.23,1.63-2.54,2.75-3.88,3.38-4.02.63-.14,2.01.21,4.16,1.05l-2.1,5.37c2.68.29,5.13.51,7.36.68l.97-9.06c-1.66-1.6-3.74-2.13-6.24-1.58-1.04.23-2.44.59-4.19,1.08-1.75.5-3.6.79-5.54.88-1.94.1-3.86-.19-5.76-.87-.53.56-1.14,1.29-1.81,2.2-.67.92-1.32,1.44-1.95,1.57-.37.3-1.07.35-2.1.13-1.03-.21-1.88-.35-2.55-.42l-2.77-.7c-2.85-.03-4.1,1.23-3.76,3.77l1.2,4c.29,2.34.94,5.8,1.95,10.38.23,1.04.78,2.56,1.65,4.55.6.74.97,1.43,1.11,2.05l5.24,22.44c1.33,4.08,2.2,7.05,2.61,8.93,1.15,3.25.23,5.52-2.76,6.83.21-2.01.2-4.08-.05-6.21l-4.02-.43c-.02-1.09-.26-2.67-.71-4.76l3.07-3.95c-1.57-1.18-2.88-1.66-3.92-1.44-.83.18-1.71.7-2.61,1.55.9,1.11,2.16,2.37,3.77,3.76-.28.72-1.71,2.67-4.29,5.85-3.11,3.74-5.07,6.79-5.86,9.14l-.67-9.03-5.91,2.93c-.35-.58-.43-1.71-.25-3.38.17-1.68.2-2.83.06-3.45-.27-1.25-1.34-2.11-3.19-2.58l.07.31c-.46-2.08-1.01-3.6-1.65-4.55-.65-.95-1.93-1.32-3.85-1.12-.03.88-.21,2.56-.54,5.03l-5.63,1.23c.22,3.01.33,5.5.32,7.46,1.04-.23,1.87-.95,2.47-2.18.6-1.22,1.22-1.9,1.85-2.04.62-.14,1.17-.14,1.63-.03.73,1.37.64,3.19-.28,5.47-.92,2.28-1.27,3.94-1.04,4.98.34,2.55.75,4.7,1.25,6.44.49,1.75.9,3.36,1.22,4.81,2.41-.96,4.61-1.88,6.6-2.76-.18-.83-.46-1.59-.83-2.28-.37-.68-.62-1.34-.76-1.96-.36-1.67.21-3,1.75-3.99,2.75,1.58,4.37,2.54,4.89,2.86,2.35.79,3.83,2.55,4.42,5.26l.27,1.25.74,6.39c-2.87-1.12-5.58-2.05-8.15-2.8.64.95,1.21,1.76,1.68,2.42.47.66.88,1.28,1.23,1.86,1.04,1.74,1.58,2.72,1.62,2.92l-.11,1.01c-.35,1.39-.25,3.33.29,5.83.37,1.67.97,3.67,1.8,5.99.84,2.33,1.31,4.25,1.42,5.75.34,2.55,1.93,3.84,4.78,3.87.88.03,1.88.14,3.02.32,1.13.19,2.45.23,3.96.12.42-.09,1-.16,1.75-.22.75-.05,1.42.02,2.01.22.59.2,1.02.92,1.29,2.17l.27,1.25c1.56-3.83,2.25-6.17,2.07-7-.23-1.04-1.68-1.7-4.37-1.99l.29-4.65.69.18,2.92-1.62-.52-.87c-.38.3-.8.61-1.27.93-.48.32-1,.66-1.58,1l-.17.69c-1.58.79-2.83.78-3.77,0-.94-.78-1.84-2.16-2.71-4.16l-1.34,5.86-4.79-.92,3.46-6.65-1.93-2.85c2.35-4.23,3.21-7.8,2.57-10.72-.41-1.88-1.22-3.55-2.41-5.04,3.82-1.49,6.2-.59,7.14,2.69.32,1.46.38,3.74.19,6.84-.15,1.34-.15,2.33,0,2.95.18.84.7,1.7,1.55,2.61,1.54-4.92,2.17-7.03,1.89-6.31,5.1,4.35,8.27,9.33,9.5,14.96.23,1.04.41,2.86.54,5.45.02,1.09.18,2.09.49,3,.31.92.53,1.69.67,2.31,2.15,7.83,3.55,13.75,4.21,17.75,1.05,4.8-.93,7.74-5.93,8.83l-11.25,2.46-10.63,2.33c-.62-1.83-1.22-4.1-1.82-6.81.91-2.82,1.16-5.17.75-7.04-.23-1.04-.52-1.85-.86-2.43-1.88.41-2.65,1.35-2.33,2.8l.21.94,2.24,5.73c-1.27,4.21-4.19,6.81-8.77,7.82-3.55.78-5.61-.19-6.2-2.9-.18-.83-.22-1.48-.1-1.94l.38-10.24c1.1-17.93,1.91-29.68,2.44-35.26.23-.92.48-1.79.74-2.62.26-.82.5-1.69.74-2.62-.07-1.3-.68-2.58-1.83-3.86-2.18,8.99-3.55,17.98-4.09,26.94-.55,8.97-.79,20.1-.71,33.41-4.14.04-6.6-1.72-7.38-5.27l-.21-.94c-.25-2.13-.81-4.68-1.68-7.66-.87-2.97-1.53-5.5-1.99-7.59-.96-4.38-1.35-7.67-1.18-9.9.11-.46.09-.84-.08-1.13-.18-.29-.28-.54-.33-.75-1.33-4.07-3.16-10.45-5.49-19.11-.71-2.24-1.59-5.76-2.64-10.56l-3.01-13.75c-.82-3.75-1.01-6.11-.57-7.08.44-.97,2.36-2.16,5.77-3.56l-.76-.49c-4.8,1.05-7.62-.4-8.49-4.37-.14-.62-.23-2.02-.26-4.2.11-.46.21-1.03.28-1.7.07-.67.04-1.32-.1-1.94-.14-.62-.51-1.31-1.1-2.05-.35-.58-.61-1.29-.79-2.12-.18-.83-.32-1.46-.41-1.88-.41-1.88-.33-3.25.24-4.15.57-.89,1.79-1.54,3.67-1.95l9.34-.73c.55.53,1.06,1.35,1.52,2.45.46,1.1.97,1.97,1.55,2.61.58.64,1.28.87,2.12.68l1.5-.65c-.02-1.09-.26-2.67-.71-4.76-.73-3.33-2.47-5.79-5.22-7.38-1.49,3.17-3.49,5.02-5.99,5.57-1.67.37-3.58.35-5.74-.05-2.17-.4-3.58-.63-4.25-.71-.3-.37-.63-.85-.97-1.43-.35-.58-.61-1.29-.79-2.12l-5.17-22.13c-.5-2.29-.59-3.69-.26-4.2.32-.51,1.72-1.14,4.17-1.9,3.54-.77,6.47-1.85,8.79-3.23-4.18-2.14-7.83-2.87-10.96-2.19-.84.18-2.04.67-3.62,1.45l-2.23-8.68c-.57-1.62-1.27-4.31-2.09-8.06l-8.43-35.5c-.64-2.92-.66-4.77-.07-5.55.59-.78,2.34-1.5,5.26-2.13,12.92-2.83,32.56-6.91,58.91-12.24,3.54-.77,6.36.14,8.46,2.73l45.58,52.59,28.98,33.62,10.85,13.68,7.64,9.46c.39.79,1.08,1.73,2.09,2.82,1,1.09,1.91,1.99,2.72,2.68l.29-4.65c-2.43-9.08-4.14-15.91-5.14-20.5l-10.47-47.83-11.13-46.37c-1-4.58-1.63-7.94-1.88-10.07-.16-1.71-.1-2.93.18-3.64.28-.72,1.05-1.21,2.3-1.49l.94-.21c.62-.14,1.72-.38,3.28-.72,1.56-.34,3.2-.59,4.91-.75,1.71-.15,3.43.23,5.17,1.16-.07.67-.28,2.25-.61,4.72,1.36,1.23,2.76,1.91,4.21,2.03,1.44.12,3.23.06,5.36-.19,2.13-.24,3.63-.35,4.51-.33,1.5-.11,3.82-.51,6.95-1.19.32-.51.72-1.68,1.19-3.54.62-.14.96-.1,1.01.11,1.68.73,2.95.99,3.78.81,1.04-.23,1.74-1.04,2.09-2.42.23-.92.33-1.71.3-2.36-.04-.65-.09-1.18-.19-1.6-.27-1.25-.32-2.22-.15-2.92.18-.69.89-1.18,2.14-1.45,3.13-.68,5.1-.13,5.93,1.65.6.74,1.06,1.85,1.38,3.3.57,1.62,1.24,3.66,1.99,6.11.75,2.46,1.5,5.35,2.23,8.68.18.83.13,4.12-.14,9.86,1.18.4,2.04,1.08,2.58,2.06.54.98,1.04,2.51,1.5,4.59l16.08,73.46c.32,1.46.59,3.42.8,5.89.21,2.47.39,4.56.55,6.27.91,4.17,1.7,7.28,2.37,9.31.09.42.22.99.38,1.72.16.73.2,1.43.13,2.1-.07.67-.56,1.43-1.46,2.29-2.4-1-4.3-2.44-5.7-4.32-1.39-1.88-2.57-4.24-3.52-7.09-.95-2.85-1.72-5.08-2.29-6.71.14.62.15,1.23.06,1.79-.1.57-.07,1.16.06,1.79l1.61,5.87c.46,2.09.4,3.57-.17,4.46-.57.89-2.06,1.82-4.47,2.78-.51-.32-.83-.8-.97-1.43l-2.18-2.47c.11,1.51.09,2.93-.05,4.27-.26,1.81-.48,2.84-.64,3.09-1.37.74-2.21,1.63-2.52,2.68-.32,1.05-.37,2.32-.15,3.8.21,1.48.39,2.53.53,3.16.68,3.13,1.1,5.55,1.26,7.26.5,2.3-.42,4.57-2.76,6.83-.79.39-1.45,1.14-1.97,2.23-.53,1.1-.95,1.9-1.27,2.41l-3.78-.81c.17,2.8,1.75,4.53,4.74,5.19l-1.33,2.91c-3.34.73-5.4,1.29-6.18,1.68-.79.39-1.62,1.56-2.51,3.5l8.38-5.11,7.81-1.71c.32,1.46.08,2.6-.72,3.43-.8.83-1.37,1.5-1.69,2.01l-3.17,4.95c-.38.3-1,.66-1.9,1.07-.89.42-1.25,1.04-1.06,1.87.18.83.42,1.44.72,1.81l1.92-4.68ZM990.9,192.76l-.45-.56c-.25-.16-.54.01-.87.52l.76.49.56-.45ZM1020.06,191.29l.42-1.07c-1.02-.65-1.76-1.03-2.22-1.15l-9.27,1.05-11.15,1.46-.04,1.32c4.97-.21,12.39-.75,22.25-1.6ZM1011.42,223.65c.42-.09.99-.22,1.72-.38.73-.16,1.48-.49,2.24-.98.76-.49,1.24-1.31,1.43-2.44-.46-.11-1.33-.31-2.58-.58-1.26-.27-2.07-.69-2.41-1.27-.99-1.53-1.91-2.2-2.74-2.02-.42.09-.95.43-1.58,1-.64.58-1.14,1.02-1.51,1.31l5.43,5.36ZM1023.56,259.65c-1.24-3.66-1.99-6.11-2.27-7.37-.39-.78-.83-1.56-1.33-2.33-.5-.76-1.16-1.06-1.99-.87l-.31.07c-1.42.53-2.88.58-4.39.14-1.52-.43-3.12-1.01-4.8-1.73l.19,6.84,7.22.06.67,6.08c2.08-.46,4.42-.75,7.01-.88ZM1016.14,203.29l-.07-.31c.92.24,1.47.23,1.63-.03.95-.64,1.67-1.35,2.16-2.11-1.11-1.07-1.89-1.66-2.35-1.78-1.55-.09-3.83-.03-6.84.19-.42.09-.8.34-1.15.74-.35.4-.61.74-.77.99.27,1.25.87,1.99,1.8,2.23,1.13.19,3,.22,5.59.09ZM1012.36,244.41l.04-1.32-2.77-.7c.05.21-.1.57-.42,1.07l3.16.95ZM1018.31,264.07l.38.24.56-.45-.38-.24-.56.45ZM1025,200.37l.8-.83c-.25-.16-.42-.4-.48-.71s-.23-.55-.48-.71c-.25-.16-.54-.21-.85-.14-.31.07-.6.02-.85-.14.09.42.03.65-.17.69l2.04,1.85ZM1025.15,250.45l-.68-3.13-.94.21.68,3.13.94-.21ZM1032.91,235c-4.26.5-7.12.9-8.58,1.22l6.52,2.83,2.06-4.05ZM1024.45,232.26l.76.49.56-.45-.76-.49-.56.45ZM1026.9,333.27l-.76-.49-.49.76.76.49c.42-.09.58-.34.49-.76ZM1027.58,218.15l-.11,1.01c.46.12,1.21.06,2.26-.17l-.21-.94-1.94.1ZM1029.82,199.97c1.54,2.07,4.19,2.69,7.94,1.86,1.88-.41,3.79-1.16,5.73-2.24-.93-.23-1.94-.61-3.03-1.14-1.1-.52-2.07-.69-2.9-.51l-.94.21c-.58.35-1.7.7-3.37,1.06l-3.44.75ZM1030.43,250.61c.9,1.11,1.68,2.2,2.35,3.25.67,1.06,1.43,2.04,2.28,2.94.55.53,1.62,1.4,3.19,2.58,1.57,1.19,3.07,2.06,4.5,2.62,1.43.56,2.56.48,3.38-.25.83-.72,1.26-1.96,1.31-3.73.03-2.84-1.25-4.2-3.84-4.07-1.09.02-2.68.26-4.76.71-.62-1.83-.5-3.27.36-4.34.86-1.06,2.36-2.16,4.52-3.28l-11.97-2.29c-.24.93-.46,1.9-.67,2.93-.21,1.03-.44,2.01-.67,2.93ZM1034.14,261.59l.16,5.21c-1.15-1.27-1.5-2.34-1.03-3.21.47-.87.78-1.42.94-1.68l-.07-.31ZM1035.5,173.5l-.76-.49c.09.42-.07.67-.49.76l.38.24.87-.52ZM1035.98,241.53c-.33.51-.46.87-.42,1.07.05.21.17.29.38.24.21-.04.44.02.69.18l.11-1.01-.76-.49ZM1038.43,234.77c-.25-.16-.4-.35-.45-.56-.04-.21-.18-.29-.38-.24l-.87.52c.25.17.4.35.45.56.05.21.17.29.38.24l.87-.52ZM1036.78,237.75l.21.94,3.13-.68-.14-.62-3.2.37ZM1038.19,329.49c1.16-.69,2.48-1.63,3.97-2.83.37-.3.6-.73.7-1.3.09-.56.01-.93-.24-1.09-1.27-.81-2.2-1.04-2.77-.7-1.05.23-1.66.64-1.86,1.23-.2.59-.2,1.35,0,2.29.21.94.27,1.74.2,2.41ZM1040.88,304.34l-.76-.49-.49.76c.05.21.13.36.26.43.13.09.29.1.5.05l.49-.76ZM1040.94,207.36c.81.7,1.52,1.2,2.13,1.5.61.31,1.33.36,2.17.18,1.04-.23,2.41-.96,4.1-2.21-.67-.07-1.68-.18-3.02-.32-1.34-.14-2.53-.1-3.58.13l-1.81.72ZM1042.23,216.25l-1.04,1.21c.42-.09.7-.04.85.14.15.19.33.26.54.21l.56-.45c-.09-.42-.39-.78-.9-1.11ZM1041.22,316.38c.25.17.69.18,1.32.04l.39-2.71c-.25-.16-.59-.2-1.01-.11l-.7,2.77ZM1042.99,230.17c.05.21.32.48.83.8.95-.64,1.53-1.26,1.72-1.85.2-.59.37-1.55.51-2.9l-3.07,3.95ZM1050.81,235.99l-4.38.96c.76.49,1.66.62,2.71.39.83-.18,1.39-.63,1.67-1.35ZM1046.68,323.38c1.85.47,3.29.59,4.34.36,1.46-.32,2.78-1.26,3.96-2.83-1.6-.31-3.02-.32-4.27-.05-1.46.32-2.81,1.16-4.03,2.52ZM1051.39,198.2c.34,2.55,1.03,3.71,2.07,3.48.42-.09,1-.43,1.74-1.04l-3.81-2.44ZM1058.23,337.23c-.74.6-1.29,1.1-1.64,1.5-.35.4-.45.92-.32,1.54l.72,1.81,1.23-4.86ZM1064.37,284.45l3.44,9.73c-.3-.37-.95-1.1-1.95-2.19-1.01-1.09-1.64-2.26-1.92-3.51-.23-1.04-.09-2.38.43-4.02ZM1066.08,337.15l-.31.07.21.94.62-.14c-.25-.16-.43-.45-.52-.87ZM1092.32,237.06l-.27-1.25c-.72-.28-1.47-.71-2.25-1.31-.78-.59-1.41-.95-1.87-1.06-1.73-.93-3.71-1.48-5.93-1.65-2.06-.42-3.2.37-3.41,2.38-.19,1.14.09,2.17.84,3.09.75.93,1.56,1.41,2.44,1.43l10.45-1.63ZM1090.5,243.69l1.05-1.21-.9-1.11-.15,2.33ZM1092.24,218.73l-1.32-.04-.11,1.01,1.01.11c.42-.09.56-.45.42-1.07ZM1113.88,245.77l-.94.21c.23,1.05.3,1.9.23,2.57l1.01.11-.3-2.88ZM1123.25,114.98l-1.46-.66c-.93,1.73-1.05,4.16-.37,7.29.56-1.43.93-2.71,1.12-3.85.19-1.13.42-2.06.7-2.77ZM1129.13,276.5l.56-.45-2.06-6.43c-.15,1.34.04,3.16.54,5.45.05.21.21.45.49.71.27.27.44.51.48.71ZM1133.7,289.92l-.14-.63-.38-.24-.24.38.76.49ZM1134.38,306.47l-.76-.49-.49.76.38.24c.42-.09.71-.26.87-.52ZM1144.77,204.29l-1.21-1.04c-.37.3-.94.7-1.7,1.19-.77.5-1.31,1-1.64,1.5-.17.26-.16.75,0,1.48.16.73.18,1.33.06,1.79.41-.09,1-.16,1.75-.22.75-.05,1.21-.21,1.37-.46.32-.51.78-1.92,1.37-4.23ZM1144.97,163.3l-.9-1.11c-1.88.41-2.94.81-3.18,1.19-.24.38-.33,1.77-.24,4.15l4.32-4.22ZM1141.6,282.62l-.94.21,1.62,2.92.87-.52-1.55-2.61ZM1144.28,215.53l-1.14-.73-.49.76.9,1.11.73-1.14ZM1145.51,155.32l-.21-.94c-.42.09-.71.27-.87.52l.52.87.56-.45ZM1153.48,248.57l1.56-.34c.23-.92.2-1.57-.1-1.94l-5.75-15.78c-.83-1.78-1.95-4.92-3.37-9.42l-1.18.59,8.83,26.89ZM1147.9,158.73c-.04-.21.03-.34.24-.38.21-.04.29-.17.24-.38l-.21-.94-.8.83c.09.42.26.71.52.87ZM1151.98,304.59l-.5-6.77c-1.44,1.41-2.02,2.73-1.75,3.99.23,1.04.97,1.97,2.25,2.78ZM1149.82,296.21c.42-.09,1.07-.34,1.96-.76.89-.41,1.42-.75,1.58-1,.35-1.39.48-2.29.39-2.71-.23-1.04-1.06-1.84-2.49-2.4-.15,1.34-.63,3.63-1.45,6.87ZM1153.73,269.15l-1.63.03-.25,3.33,1.32.04c.11-.46.31-1.59.57-3.4ZM1155.16,310.11c-.51-.32-.78-.59-.83-.8-.33.51-.46.87-.42,1.07l.76.49c-.09-.42.07-.67.49-.76ZM1155.61,144.59c-.51-.32-.87-.46-1.07-.42-.04-.21-.1-.19-.16.03-.06.23-.2.37-.4.42l1.14.73.49-.76ZM1155.69,173.4c.14-1.34.1-2.53-.13-3.58l-1.25.27c.78,1.58,1.24,2.68,1.38,3.3-.35,1.39-.39,2.71-.12,3.96.23,1.05,1.38,3.3,3.45,6.78.74-5.62,1.39-9.58,1.98-11.9.35-1.39.39-2.71.12-3.96-.5-2.29-2.34-4.18-5.5-5.68l.78,5.07c.96,2.41.72,4.32-.71,5.72ZM1164.48,117.75l-.53,2.08,1.59,1.29c.16-.25.34-.45.52-.61.18-.15.36-.35.52-.61-.09-.42-.33-.75-.71-.99-.38-.24-.85-.63-1.4-1.17ZM1167.1,155.18c-1.65,1.46-2.57,2.48-2.77,3.06-.2.59-.3,1.87-.31,3.83,1.25-2.24,2.28-4.54,3.08-6.9ZM1173.75,127.19l1.25-.27-6.81-19.15-.94.21c.52,3.38,1.59,7.02,3.21,10.93,1.62,3.9,2.71,6.67,3.29,8.29ZM1168.19,294.81l.38.24.24-.38-.38-.24-.25.38ZM1172.63,172.97l-1.56.34,1.83,3.86.94-.21c-.39-.78-.79-2.12-1.2-3.99ZM1173.67,195.67l1.46.66c.63-.14.89-.41.8-.83-.26-.16-.4-.35-.45-.56-.04-.21-.18-.29-.38-.24-.25-.16-.5-.05-.75.33-.24.38-.47.6-.68.64ZM1176.63,203.21c-.93-.23-1.47-.22-1.63.03-.21.05-.28.23-.21.54s.02.6-.14.85c.21-.04.44.02.69.18.25.17.46.12.62-.14.21-.04.43-.53.66-1.46ZM1177.03,187.07l-1.32-.04c.27,1.25.35,2.11.23,2.57l1.01.11.08-2.64ZM1178.32,140.6l-1.18.59,1.69,3.23.56-.45c-.32-1.46-.68-2.58-1.07-3.37ZM1183.32,208.3l-.75-3.44-.94.21,1.69,3.23,1.37,6.25c.6-1.22.8-2.35.57-3.4-.27-1.25-.92-2.2-1.94-2.85ZM1182.88,302.08l-.98,1.52c.05.21.45.56,1.21,1.05l.73-1.14-.97-1.43ZM1184.54,161.52l-.45-.56c-.33.51-.46.87-.42,1.07l.76.49.11-1.01ZM1186.45,194.18c.19-1.13.2-1.84.02-2.13-.18-.29-.85-.63-2.03-1.03.85.91,1.52,1.96,2,3.17ZM1189.29,195.2c.52,1.42.81,3.21.85,5.38.04,2.18.24,4.1.61,5.76.55,2.5,1.72,4.86,3.52,7.09-.2-3.89-.59-7.19-1.18-9.9-.96-4.38-2.22-7.16-3.79-8.34ZM1189.62,244.59l-.14-.62.24-.38.52.87-.62.14ZM1191.75,317.17c-.25-.16-.43-.45-.52-.87l-.49.76c.09.42.26.71.52.87l.49-.76ZM1206.19,317.29c-.67-.07-1.19-.18-1.54-.32-.36-.14-.67-.29-.92-.45-.21.05-.29-.04-.23-.28.06-.23.07-.45.02-.66l2.64.08.03,1.63ZM1210.16,314.45c1.34.15,2.37.36,3.09.63.05.21.08.37.1.47.02.11-.07.18-.28.22-1.25.27-2.21.38-2.88.3.16-.25.15-.8-.03-1.63Z"/><path class="cls-1" d="M1335.6,278.48c.93,3.29,3.26,5.4,6.96,6.34-1.46,2.29-3.34,3.68-5.63,4.18-2.5.55-4.71-.06-6.62-1.83l-2.74-2.02c-1.15-3.24-2.1-5.32-2.84-6.26-.75-.93-1.99-1.86-3.72-2.79,1.63,4.45,3.9,7.34,6.81,8.66.13,2.59.02,4.37-.31,5.31-.34.95-1.13,1.56-2.38,1.83l-4.2.26c-1.09.02-2.36.19-3.82.51-1.46.32-2.73.49-3.82.51-1.71.16-3.05.07-3.99-.27-.95-.33-1.71-1.31-2.28-2.94-.64-2.92-2.15-4.33-4.53-4.25-.53.56-.69,1.35-.46,2.39l1.13,3.68c.18.84.21,1.48.1,1.94-7.78.39-13.64.04-17.59-1.06-2.31-.58-4.5-1.09-6.55-1.51-2.06-.42-3.91-.89-5.55-1.41-4.21-1.26-6.57-2.05-7.07-2.38-1.23-.6-3.01-1.52-5.35-2.76-2.35-1.23-4.61-2.59-6.79-4.08-2.18-1.49-3.99-3.49-5.41-6.02-.6-.74-1.79-1.68-3.57-2.82-2.96-1.53-5.47-4.04-7.54-7.52-.44-1-1.42-2.25-2.96-3.78-1.54-1.52-2.6-2.65-3.2-3.39-.39-.78-1.84-3.42-4.35-7.89-2.51-4.47-4.55-8.83-6.14-13.07-4.09-10.68-7.15-20.71-9.21-30.09-.64-2.92-1.44-7.55-2.39-13.89v-2.95c4.46,10.38,8.48,19.22,12.04,26.52,3.45,7.76,7.84,15.87,13.18,24.3l-1.44-6.56c2.06.42,3.34.8,3.85,1.12.07-.67,0-1.52-.24-2.57-.41-1.88-1.52-2.94-3.32-3.2-2.39.09-4.11-1.28-5.16-4.11l-5.03-11.02c-4.87-10.29-8.61-17.88-11.21-22.77-1.52-2.94-2.71-6.39-3.58-10.35-.91-4.17-1.41-10.39-1.47-18.68-.07-6.32.64-14.01,2.16-23.07.86-8.05,3.59-16.51,8.2-25.38,2-4.8,4.75-8.25,8.22-10.32.42-.09.72-.7.91-1.84l1.44-3.92,6.55,4.46c.65-1.01.91-1.84.77-2.46s-.76-1.47-1.87-2.54c-1.92-1.76-1.78-3.65.4-5.66,1.11-.9,2.34-2.04,3.67-3.42,1.33-1.38,2.91-2.93,4.72-4.64,1.11-.9,2.09-1.44,2.92-1.62,1.88-.41,3.53.65,4.95,3.17.3.38.62.85.97,1.43.34.58.75.93,1.21,1.04,1.48.77,2.5,1.69,3.06,2.77.56,1.08,1.07,2.66,1.53,4.74.87,3.96,3.41,7.11,7.64,9.46l3.44,9.73c-1.67.37-2.39,1.07-2.16,2.11.14.63.55,1.52,1.24,2.68.78,1.58,1.57,2.93,2.36,4.07.79,1.14,1.49,2.08,2.09,2.82,1.68,2.69,1.58,5.22-.3,7.6-2.07,3.51-3.45,7.2-4.13,11.06-.68,3.87-1.14,8.77-1.37,14.71-.51,6.66.17,14.27,2.04,22.81,1.14,5.21,3.27,12.94,6.38,23.17,1.05,2.83,2.23,5.19,3.52,7.09,5.73,9.23,11.74,18.72,18.03,28.48l2.58-3.19c.72.28,1.83.64,3.35,1.07,1.51.44,2.68,1,3.48,1.69,2.63,2.05,4.36,3.96,5.19,5.74,2.41,4.06,5.83,10.19,10.25,18.39,1.49-3.16,2.1-5.37,1.83-6.62l-2.21-4.1-6.8-11.61c4.79-1.05,8.09-.46,9.89,1.77,1-.43,2.06-1.05,3.2-1.85,1.14-.79,2.12-1.28,2.95-1.47,4.38-.96,8.95-2.5,13.72-4.64,4.77-2.13,7.95-3.59,9.52-4.38.42-.09.95-.64,1.6-1.66l5.13-8c1.72-2.12,3.1-3.3,4.14-3.53,1.67-.36,3.49.99,5.47,4.04-4.07,4.39-7.26,9.24-9.59,14.55,1.55.1,2.81-.12,3.79-.66.97-.54,1.89-1.34,2.75-2.4.86-1.06,1.76-1.91,2.71-2.56l6.49,1.2c1.51,2.94,2.49,4.92,2.93,5.91-4.19,1.79-7.4,4.13-9.6,7.02-.7.81-1.7,1.47-3.01,1.97-1.31.51-2.17.8-2.59.89-2.21.92-3.44,1.74-3.72,2.45-.28.72-.25,2.35.09,4.89-1.69,1.25-3.58,2.09-5.67,2.55-2.92.64-6.02.45-9.3-.58l-.64,6.04c.55.53,1.53,1.25,2.92,2.14,1.39.9,2.29,1.74,2.68,2.52.43,1,.42,2.2-.03,3.61-.46,1.41-.75,2.35-.86,2.81l3.33.25c-.33.51-.93,1.24-1.81,2.2-.89.96-1.64,1.5-2.26,1.64-.83.18-2.33-.15-4.47-.99-.16-1.71-.03-3.6.4-5.66-1.02-.65-1.84-.91-2.46-.77-.42.09-1.04.5-1.86,1.23-.82.73-1.55,1.16-2.17,1.3l-.31.07c-1.01-2.61-1.95-4.16-2.81-4.63-.87-.46-3.23-1.04-7.09-1.72l8.68,11.2ZM1211.94,166.98l-.94.21,1.31,2.99.94-.21-1.31-2.99ZM1216.52,190.88l-.31.07.21.94.62-.14c-.09-.42-.27-.7-.52-.87ZM1220.5,171.66c-.18-.83-.38-1.23-.59-1.18-1.43-.56-2.59-.85-3.47-.88l-.11,1.01c-.03.88.39,1.28,1.25,1.2.85-.07,1.39-.14,1.6-.19.25.17.69.18,1.32.04ZM1217.01,176.68l.06,3.26c.14.62.56,1.3,1.26,2.02.7.72,1.21,1.27,1.51,1.64-1.11-3.03-2.04-5.34-2.83-6.92ZM1225.26,191.91l-2.94-2.96c.49,4.26,1.23,6.89,2.21,7.87.98.99,2.87,1.39,5.67,1.21-1.61-5.32-2.99-9.17-4.16-11.54-1.17-2.36-2.67-4.22-4.5-5.57l3.71,10.98ZM1223.87,125.72c.42-.09.71-.26.87-.52-.3-.37-.94-1.32-1.93-2.85-.42.09-.71.27-.87.52l1.93,2.85ZM1225.62,208.54c-.21.05-.78-.04-1.7-.28l-.42,1.07,1.14.73.98-1.52ZM1237.54,128.29c-.74-1.36-1.81-3.53-3.22-6.5-1.42-2.97-3.16-5.2-5.24-6.71,1,4.59,3.82,8.99,8.46,13.22ZM1231.62,113.21l1.18-.59c-1.25-1.69-2.02-2.72-2.32-3.1l-.87.52c.3.38.97,1.43,2,3.16ZM1231.12,127.4l-.76-.49c-.42.09-.58.35-.49.76l.76.49.49-.76ZM1232.37,151.05c.14.63.29,1.3.44,2.03.16.73.46,1.37.91,1.93.45.56,1.14.95,2.06,1.19.14-1.34.05-2.25-.27-2.73-.32-.47-1.38-1.28-3.15-2.42ZM1236.15,117.46c.02,1.09.21,2.47.58,4.13.23,1.04.67,1.82,1.33,2.33.66.51,1.68.94,3.07,1.29-.14-.62-.37-1.44-.7-2.47-.33-1.02-.77-2.01-1.31-2.99-.54-.97-1.53-1.74-2.96-2.3ZM1238.23,107.5l.94-.21-.79-2.12-.94.21.79,2.12ZM1248.94,265.67c-.78-1.57-1.66-3.57-2.62-5.98-3.31-7.14-6.14-12.09-8.49-14.85.55,2.5,1.42,4.99,2.61,7.45,1.2,2.47,2.74,5.02,4.63,7.67,1.89,2.65,3.18,4.55,3.87,5.7ZM1239.69,97.69c.25,2.13,1.48,4.75,3.69,7.87,2.21,3.12,4.21,5.25,5.98,6.39-1.4-5.37-4.62-10.13-9.67-14.26ZM1255.99,134.74c-.48-3.17-1.75-6.5-3.82-9.97l-7.22-10.54c-.78-1.57-2.01-2.18-3.67-1.82l-.62.14,3.31,6.15c3.82,7.47,7.83,12.81,12.03,16.04ZM1245.27,153.13c.21-.04.68-.36,1.43-.97-.57-1.62-1.29-2.88-2.14-3.79-.85-.9-2.08-1.51-3.67-1.82l4.39,6.57ZM1241.44,243.4c-.33.51-.46.87-.42,1.07.51.33.86.47,1.07.42-.04-.21.09-.56.42-1.07l-1.07-.42ZM1244.05,134.08l1.18-.59-1.49-2.3-.62.14.93,2.75ZM1249.77,148.22l.87-.52-5.11-8.38c.18.84.55,2.29,1.12,4.34.56,2.06,1.6,3.58,3.13,4.56ZM1252.29,117.86l.8-.83c-.3-.37-.96-.88-1.97-1.53l-.49.76,1.66,1.6ZM1278.12,105.65c.96,2.41,1.81,4.3,2.55,5.67l.94-.21-.24-2.57c.02-.88-.08-1.62-.32-2.22-.24-.6-.41-1.11-.5-1.53-.16-1.71-.15-2.92.03-3.61.17-.69.87-1.28,2.07-1.76,1-.43,1.76-.44,2.29-.01.53.43,1.16,1.33,1.9,2.7l1.59,1.29c.77-1.48.81-3.78.13-6.91-.09-.42-.18-1.32-.27-2.73-.09-1.4.04-2.79.39-4.18l7.72,6.83,2.34-5.75,7.71,9.78c.95,1.32,2.08,2.55,3.42,3.67,1.34,1.13,2.8,1.84,4.4,2.15.92.24,2.06.97,3.43,2.2,1.36,1.23,2.45,2.2,3.25,2.89l-2.34-4.73c-.99-1.53-1.58-2.71-1.76-3.55-.32-1.46.16-2.76,1.44-3.92,1.11-.9,2.23-1.25,3.37-1.07,1.13.19,2.32,1.13,3.57,2.82,2.56,2.72,5.13,5.98,7.71,9.78,2.58,3.81,4.34,6.37,5.29,7.69.46.12.85-.07,1.18-.59.32-.51.4-1.18.21-2.01l-.14-.63c-.62-1.83-1.66-3.57-3.11-5.22-4.47-6.44-7.67-12.08-9.59-16.9l1.11-.9c1.08,1.95,2.17,3.46,3.28,4.52,2.62-1.01,4.08-1.82,4.38-2.43.3-.61.18-2.17-.37-4.67-.02-1.09-.28-2.77-.78-5.07,8.67,9.68,14.13,15.69,16.39,18.03,1.33,4.08,2.56,6.7,3.69,7.87,1.13,1.18,3.28,2.51,6.44,4,.9-.85,1.27-1.7,1.08-2.53-.23-1.04-.49-1.74-.79-2.12l-11.75-17.74c-.79-1.57-1.51-3.16-2.19-4.76-.68-1.6-1.41-3.18-2.19-4.76.21-.04.77-.22,1.68-.53.92-.31,1.61.14,2.1,1.34l.14.63c2.21,2.14,3.96,4.37,5.24,6.72,1.27,2.34,3,6.01,5.19,10.98.69,1.16,1.8,2.23,3.32,3.2,1.52.98,2.41,1.55,2.67,1.71-1.97-6.99-4.05-12-6.23-15.01-6.66-9.46-11.25-17.95-13.77-25.48,2.72,2.46,5.3,6.27,7.74,11.41,1.82,3.32,3.04,5.45,3.69,6.4,5.16,7.61,9.34,13.25,12.54,16.91.07-.67-.03-1.63-.3-2.88-1.17-2.36-1.78-3.65-1.83-3.86-.27-1.25.12-2.43,1.19-3.54-1.33-4.07-2.45-7.21-3.37-9.42-2.25-4.31-3.74-7.59-4.45-9.84l5.74,8.24c.73,1.37,2.05,3.38,3.94,6.02.68,3.13,2.31,6.05,4.87,8.76-.36-3.63-1.98-6.55-4.87-8.76l-4.09-11.22c6.39,4.28,11.32,7.84,14.79,10.69,3.46,2.85,6.4,6.3,8.82,10.35-.24.93-.26,1.81-.08,2.64.34,2.55-.1,4.77-1.32,6.68-1.22,1.91-3.08,3.68-5.55,5.31-16.04,10.5-28.21,18.3-36.48,23.38-.58.35-2.63,1.45-6.15,3.31-3.64-6.63-7.79-11.89-12.46-15.78-4.67-3.89-10.24-6.11-16.69-6.67-5.32-.36-9.96-.11-13.92.75-7.5,1.64-14.76,5.42-21.76,11.31-2.81-2.87-5.26-7.04-7.32-12.48l5.81,5.61c.49-.76.71-1.25.67-1.46l-5.69-12.51c-.53-1.41-1.94-1.87-4.23-1.37-1.69-7.71-4.15-13.94-7.37-18.7-1.34-2.11-2.88-5.15-4.62-9.14.95-.64,1.74-.76,2.38-.36.63.41,1.27,1.09,1.92,2.04,4.51,8.63,7.45,14.09,8.83,16.41.34.58.76,1.47,1.24,2.68.48,1.21,1.13,2.16,1.94,2.85.81.7,2.09,1.07,3.85,1.12.67.07,1.52.71,2.54,1.9,1.03,1.2,1.94,2.14,2.75,2.84ZM1255.2,153.58l.14.63.24-.38-.38-.24ZM1260.52,128.51c-.22-3.01-1.57-4.68-4.04-5.01.5,2.3,1.85,3.97,4.04,5.01ZM1257.12,159.39c.05.21.39,1.28,1.03,3.21.64,1.94,1.98,3.55,4.01,4.85-.31-3.42-1.99-6.12-5.04-8.07ZM1259.23,140.58l-.62.14c.18.84.62,1.83,1.31,2.99l.94-.21-1.62-2.92ZM1272.22,213.41c-.39-2.75-1.26-5.24-2.61-7.45-1.36-2.21-3.34-4.78-5.95-7.71.47,3.17,1.85,6.2,4.12,9.09,2.27,2.89,3.75,4.91,4.44,6.07ZM1269.96,84.84l-2.21-4.1c2.06.43,3.2,1.16,3.43,2.2l-.04,1.32-1.18.59ZM1278.12,105.65l-5.17-11.64c2.66,1.17,4.3,3.21,4.94,6.12.37,1.67.44,3.51.23,5.52ZM1281.48,228.74c.56-1.43.8-2.35.7-2.77l-.07-.31c-1.84-2.43-4.17-5.09-6.99-7.97.47,5.14,2.56,8.72,6.28,10.75.38,2.76,1.49,5.3,3.31,7.63,1.82,2.33,3.5,3.55,5.05,3.64-.61-5.76-3.37-9.42-8.3-10.96ZM1296.09,273.04c-.04-.21-.04-.43.02-.66.06-.23-.04-.43-.29-.59-.92-2.2-2.67-5.2-5.25-9.01-3.5-6-5.78-10.42-6.83-13.25l-.45-.56c-.65-.95-1.73-2.41-3.25-4.37-1.52-1.96-2.62-3.96-3.28-6l-1.14-.73c-.03,2.85.07,4.79.29,5.83.23,1.05,1.16,2.81,2.79,5.29,2.79,3.76,4.81,6.76,6.06,8.99,1.25,2.24,1.99,4.86,2.21,7.87.16,1.72,1.5,3.39,4.04,5.01.6.74,1.47,1.26,2.63,1.55,1.15.29,1.96.5,2.43.61ZM1279.94,265.11l-1.49.65c-.15,1.34.07,2.55.63,3.63.56,1.08,1.5,2.13,2.82,3.15,1.31,1.02,2.22,1.7,2.74,2.02-.58-1.62-2.14-4.77-4.69-9.46ZM1282.46,279.63c.23-.92.33-1.49.28-1.7-.09-.42-.45-.56-1.07-.42-.33.51-.46.87-.42,1.08.05.21.45.56,1.21,1.04ZM1297.96,251.67c-.73-3.33-1.35-5.44-1.87-6.31-.52-.87-1.51-1.14-2.96-.83l-2.43.86c.34.58.84,1.35,1.48,2.29.64.95,1.38,1.83,2.21,2.63.83.8,2.02,1.25,3.57,1.35ZM1293.9,65.51l.07.31c-.21.05-.33-.03-.38-.24l-.07-.31.38.24ZM1296.96,283.01l-3.07-6.53c.14.62.17,1.27.1,1.94-.07.67-.04,1.32.1,1.94.27,1.25,1.23,2.14,2.87,2.65ZM1298.92,69l-.87.52c-.21.05-.33-.03-.38-.24-.04-.21-.17-.29-.38-.24.32-.51.61-.68.87-.52l.76.49ZM1299.3,277.25l-1.05,1.21,2.49,2.4.8-.83-2.25-2.78ZM1304.15,260.47c-.38.3-.87.52-1.49.66.14.62.39,1.55.77,2.78.38,1.23.84,2.11,1.4,2.64,2.51,2.51,4.43,5.25,5.74,8.24.14.62.76,1.47,1.87,2.54l5.12,5.43,5.26,6.06c.35-1.39.41-2.6.18-3.64l-.21-.94-5.52-10.26c-.74-1.36-1.42-1.98-2.04-1.85-1.29.07-2.28-.43-2.95-1.48-.67-1.05-1.15-1.76-1.45-2.14-.65-.95-1.5-2.34-2.56-4.19-1.06-1.84-2.43-3.12-4.12-3.85ZM1305.39,249.71l-1.84-.91-.73,1.14c.6.74,1.13,1.18,1.59,1.29l.97-1.52ZM1357.53,193.09l.38.24.7-2.77c.1-3.51-1.1-5-3.6-4.45-.83.18-1.44.43-1.81.72-.58.35-1.92,1.19-4.03,2.52-1.69,1.25-2.38,2.6-2.06,4.05.27,1.25,1.27,2.34,3.01,3.27l4.68,1.92c-4.06,2.42-8.59,4.17-13.59,5.27-1.67.37-3.88.74-6.63,1.12-2.75.39-5.05.89-6.88,1.51-.34-2.55-.88-4.5-1.61-5.87-.74-1.36-2.11-2.16-4.12-2.37-.46-.11-.95-.61-1.47-1.48-.52-.87-.93-1.49-1.23-1.86l-3.46-3.83c-.15,1.34-.12,2.43.06,3.26.27,1.25,1,2.84,2.19,4.76,1.18,1.93,1.89,3.41,2.12,4.45.14.62.13,1.61,0,2.95-.46-.11-.99-.27-1.58-.47-.59-.2-1.01-.38-1.26-.54-.3-.37-.82-1.24-1.55-2.61-.74-1.36-1.24-2.68-1.51-3.93-1.44-5.58-3.42-14.1-5.92-25.56-.59-2.71-.55-4.52.12-5.43.67-.91,2.36-1.66,5.07-2.26l73.74-14.83c5.63-1.23,9.92-2.06,12.88-2.49,2.29-.5,3.87-.52,4.74-.05.86.47,1.55,1.85,2.05,4.14.8,2.67,1.37,5,1.7,7,.33,2.01.65,3.74.97,5.19.37,1.67.51,2.84.44,3.51-.93,1.73-1.24,3.33-.92,4.79.23,1.05,1.24,2.68,3.04,4.9-.86,1.06-1.8,1.49-2.83,1.28-1.03-.21-1.88-.35-2.55-.42l-.4-4.83-5.83.29,1.09,5c-1.36-1.23-2.44-2.68-3.25-4.37-.81-1.68-1.51-3.65-2.12-5.92-.61-2.27-1.15-4.01-1.63-5.21l-1.25.27-.25,3.33c-.51-.32-1.07-.64-1.68-.94-.61-.3-1.3-.7-2.06-1.19.32,1.46.79,2.4,1.43,2.8.63.41,1.52.71,2.65.89.46,2.09,1.53,6,3.23,11.74l-7.47,3.27c-.62.14-1.45.37-2.46.7-1.02.34-1.79.78-2.33,1.33-.53.56-1.43.97-2.68,1.24-1.67.37-3.21-.17-4.61-1.61,5.82-2.36,10.04-5.03,12.66-8.01-1.83.62-3.95,1.19-6.34,1.71-2.4.53-4.3,1.05-5.71,1.58-1.42.53-1.98,1.42-1.71,2.67.14.63.5,1.31,1.1,2.05-.74.6-1.55,1.38-2.44,2.33-.88.96-1.72,1.63-2.51,2.02-.74.6-1.81,1.22-3.2,1.85-1.39.63-2.35,1.23-2.89,1.78-.28.72-.43,1.79-.44,3.21-.02,1.43-.14,2.6-.38,3.52-.12.47-.54,1.05-1.25,1.75-.72.71-1.35,1.33-1.88,1.89-.07-1.29-.06-2.77.01-4.43.07-1.65,0-3-.23-4.04-.09-.42-.66-.78-1.71-1.1-1.05-.31-1.96-.72-2.72-1.21ZM1310.26,258.48c-.78-1.57-1.24-2.68-1.38-3.3-.16.26-.45.43-.87.52l2.25,2.78c1.68,4.66,4.47,8.96,8.39,12.9-.44-.99-1.07-2.39-1.89-4.17-.83-1.78-1.74-3.44-2.73-4.97-.99-1.53-2.25-2.78-3.77-3.76ZM1315.85,82c-1.04-1.74-1.71-3.34-2.03-4.8-.46-2.08-.46-4.59-.01-7.53,1.38,2.32,2.21,4.1,2.48,5.35.41,1.88.27,4.2-.44,6.97ZM1324.46,269.45l-.56.45,1.49,2.29.8-.83c-.26-.16-.83-.8-1.73-1.91ZM1327.42,79.47l-.07-.31.45.56.07.31-.45-.56ZM1334.12,252.27l-5.94,1.3c.85.91,2.12,2.7,3.8,5.39,1.52,2.94,3.06,5.01,4.63,6.19.1-1.55-.44-3.23-1.6-5.05-1.17-1.82-1.83-3.15-2.02-3.98-.23-1.04.15-2.32,1.12-3.85ZM1334.78,285.21l-4.28-7.58.47,5.14c.18.83.58,1.4,1.19,1.71.61.31,1.48.55,2.62.74ZM1335.02,121.7c-.35,1.39-.37,2.32-.04,2.79.32.48,1.21.55,2.67.23l-2.63-3.03ZM1336.83,273.62l2.37,6.36-3.6-1.5,1.23-4.85ZM1341.08,105.96c.09.42.18,1.33.27,2.73.09,1.4,1.08,2.44,2.98,3.12l-1.3-5.94-1.94.1c-.3-.37-.91-1.38-1.81-3.04-.91-1.65-2.02-3-3.34-4.02.38,2.76,2.1,5.11,5.15,7.06ZM1341.25,250.38l1.86-4.99c.69-.81,1.38-1.39,2.07-1.76.68-.36,1.21-.7,1.58-1-.83.18-2.35.46-4.57.84-2.21.38-4.12,1.39-5.72,3.05l2.7,3.34,2.08.53ZM1356.84,279.73c-.58.35-1.62,1.07-3.13,2.16-1.51,1.1-2.99,1.8-4.45,2.12-.42.09-1.51.11-3.26.06,2.39-2.05,4.84-3.35,7.34-3.9,1.46-.32,2.63-.46,3.51-.44ZM1347.48,168.11c1.92-.2,4.13-.58,6.63-1.12,1.04-.23,1.85-.51,2.43-.86-.46-.11-1.21-.28-2.24-.49-1.03-.21-2.07-.2-3.11.02-1.46.32-2.7,1.14-3.72,2.45ZM1349.85,98.14l-2.04-1.85c.16-.25.45-.43.87-.52.09.42.48,1.21,1.17,2.36ZM1350.18,116.09l-.45-.56c-.42.09-.6.24-.56.45.09.42.26.71.52.87l.49-.76ZM1350.69,193.28c-.51-.32-.81-.69-.9-1.11l.56-.45,1.14.73-.8.83ZM1349.85,98.14c.3.38.71.78,1.25,1.2.53.43.84.85.93,1.27.18.83-.22,1.47-1.22,1.91l-.96-4.38ZM1351.12,244.62l.27,1.25c.88.03,2.15-.14,3.82-.51,5-1.09,9.07-3.95,12.21-8.57l-16.3,7.83ZM1352.7,238.37l.9,1.11,2.36-1.17-.65-1.5-2.61,1.55ZM1356.04,183.27l-2.39-.46c-.21.05-.48.32-.8.83.76.49,1.25.71,1.46.66l1.74-1.04ZM1357.79,266.09l-4.52,3.28c.03-2.84.67-4.41,1.92-4.68l1.32.04,1.28,1.36ZM1357.53,193.09c.02,1.09-.05,1.76-.21,2.01-.16.26-.62.14-1.39-.35-.76-.49-1.4-.89-1.9-1.22l3.89-.2-.38-.24ZM1356.84,279.73c-.09-.41-.16-.95-.19-1.6-.03-.65-.25-1.36-.63-2.15-.5-2.29.32-4,2.48-5.13,1.53-.99,3.08-2.15,4.64-3.47,1.56-1.32,3.3-2.63,5.2-3.92-1.43-.56-3.27-.7-5.5-.43-2.23.27-3.92.31-5.05.12-1.14-.19-2.15-.84-3.05-1.95.21-.04.59-.29,1.15-.74.56-.45,1.06-.61,1.53-.5,3.89-.2,6.88-1.51,8.97-3.93.9-.85,1.88-1.39,2.92-1.62,1.94-1.08,3.52-2.13,4.71-3.16,1.19-1.02,2.15-2.38,2.88-4.07.89-1.94,2.16-3.09,3.83-3.46.63-.14,1.17-.14,1.63-.03,2.35.8,4.3-.29,5.84-3.24,3.42-.31,5.93.67,7.52,2.94-1.37.74-2.11,1.34-2.23,1.8l.49,9.72,3.75-.82-2.39-10.94c.31-1.59.91-2.82,1.82-3.67.9-.85,2.25-1.69,4.04-2.52,1.78-.83,3.05-1.54,3.79-2.14.14-1.34-.11-2.21-.74-2.62-.64-.4-1.42-.72-2.34-.96-.92-.23-1.56-.64-1.9-1.22.16-.25.38-.74.66-1.46.28-.72.83-1.17,1.67-1.35.62-.14,2.43.12,5.41.78.37-.3,1.19-1.02,2.47-2.18,1.27-1.15,2.15-2.65,2.62-4.5.07-.67.82-1.49,2.25-2.46,1.43-.97,2.51-1.75,3.25-2.35.1-1.55-.2-3.89-.88-7.01-.32-1.46-.77-3.27-1.35-5.44-.59-2.17-1.09-4.73-1.52-7.69l1.88-.41c.69,1.16,1.15,2.26,1.38,3.3l.21.94c.29,2.34.94,5.8,1.94,10.38.73,3.34,2.08,8.5,4.05,15.49,2.24,8.25,3.71,14.48,4.42,18.69.29,2.34.68,4.39,1.18,6.13.49,1.75.88,3.25,1.15,4.5.53,1.42,1.11,3.58,1.75,6.5.41,1.88.41,3.14,0,3.77-.41.64-1.45,1.14-3.11,1.5-13.76,3.01-24.09,5.17-31.02,6.46l-1.88.41c-2.71.59-4.56.62-5.55.07-.99-.54-2.02-2.23-3.07-5.06-1.31-2.99-.3-4.85,3.04-5.58-.9-1.11-1.46-2.19-1.69-3.23-.32-1.46.09-3.08,1.23-4.85-2.72-2.46-5.23-3.44-7.52-2.94-.62.14-1.73.6-3.3,1.38-2.27,1.59-3.97,3.06-5.1,4.39-1.13,1.34-1.75,3.22-1.88,5.65-.19,1.14-.85,2.37-1.97,3.71-1.13,1.34-1.85,2.26-2.18,2.77-.86,1.06-1.97,2.23-3.33,3.51s-2.41,2.22-3.15,2.82c-.53.56-1.39,1.12-2.57,1.71-1.18.59-2.06,1.06-2.64,1.4ZM1364.67,209.22c.87,1.99.52,3.38-1.06,4.16-.48-1.2-.71-1.97-.67-2.31.03-.34.61-.95,1.72-1.85ZM1363.84,87.22l.38.24-.18.69-.38-.24.17-.69ZM1365.22,253.65l-.63.14-.38-.24.56-.45.45.56ZM1364.67,209.22l1.84-2.04.83.8c-.63.14-1.52.55-2.68,1.24ZM1376.55,172.23l-.8.83,1.14.73c.21-.04.47-.32.8-.83l-1.14-.73ZM1381.4,100.08l.94-.21-1.38-3.3-.94.21,1.38,3.3ZM1382.91,169.85l-.76-.49c-.62.14-1.02.34-1.18.59l.45.56c.62-.14,1.12-.35,1.49-.65ZM1384.95,227.06c.27,1.25.29,2.07.04,2.45-.24.38-.79.66-1.62.85l-1.56.34c.81-1.27,1.86-2.48,3.13-3.63ZM1389.85,95.28l3.73,5.08-1.18.59c-.76-.49-1.34-1.4-1.74-2.73-.4-1.33-.67-2.31-.81-2.94ZM1393.8,195.64l-2.07-3.48c1.39.35,2.15.84,2.29,1.47l-.22,2.01ZM1392.33,232.32l1.74-1.04.14.63-1.43.97-.45-.56ZM1404.63,249.61l-.28,1.7c.09.42.45.56,1.07.42l.73-1.14-1.52-.98ZM1407.18,168.47l.04-1.32-.69-.18c-.33.51-.46.87-.42,1.07l1.07.42ZM1418.92,252.05l.62-.14-1.27-4.31-.63.14c.43,1,.86,2.43,1.27,4.31ZM1420.5,256.29c-.07.67-.15,1.34-.21,2.01-.07.67-.04,1.32.1,1.94.18.83,1.01,1.64,2.49,2.4l.08-2.64c-.18-.83-1-2.07-2.45-3.72Z"/></svg>