<?xml version="1.0" encoding="UTF-8"?><svg id="stairs" xmlns="http://www.w3.org/2000/svg" xmlns:xlink="http://www.w3.org/1999/xlink" viewBox="0 0 2048 1536"><defs><style>.cls-1{fill:#6952a1;}.cls-1,.cls-2,.cls-3,.cls-4,.cls-5,.cls-6,.cls-7,.cls-8,.cls-9,.cls-10,.cls-11,.cls-12{stroke-width:0px;}.cls-2{fill:url(#linear-gradient);}.cls-3{fill:#989fc9;}.cls-4{fill:#a4abd5;}.cls-5{fill:#eccea8;}.cls-6{fill:url(#linear-gradient-2);}.cls-7{fill:#654ea3;}.cls-8{fill:url(#linear-gradient-3);}.cls-9{fill:#a09cc5;}.cls-10{fill:#a4abd5;}.cls-11{fill:#c5a2cc;}.cls-12{fill:url(#linear-gradient-4);}</style><linearGradient id="linear-gradient" x1="875.3" y1="952.95" x2="873.45" y2="932.4" gradientUnits="userSpaceOnUse"><stop offset=".1" stop-color="#654ea3"/><stop offset="1" stop-color="#60449a"/></linearGradient><linearGradient id="linear-gradient-2" x1="1078.42" y1="1196.5" x2="1074" y2="1167.39" gradientUnits="userSpaceOnUse"><stop offset="0" stop-color="#654ea3"/><stop offset=".72" stop-color="#61479d"/><stop offset="1" stop-color="#60449a"/></linearGradient><linearGradient id="linear-gradient-3" x1="1422.92" y1="1140" x2="1415.77" y2="1107.85" gradientUnits="userSpaceOnUse"><stop offset="0" stop-color="#654ea3"/><stop offset=".66" stop-color="#62499e"/><stop offset="1" stop-color="#60449a"/></linearGradient><linearGradient id="linear-gradient-4" x1="1196.17" y1="932.02" x2="1193.17" y2="904.18" gradientUnits="userSpaceOnUse"><stop offset="0" stop-color="#654ea3"/><stop offset=".63" stop-color="#634ba0"/><stop offset="1" stop-color="#60449a"/></linearGradient></defs><g id="stairs-2"><g id="bg"><rect class="cls-5" width="2048" height="1536"/></g><g id="base"><polygon class="cls-7" points="2039.65 1008.56 .01 1432.78 .01 1357.71 2041.37 977.52 2039.65 1008.56"/><polygon class="cls-7" points="1964.35 970.95 .01 1312.69 .01 1246.96 1965.61 945.12 1964.35 970.95"/><polygon class="cls-7" points="1890 940.89 .01 1213.13 .01 1149.44 1890 913.78 1890 940.89"/><polygon class="cls-7" points="1818.25 913.89 0 1119.75 .01 1056.72 1819.24 884.67 1818.25 913.89"/><polygon class="cls-7" points="1747.56 881.26 .01 1035.7 .01 980.52 1748.8 856.17 1747.56 881.26"/><polygon class="cls-7" points="1678.1 852.37 .01 964.92 .01 913.78 1679 825.8 1678.1 852.37"/><polygon class="cls-7" points="1612.15 823.89 .01 900.91 .01 853.04 1612.91 796.5 1612.15 823.89"/><polygon class="cls-7" points="1548.14 795.15 .01 845.18 .01 796.58 1548.99 767.61 1548.14 795.15"/><polygon class="cls-7" points="1483.6 766.46 .01 788.78 .01 739.78 1484 739.23 1483.6 766.46"/><polygon class="cls-7" points="1423.65 739.26 .01 739.78 .01 692 1423.99 711.08 1423.65 739.26"/><polygon class="cls-10" points="2041.37 977.52 .01 1357.71 .01 1312.69 1964.35 970.95 2041.37 977.52"/><polygon class="cls-10" points="1965.61 945.12 .01 1246.96 .01 1213.13 1890.02 940.89 1965.61 945.12"/><polygon class="cls-10" points="1890.02 914 .01 1149.44 0 1119.75 1818.25 913.89 1890.02 914"/><polygon class="cls-10" points="1819.24 884.67 .01 1056.72 .01 1035.7 1747.56 881.26 1819.24 884.67"/><polygon class="cls-10" points="1749.02 856.17 .01 980.52 .01 964.92 1678.1 852.37 1749.02 856.17"/><polygon class="cls-10" points="1679 825.8 .01 913.78 .01 900.91 1612.28 823.85 1679 825.8"/><polygon class="cls-10" points="1613.13 796.5 .01 853.04 .01 845.18 1547.72 795.06 1613.13 796.5"/><polygon class="cls-10" points="2048 1536 .01 1536 0 1432.78 2048 1006.82 2048 1536"/><polygon class="cls-10" points="1548.79 767.95 .01 796.58 .01 788.78 1483.58 766.46 1548.79 767.95"/></g><g id="extrudes"><polygon class="cls-2" points="1055.29 941.63 866.85 943.28 692.6 974.49 692.6 931.26 1055.61 904.91 1055.29 941.63"/><polygon class="cls-6" points="1274.05 1167.79 1061.42 1177.88 879.24 1249.91 879.24 1193.96 1274.05 1119.77 1274.05 1167.79"/><polygon class="cls-8" points="1560.46 1108.22 1397.6 1114.42 1274.05 1167.79 1274.05 1119.77 1561.95 1067.98 1560.46 1108.22"/><polygon class="cls-3" points="879.24 1249.91 1061.42 1177.88 1274.05 1167.79 879.24 1249.91"/><polygon class="cls-9" points="692.6 974.49 866.85 943.28 1055.29 941.63 692.6 974.49"/><polygon class="cls-9" points="1055.29 941.63 1174.22 918.81 1332.28 917.96 1055.29 941.63"/><polygon class="cls-12" points="1332.28 917.96 1174.22 918.81 1055.29 941.63 1055.61 904.91 1332.8 883.01 1332.28 917.96"/><polygon class="cls-3" points="1274.05 1167.79 1397.6 1114.42 1560.46 1108.22 1274.05 1167.79"/><polygon class="cls-4" points="1571.72 950.57 880.9 1034.67 692.6 974.49 1332.28 917.96 1571.72 950.57"/><polygon class="cls-4" points="1338.86 780.46 690.95 796.5 535.81 780.71 1093.57 772.44 1338.86 780.46"/><polygon class="cls-1" points="1276.57 1031.38 880.34 1088.34 880.9 1034.83 1279.85 986.32 1276.57 1031.38"/><polygon class="cls-1" points="1057.46 828.38 691.51 842.01 690.95 796.5 1058.7 787.4 1057.46 828.38"/><polygon class="cls-1" points="1056.41 867.26 692.07 887.46 691.51 842.01 1057.46 828.38 1056.41 867.26"/><polygon class="cls-1" points="1055.61 904.91 692.6 931.26 692.07 887.46 1056.41 867.26 1055.61 904.91"/><polygon class="cls-1" points="1336.83 815.37 1057.46 828.38 1058.7 787.4 1338.86 780.46 1336.83 815.37"/><polygon class="cls-1" points="1334.84 849.22 1056.41 867.26 1057.46 828.38 1336.83 815.37 1334.84 849.22"/><polygon class="cls-1" points="1332.8 885.76 1055.61 904.91 1056.41 867.26 1334.84 849.22 1332.8 885.76"/><polygon class="cls-1" points="1275.53 1076.66 879.79 1141.1 880.34 1088.34 1276.51 1031.39 1275.53 1076.66"/><polygon class="cls-1" points="1568.05 991.06 1276.51 1031.39 1279.85 986.32 1571.72 950.73 1568.05 991.06"/><polygon class="cls-1" points="1564.26 1031.39 1275.53 1076.66 1276.57 1031.38 1568.05 991.06 1564.26 1031.39"/><polygon class="cls-1" points="1561.95 1067.98 1274.05 1119.77 1275.53 1076.66 1564.26 1031.39 1561.95 1067.98"/><polygon class="cls-1" points="1274.05 1119.77 879.24 1193.77 879.79 1141.1 1275.53 1076.66 1274.05 1119.77"/><polygon class="cls-11" points="879.2 1194.46 825.93 1169.35 824.76 1120.81 780.12 1101.22 779.8 1052.71 732.41 1036.97 730.52 986.77 880.9 1034.83 879.2 1194.46"/><polygon class="cls-11" points="692.6 931.26 653.52 921.09 653.55 879.54 620.59 871.27 619.8 831.3 586.9 826.11 585.42 785.76 690.95 796.5 692.6 931.26"/><polygon class="cls-1" points="839.2 776.4 556.89 780.4 556.13 698.77 840.84 702.66 839.2 776.4"/><polygon class="cls-1" points="1093.57 772.44 839.2 776.4 840.84 702.66 1094.37 705.85 1093.57 772.44"/><polygon class="cls-11" points="556.51 739.58 529.57 739.59 528.48 699.08 556.13 698.77 556.51 739.58"/></g></g></svg>